<svg xmlns="http://www.w3.org/2000/svg" viewBox="0 0 102.26 20.09"><defs><style>.cls-1{fill:#969696;}</style></defs><g id="Capa_2" data-name="Capa 2"><g id="Capa_1-2" data-name="Capa 1"><path class="cls-1" d="M34.53,2.08c.45,0,.46-.33.46-.66s-.08-.65-.46-.63c-1.68.09-3.37.21-5.05.32h0c-1.68.11-3.36.24-5,.36-.38,0-.46.37-.46.7s0,.62.46.59c1-.08,2.86.13,2.86,1.81V14c0,1.69-2,2.17-3,2.24-.24,0-.28.26-.28.69s0,.62.42.59l5-.36h0c1.68-.12,3.37-.23,5.05-.33.38,0,.42-.22.42-.65s-.05-.66-.28-.64c-1,.05-3-.15-3-1.84V4.28c0-1.69,1.87-2.14,2.86-2.2"/><path class="cls-1" d="M20.22,11.25c-2.4.17-4.8.34-7.21.48-.38,0-.34.43-.34.74s0,.79.34.77l.67,0a1.41,1.41,0,0,1,1,.18.53.53,0,0,1,.2.31c0,.32.06.85.06,1.18h0a3.71,3.71,0,0,1-.95,2.7,3.92,3.92,0,0,1-2.72,1.09,3.52,3.52,0,0,1-3.4-1.5q-1.08-1.62-1.08-5.26c0-6.33,5.22-6.5,6.77-6.6,1.35-.08,2.22.65,2.22,1,0,.67.4.72,1,.68s1-.17,1-.94V3.63c0-1.2-.15-1.28-1-1.22-1.59.11-.61,1-1.47,1.1l-1.67.1a19.72,19.72,0,0,0-5.54.7A9.12,9.12,0,0,0,5.45,5.59a8.91,8.91,0,0,0-2.73,3,10.2,10.2,0,0,0-.48,1h0l-.06.13A2.85,2.85,0,0,1,.37,11.38a.56.56,0,0,0-.37.45A.86.86,0,0,0,0,12a.81.81,0,0,0,0,.16.54.54,0,0,0,.37.44A2.73,2.73,0,0,1,1.92,13.7a7.64,7.64,0,0,0,.76,2.23,7.17,7.17,0,0,0,2.65,2.74,8.85,8.85,0,0,0,2.53,1,9.73,9.73,0,0,0,2.87.24l.82,0C19.24,19.46,19,14,19,14a1.26,1.26,0,0,1,.27-.93,2.54,2.54,0,0,1,1-.25c.67-.05.67-.26.67-.8s0-.82-.69-.77"/><path class="cls-1" d="M99.17,11.39a19.1,19.1,0,0,0-2.93-.88c-.27-.07-.68-.13-1.2-.29C93.4,9.74,92.43,9,92.42,7.91c0-1.49,2.07-1.68,3.38-1.63s3.54.3,3.55,2.13a.85.85,0,0,0,.87,1c.51,0,.88-.05.88-.76,0-1.2,0-2.39,0-3.59,0-.87-.06-1.07-.9-1.09-1.31,0,.09,1.5-2,.89A18.16,18.16,0,0,0,93.83,4c-2.59-.13-5.79.84-6.08,3.45h0c0,.21,0,.42,0,.64a4.3,4.3,0,0,0,1.43,3.33c1,.86,2.64,1.36,4.79,2.21a3.18,3.18,0,0,1,2.17,1.93,1.51,1.51,0,0,1-.62,1.65,3.94,3.94,0,0,1-2.54.12c-1-.18-3.81-.78-3.81-2.11,0-.63-.39-.63-.72-.65s-.58,0-.56.35l0,4c0,.59.33.76.81.79,1.18.07.08-1.3,1.19-.92.61.2,2.22.63,2.54.72,2.56.81,6.07.84,8.14-.7a3.73,3.73,0,0,0,1.71-3.39c0-2.2-1.88-3.54-3.09-4.06"/><path class="cls-1" d="M61.44,15s-3-.28-3.13-2.1V4.15a3.59,3.59,0,0,1,.53-2.3c.36-.36,2.24-.32,2.24-.32.37,0,.3-.34.3-.66s.07-.65-.31-.66c-1.13,0-2.26-.09-3.4-.12l-.57,0C55.74,0,54.38,0,53,0c-.37,0-.38.33-.38.65s0,.62.37.68c0,0,1.89,0,2.25.42s.53.55.53,2.23c0,0,0,4.73,0,4.73,0,.34-.2.4-.44.14q-4-4.24-7.93-8.36A1.72,1.72,0,0,0,46.3.05c-1.65,0-3.29.1-4.94.17C41,.23,41,.53,41,.85s-.08.69.45.67a1.67,1.67,0,0,1,1.89,1.66v8.93c0,.14,0,.28,0,.4v.3c0,2-2.84,2.19-2.84,2.19-.37.08-.33.4-.33.71s0,.57.34.55l2.81-.11,1.7-.06c1.37,0,2.75-.06,4.12-.08.38,0,.35-.3.35-.61s0-.59-.34-.65c0,0-3.12-.12-3.13-2v-.3L46,12V5.45c.06-.19.22-.21.42,0q3.75,3.84,7.48,7.78c.4.41.86,1,.2,1.54-.38.3-.48.33-.48.65s0,.61.35.61l3.36.07.76,0,3.37.12c.37,0,.34-.28.34-.59s0-.59-.33-.67"/><path class="cls-1" d="M85.41,9.65A.55.55,0,0,0,85,9.19a3.13,3.13,0,0,1-1.66-1.44A7.91,7.91,0,0,0,83,6.59a8.44,8.44,0,0,0-1.86-2.78,9.66,9.66,0,0,0-3-2.07A12.15,12.15,0,0,0,74.18.85a11.26,11.26,0,0,0-3.85.35,7.85,7.85,0,0,0-3,1.63,7.09,7.09,0,0,0-1.9,2.56,6.8,6.8,0,0,0-.31.86.77.77,0,0,1,0-.15,2.67,2.67,0,0,1-1.86,1.67.49.49,0,0,0-.37.43.86.86,0,0,0,0,.16.86.86,0,0,0,0,.16.55.55,0,0,0,.37.46,3,3,0,0,1,1.65,1.37,7.53,7.53,0,0,0,.45,1.55,8.23,8.23,0,0,0,1.93,2.68,10,10,0,0,0,3.09,2.1,11.57,11.57,0,0,0,3.8.88A10.43,10.43,0,0,0,78,17.18a8.43,8.43,0,0,0,3.16-1.7,6.71,6.71,0,0,0,1.87-2.41,7.18,7.18,0,0,0,.48-1.7,2.59,2.59,0,0,1,1.51-1,.47.47,0,0,0,.37-.41,1,1,0,0,0,0-.17.85.85,0,0,0,0-.16m-7.89,4.78A3.41,3.41,0,0,1,74.18,16a4,4,0,0,1-3.34-2,9.3,9.3,0,0,1-1.09-5.06A8.48,8.48,0,0,1,70.85,4a3.39,3.39,0,0,1,3.33-1.54,4,4,0,0,1,3.36,2,9.31,9.31,0,0,1,1.09,5.08,8.33,8.33,0,0,1-1.11,4.88"/></g></g></svg>