<svg xmlns="http://www.w3.org/2000/svg" viewBox="0 0 119.85 103.33"><defs><style>.cls-1{fill:#969696;}</style></defs><g id="Capa_2" data-name="Capa 2"><g id="Capa_1-2" data-name="Capa 1"><path class="cls-1" d="M79.56,28.62l1.55,2c.51.66,1,1.31,1.54,2a38.68,38.68,0,0,1,2.69,3.66c.42.75.81,1.52,1.2,2.29.25.47.48,1,.72,1.44.44.87.87,1.75,1.32,2.62.11.23.26.45.38.67a1.52,1.52,0,0,1,.22.51c.07.53.1,1.07.16,1.6s.11.77.15,1.08c-1.14,1.08-2.24,2.06-3.26,3.13-.42.45-.81,1-1.27,1.37a20.81,20.81,0,0,1-2.3,1.89c-.67.46-1.33.94-2,1.4a20.87,20.87,0,0,1-3.6,1.88q-1.44.62-2.88,1.29a29.14,29.14,0,0,1-4.52,1.66c-.5.13-1,.31-1.48.42-.74.16-1.5.28-2.25.41L65.5,60a22.32,22.32,0,0,1-2.83.35c-.67,0-1.33.16-2,.23a4,4,0,0,1-1,0c-1.1-.16-2.2-.34-3.3-.52-.87-.15-1.74-.29-2.6-.45-1.12-.21-2.23-.45-3.35-.67L46.15,58c-1-.22-2-.44-3-.68a6.94,6.94,0,0,1-1.1-.42,2.44,2.44,0,0,1-1.19-1.58,34.4,34.4,0,0,1-1.37-4.83,9.38,9.38,0,0,1-.18-1.67c-.07-2.13-.1-4.26-.16-6.39,0-.6-.14-1.21-.12-1.81A9.71,9.71,0,0,1,39.53,38l3.32.18c.19,0,.37.05.55.07a2.41,2.41,0,0,0,.84.05,13.65,13.65,0,0,1,2.3-.13c2.69-.21,5.39-.1,8.08-.15a5.91,5.91,0,0,0,1.29-.26l6.65-1.55c1.47-.34,3-.62,4.42-1a22.13,22.13,0,0,0,2.63-.92,21.19,21.19,0,0,0,2.18-1,8.46,8.46,0,0,0,1.29-1c1.07-.86,2.12-1.74,3.18-2.62a.52.52,0,0,0,.11-.1C77.19,28.6,78.35,28.57,79.56,28.62Z"/><path class="cls-1" d="M76.11,26.61a8,8,0,0,1-1.91,1.66c-.85.65-1.74,1.24-2.64,1.83-.64.43-1.3.81-1.91,1.29a3.08,3.08,0,0,1-1,.42c-1.5.49-3,1-4.45,1.65a22.67,22.67,0,0,1-2.79.9c-1.34.38-2.69.74-4.05,1a13.11,13.11,0,0,1-2.25.41,18,18,0,0,0-1.93.29c-.5.09-1,.21-1.5.25-.91.07-1.82.11-2.73.15-.72,0-1.44,0-2.16.12A10.78,10.78,0,0,1,43,36.15c-1-.25-2.08-.46-3.15-.7a1.74,1.74,0,0,1-.23-1,10.92,10.92,0,0,1,0-1.9c.21-1.09,0-2.2.25-3.27a.74.74,0,0,0,0-.21A16.75,16.75,0,0,1,40.49,25c.33-1.47.63-2.95.94-4.42a5.47,5.47,0,0,0,.13-.55.66.66,0,0,1,.53-.57c.68-.23,1.37-.46,2-.72,1-.4,2-.86,3-1.22A11,11,0,0,0,49.69,16a5,5,0,0,1,2.17-1,17.16,17.16,0,0,0,1.7-.36,5.64,5.64,0,0,1,2.35,0,12.05,12.05,0,0,0,1.8.17,7.09,7.09,0,0,1,3,.68c.69.34,1.42.57,2.14.86a10.09,10.09,0,0,1,2.39,1.14c.3.22.58.46.86.71A23.86,23.86,0,0,0,70,20.85c1,.56,2,1.16,3,1.75l.68.42.14.54.61.2,0,.48L75.9,25.3Z"/><path class="cls-1" d="M56.62,13.18l.2-1.39s0-.07.06-.09a9.63,9.63,0,0,0,1.51-1.55A1.79,1.79,0,0,0,58.91,9a10.81,10.81,0,0,1,.21-1.37c.11-.62.22-1.23.34-1.85,0-.24.12-.49.18-.73.58-.07,1.13-.17,1.68-.21,1-.07,2,0,2.93-.16s2-.09,3-.23a6.2,6.2,0,0,1,2.31.06c.38.09.77.12,1.17.18.68.1,1.38.18,2.06.3s1.51.28,2.26.4a24,24,0,0,1,4.15,1.21c.86.29,1.71.6,2.57.9l.45.18A13.45,13.45,0,0,1,82.6,10c.08.85.09,1.68.12,2.52,0,.39.09.78.13,1.18a6.67,6.67,0,0,1-.6,3.27c-.46,1.19-1,2.36-1.54,3.52a6,6,0,0,1-.82,1.29A25.23,25.23,0,0,0,78,24c-.05.08-.14.12-.22.19a2,2,0,0,1-1.19-.53c-.62-.48-1.21-1-1.83-1.51a3.25,3.25,0,0,0-.86-.47c-.39-.14-.8-.22-1.22-.34a3.29,3.29,0,0,0-1.33-1.2c-1.6-1-3.18-2-4.75-3.08-.5-.34-.91-.8-1.39-1.16a9.56,9.56,0,0,0-2.77-1.13c-.55-.2-1.11-.36-1.66-.53-.8-.25-1.6-.51-2.4-.73C57.86,13.4,57.28,13.31,56.62,13.18Z"/><path class="cls-1" d="M53.72,12.19l-2.32.24-.3,1.68a22.59,22.59,0,0,1-2.94,1.29c-1.42.48-2.91.61-4.32,1.1a7.57,7.57,0,0,1-2.41.27c-1.38,0-2.76.09-4.13.15-.28,0-.55.12-.83.13a8.75,8.75,0,0,1-2.27-.31c-.69-.17-1.38-.38-2.08-.57-.39-.64-.39-1.52-1.23-1.75v-1.5c.48-.87.94-1.63,1.34-2.42a3.21,3.21,0,0,1,1.1-1.24,11.57,11.57,0,0,0,2.5-2.44,2.48,2.48,0,0,1,1-.69l1.65-.76,4.88-2.29a1.2,1.2,0,0,1,.4-.11,10.42,10.42,0,0,0,2.16-.14,3.06,3.06,0,0,1,.89-.14c.53,0,1.06.14,1.58.21l.44,0c.33-.44-.14-.93.14-1.34,1,.18,1.89.41,2.83.5a8.91,8.91,0,0,1,2.17.45A2.45,2.45,0,0,1,55.37,3.7a3.61,3.61,0,0,0-.26.69,3.19,3.19,0,0,0,0,.69c.74.75,1.79.43,2.65.81A11.35,11.35,0,0,1,57.15,8,4.94,4.94,0,0,1,56,9.9c-.44.44-.83.94-1.27,1.39S54,12,53.72,12.19Z"/><path class="cls-1" d="M85,8.23H86l.22.62.66.05a2.39,2.39,0,0,1,.34.31c.47.61.94,1.22,1.39,1.84a1,1,0,0,1,.18.45c.15,1.1.28,2.21.44,3.31.11.71.28,1.41.4,2.12.16.94.29,1.88.45,2.82.22,1.28.47,2.55.68,3.83.17,1.1.29,2.21.45,3.32.09.66.23,1.32.34,2s.24,1.55.35,2.34.18,1.47.27,2.21a5.19,5.19,0,0,1,0,.56q0,3.9,0,7.82a2.63,2.63,0,0,1-.33,1.55,2.86,2.86,0,0,0-.22.55l-.56,0c-.49-.82-1-1.6-1.44-2.42C88.8,40,88,38.4,87.24,36.84c-.47-.91-1-1.8-1.45-2.69l-.71-.1c-.18-.37-.37-.74-.53-1.13a10.11,10.11,0,0,0-1.82-3c-.43-.48-.78-1-1.17-1.54s-.59-.73-.84-1.12a2.25,2.25,0,0,1-.17-2.38c.33-.64.65-1.3,1-1.91a6,6,0,0,0,.83-2.35,14.35,14.35,0,0,1,1-3.41c.56-1.43,1.15-2.85,1.68-4.29a3.49,3.49,0,0,0,.2-2.26A9.16,9.16,0,0,1,85.11,9C85.08,8.8,85.07,8.57,85,8.23Z"/><path class="cls-1" d="M37.64,37.69c0,.56.11,1.09.12,1.62,0,1-.06,2.11,0,3.17.13,1.63,0,3.27.15,4.9,0,.8.07,1.59.13,2.38a7.48,7.48,0,0,0,.29,1.29c.3,1.17.61,2.33.9,3.51a4.46,4.46,0,0,1,0,.83,1.94,1.94,0,0,1-1.55,0c-.58-.29-1.15-.62-1.73-.93l-2.15-1.15c-.56-.3-1.13-.58-1.66-.91a4.73,4.73,0,0,1-.93-.74,11.52,11.52,0,0,0-1.81-1.54c-.29-.19-.61-.33-.92-.51,0,0-.06-.06-.06-.11-.06-.83-.1-1.67-.17-2.51s-.18-1.75-.27-2.63a.17.17,0,0,0,0-.07c0-.86-.07-1.73-.15-2.58-.18-2.06-.07-4.12-.16-6.18,0-.77-.11-1.54-.11-2.31,0-.13,0-.27,0-.39.38-.37.8-.24,1.25-.24l.21.64a1.06,1.06,0,0,0,.28.15,3.25,3.25,0,0,1,2.2,1.7,2,2,0,0,0,1.08.85C34.28,36.5,35.91,37.07,37.64,37.69Z"/><path class="cls-1" d="M39.25,19.59a3,3,0,0,1,.06.48c0,.71,0,1.41,0,2.11a9.27,9.27,0,0,1-.14,1c-.13.87-.27,1.74-.41,2.61a1.48,1.48,0,0,0,0,.21c0,.79-.09,1.58-.14,2.37,0,.11,0,.22-.07.34-.12.82-.24,1.65-.35,2.48,0,.32-.1.64-.14,1-.12.94-.23,1.88-.35,2.89a1.91,1.91,0,0,1-.48,0l-2.35-.65a10.49,10.49,0,0,1-3.15-1.63c-.33-.22-.68-.41-1-.6a11.46,11.46,0,0,1-2.33-1.77A21.92,21.92,0,0,1,28,27.64c.05-.6.08-1.21.16-1.81.12-1,.28-1.92.4-2.89s.19-1.8.29-2.7c.05-.48.09-1,.15-1.45a1.07,1.07,0,0,1,.17-.31c1.4.34,2.76.7,4.14,1a4.54,4.54,0,0,0,2.48.12,1.74,1.74,0,0,1,.56,0Z"/><path class="cls-1" d="M91.42,49.88A31.23,31.23,0,0,1,91,57.56a25.18,25.18,0,0,1-4.83,1.82c-1.36.3-2.73.54-4.1.8l-2.74.5-2.81.48-3.09.55h-.14l-2.93.15c-.33,0-.65.09-1,.11s-.5,0-.81,0l-.07-1c.65-.27,1.29-.54,1.94-.78l6.16-2.29c.46-.17.85-.47,1.3-.67a20.4,20.4,0,0,0,3.85-2c.89-.67,1.87-1.23,2.79-1.86,1.34-.93,2.67-1.88,4-2.83a3,3,0,0,1,2.16-.64C90.88,49.9,91.12,49.88,91.42,49.88Z"/><path class="cls-1" d="M119.73,102.48l.12.69a1.9,1.9,0,0,1-.34.11c-1.16.11-118.92,0-119.38-.09a.49.49,0,0,1,0-.71Z"/><path class="cls-1" d="M78.29.63a14.35,14.35,0,0,1,1,1.29,9.3,9.3,0,0,0,1.88,2.31c.12.11.12.34.2.55A3.4,3.4,0,0,1,79.29,5c-1.3-.2-2.6-.44-3.9-.67-.69-.12-1.37-.27-2-.38S71.78,3.77,71,3.67L69,3.4h-.14c-1.17,0-2.34-.06-3.5-.12a30,30,0,0,0-4.13.14c-.7.07-1.39.1-2.09.12a4.15,4.15,0,0,0-.48.11A1.57,1.57,0,0,1,57,3.08l-.33-.47L55.46,2.4l-.17-.6C54.2,1.4,53.13,1,52.06.61c-.27-.1-.54-.17-.61-.56.2,0,.38,0,.55,0,7.93,0,15.87,0,23.8,0a9.1,9.1,0,0,1,2,.4A4.18,4.18,0,0,1,78.29.63Z"/><path class="cls-1" d="M0,92.51V92a.46.46,0,0,1,.19-.09c.23,0,.47,0,.7,0H119.72l0,.57C119.57,92.62,1,92.65,0,92.51Z"/><path class="cls-1" d="M41,61.3c-.15.07-.21.12-.28.12l-2.86.16c-.3,0-.61,0-.91,0l-7.09-.14a4.62,4.62,0,0,1-.47-.09c-.28-2.93-1.1-5.76-1.34-8.73a2.09,2.09,0,0,1,1.36.1,15,15,0,0,0,1.49.61,6.52,6.52,0,0,1,.92.45c.39.21.79.4,1.19.6l3.14,1.51,3.09,1.48a2,2,0,0,1,1.07.85,4.56,4.56,0,0,0,.5.68A1.21,1.21,0,0,1,41,60.18,4.09,4.09,0,0,0,41,61.3Z"/><path class="cls-1" d="M37.13,65.89l.16-.52h2a4.57,4.57,0,0,1,.06.58c0,1.67,0,3.34,0,5A5.05,5.05,0,0,1,39,72.38a1.25,1.25,0,0,1-.48.57,6.32,6.32,0,0,1-3,1,12.53,12.53,0,0,1-2.52.12,9,9,0,0,1-3-.55,2.88,2.88,0,0,1-.78-.45A1.07,1.07,0,0,1,28.76,72h2.06a1.88,1.88,0,0,0,1.77,1,18,18,0,0,0,2.32,0,3.69,3.69,0,0,0,1.33-.38A1.46,1.46,0,0,0,37,71a5.66,5.66,0,0,0-.59.15,7.13,7.13,0,0,1-2.67.43,9.08,9.08,0,0,1-3-.41,4.35,4.35,0,0,1-2-1.38A2.09,2.09,0,0,1,28.38,68a3,3,0,0,1,1.82-2.08,7,7,0,0,1,3.13-.64,8.92,8.92,0,0,1,2.77.29ZM37,67.52a3,3,0,0,0-1.65-1.08c-.2-.06-.41-.06-.61-.11a4.46,4.46,0,0,0-3.18.47,1.83,1.83,0,0,0,.18,3.31,6.3,6.3,0,0,0,1.46.44,4.36,4.36,0,0,0,3.32-.74,1.56,1.56,0,0,0,.62-1.72C37.09,67.91,37.05,67.73,37,67.52Z"/><path class="cls-1" d="M80.82,78l.11-.5a5.68,5.68,0,0,1,2.35-.05c0,2.26,0,4.53,0,6.79a2.09,2.09,0,0,1-1.19,1.86,4.25,4.25,0,0,1-3,.45c-.21,0-.42,0-.63,0a2.62,2.62,0,0,1-1.78-.87,2.23,2.23,0,0,1-.42-1.75l2.49.37.45.53h1a1.71,1.71,0,0,0,.39-1.67c-.13.08-.23.17-.35.23a2.68,2.68,0,0,1-2.72.07,2.74,2.74,0,0,1-1.32-1.82,4.3,4.3,0,0,1,0-2.14,2.66,2.66,0,0,1,2-2.12,2.49,2.49,0,0,1,2.24.41A3.16,3.16,0,0,0,80.82,78Zm-.74,3.85a1.5,1.5,0,0,0-.3-2.64c-.31.1-.66.12-.82.45a2.16,2.16,0,0,0-.06,1.76.77.77,0,0,0,.61.42A2.69,2.69,0,0,0,80.08,81.86Z"/><path class="cls-1" d="M54.81,75.13V78a7.61,7.61,0,0,1,1.69-.63A2.09,2.09,0,0,1,59.06,79a9.26,9.26,0,0,1,.12,1.74v3.15a8.28,8.28,0,0,1-2.65,0c0-.17,0-.35,0-.53,0-1,0-2,0-3a1.11,1.11,0,0,0-.35-.92h-.7l-.42.39A21.16,21.16,0,0,0,54.79,84c-.88.05-1.73,0-2.65,0,0-.45,0-.85,0-1.24s.11-.78.11-1.17-.08-.79-.11-1.18,0-.56,0-.84c0-.83,0-1.65,0-2.47,0-.67,0-1.33.06-2A5.88,5.88,0,0,1,54.81,75.13Z"/><path class="cls-1" d="M63,71.15l-.14.45h-2a3.35,3.35,0,0,1-.07-.45,14.37,14.37,0,0,0-.12-2.45,4.51,4.51,0,0,1,.06-1c0-.8,0-1.59,0-2.38,0-.23-.1-.49,0-.69a2.57,2.57,0,0,0,.05-1.23,4.52,4.52,0,0,1,2.32-.09V66a13.52,13.52,0,0,1,2-.55,9.62,9.62,0,0,1,2.51-.07,7.28,7.28,0,0,1,2.93.85,2.56,2.56,0,0,1,.63,4,5.89,5.89,0,0,1-2.81,1.32,9.89,9.89,0,0,1-3.07.12A13.76,13.76,0,0,1,63,71.15ZM69.47,68c-.55-.87-.57-.89-1.46-1.25a6.69,6.69,0,0,0-.8-.21,4.3,4.3,0,0,0-3.59.69,1.88,1.88,0,0,0-.35,2.5,2.54,2.54,0,0,0,1.46.9,5.65,5.65,0,0,0,3.69-.3,1.65,1.65,0,0,0,1-1.58Z"/><path class="cls-1" d="M81.94,67.64a.61.61,0,0,0-.31-.82,2.72,2.72,0,0,0-.78-.29,6.63,6.63,0,0,0-2.84,0,.74.74,0,0,1-.21,0,1.66,1.66,0,0,0-1.42.62,2.82,2.82,0,0,1-.39.37c-.65-.09-1.36.19-2-.24a1.3,1.3,0,0,1,.54-.81A5.24,5.24,0,0,1,77,65.53a17.72,17.72,0,0,1,3.64-.13,8.23,8.23,0,0,1,2.39.42,3,3,0,0,1,.57.27,1.28,1.28,0,0,1,.71,1.2,5.23,5.23,0,0,0,0,.56,10.79,10.79,0,0,0,.21,3l.47.52c-.1.07-.17.17-.25.17H82.61l-.43-.66a.75.75,0,0,0-.22,0,8.3,8.3,0,0,1-3.47.68,14.3,14.3,0,0,1-2.07,0,5.41,5.41,0,0,1-2.25-.68,1.09,1.09,0,0,1,0-2,4.68,4.68,0,0,1,2-.73c.57-.1,1.16-.1,1.74-.15l2.84-.27c.18,0,.37,0,.56,0S81.71,67.69,81.94,67.64Zm0,1a13.72,13.72,0,0,1-1.62.23c-1,0-2,.19-3,.28a2.43,2.43,0,0,0-1.3.5l.05.49a5.45,5.45,0,0,0,2.11.57,2.22,2.22,0,0,0,.63,0,6.58,6.58,0,0,0,.89-.13,5.43,5.43,0,0,0,1.47-.42C81.92,69.71,82.16,69.46,81.93,68.66Z"/><path class="cls-1" d="M67.49,83.89a.88.88,0,0,1-.23.09H65.19l-.4-.49a.53.53,0,0,0-.17,0,3.81,3.81,0,0,1-2.68.59,1.9,1.9,0,0,1-1.81-1.22A1.75,1.75,0,0,1,61,80.6,11.89,11.89,0,0,1,63.07,80a4,4,0,0,0,1.58-.51c-.26-.56-.42-.65-1-.6-.41,0-.49.08-1,.77l-2.31-.25a2.2,2.2,0,0,1,2.22-2.08l1.11-.13a3,3,0,0,1,.42,0,7.78,7.78,0,0,0,1,.11,2.27,2.27,0,0,1,2.25,2.29c0,.68,0,1.37,0,2A4.73,4.73,0,0,0,67.49,83.89ZM64.59,81c-.69.38-1.56.21-2,1l.27.5C64.11,82.67,64.74,82.14,64.59,81Z"/><path class="cls-1" d="M75.25,84H72.7c-.21-.15-.13-.41-.13-.63,0-1.17,0-2.34,0-3.57L72,79.35c-.77.29-.93.51-.94,1.24s0,1.74,0,2.6V84c-.9.05-1.75,0-2.59,0a49.33,49.33,0,0,1,0-6.56,15.94,15.94,0,0,1,2.3,0l.19.8a3.92,3.92,0,0,1,.38-.35A2.58,2.58,0,0,1,74,77.46a2,2,0,0,1,1.21,1.82C75.28,80.85,75.25,82.42,75.25,84Z"/><path class="cls-1" d="M91.73,81.46H87.05a.7.7,0,0,0,.32.89c.56.36,1,.27,1.71-.34.31,0,.64,0,1,0,.5,0,1,.13,1.57.21a3.21,3.21,0,0,1-1.5,1.56,3.65,3.65,0,0,1-1.7.34A11.13,11.13,0,0,1,86.6,84a2.91,2.91,0,0,1-2.26-2.14,3.51,3.51,0,0,1,.49-3.24A2.9,2.9,0,0,1,87,77.35c.23,0,.46-.12.69-.12a4.92,4.92,0,0,1,2.55.57,3.08,3.08,0,0,1,1.5,2.46A9.44,9.44,0,0,1,91.73,81.46ZM89,80c-.15-.8-.65-1.2-1.23-1.07a1.35,1.35,0,0,0-.78.56.37.37,0,0,0,0,.51Z"/><path class="cls-1" d="M35.75,81.45H31.12c-.13.5,0,.75.49,1s.93.12,1.44-.51l2.56.25a1,1,0,0,1-.28.64,3.14,3.14,0,0,1-2.26,1.27A7.57,7.57,0,0,1,30.35,84a2.73,2.73,0,0,1-1.82-1.72,3.56,3.56,0,0,1,.34-3.58,2.89,2.89,0,0,1,1.75-1.18,4.46,4.46,0,0,1,4,.58,2.61,2.61,0,0,1,1.06,1.66A5,5,0,0,1,35.75,81.45ZM33.07,80c-.21-.85-.69-1.23-1.29-1a1.19,1.19,0,0,0-.73.62c-.06.12,0,.29,0,.42Z"/><path class="cls-1" d="M52.87,65.39a8,8,0,0,1,2.78.31A4.53,4.53,0,0,1,58.08,67a2.43,2.43,0,0,1,.38,2.36A3,3,0,0,1,56.79,71a8,8,0,0,1-2.71.62c-.46,0-.92.12-1.38.13a9.89,9.89,0,0,1-3.63-.6,3,3,0,0,1-2-1.68,2.41,2.41,0,0,1,.06-2,3.08,3.08,0,0,1,2-1.54A9.46,9.46,0,0,1,52.87,65.39Zm3.33,2.49a3.32,3.32,0,0,0-1.84-1.31,6,6,0,0,0-3.17,0A2.47,2.47,0,0,0,49.32,68a4.1,4.1,0,0,1,0,.48,1.71,1.71,0,0,0,1.08,1.73,4.94,4.94,0,0,0,2.5.51,5.91,5.91,0,0,0,1.83-.34,1.89,1.89,0,0,0,1.5-2.13C56.22,68.12,56.21,68,56.2,67.88Z"/><path class="cls-1" d="M35.72,84c.72-1.25,1.59-2.26,2.27-3.37-.63-1-1.47-1.91-2.13-3,.21-.09.35-.21.48-.21.86,0,1.72,0,2.53,0L39.81,79a9,9,0,0,0,1.12-1.59,6.92,6.92,0,0,1,2.86.12l-2.1,3L44,84H40.94l-1-1.79c-.41.11-.5.52-.71.8s-.4.63-.62,1Z"/><path class="cls-1" d="M38.85.44a.75.75,0,0,1,0,.26A9.34,9.34,0,0,1,36.7,3.37a6.68,6.68,0,0,1-1.34.73,8.2,8.2,0,0,0-1.83.84,4.75,4.75,0,0,0-.4.38c-.5.49-1,1-1.49,1.47s-.81.7-1.22,1a3.08,3.08,0,0,1-.32.23A1.86,1.86,0,0,1,30,7.62a9,9,0,0,1,.13-2.37,1.31,1.31,0,0,0,0-.28c.05-1.16.11-2.33.16-3.49,0,0,0-.08.08-.19.54-.05,1.11-.09,1.68-.16L33.93.87,35.24.72,36.91.57c.39,0,.78-.1,1.17-.13S38.58.44,38.85.44Z"/><path class="cls-1" d="M51.47,79.6A17.43,17.43,0,0,1,49,80c-.36-.82-.36-.82-1.49-.78a1.2,1.2,0,0,0-.77.91,2.78,2.78,0,0,0,0,1.34,1.06,1.06,0,0,0,1.29.83l.38,0,.75-1,2.41.32a3.06,3.06,0,0,1-1.83,2.22,3.65,3.65,0,0,1-1.57.28A7.91,7.91,0,0,1,46.32,84a3.1,3.1,0,0,1-2.22-2.21,3.53,3.53,0,0,1,.35-2.9,3,3,0,0,1,2.31-1.52,7.54,7.54,0,0,1,1-.12,3.72,3.72,0,0,1,3.26,1.4A5.12,5.12,0,0,1,51.47,79.6Z"/><path class="cls-1" d="M80.62.59a9,9,0,0,1,1-.16c.87,0,1.74,0,2.6,0a7.79,7.79,0,0,1,2.54.44,3.41,3.41,0,0,1,.57.29c.1,1.11.19,2.2.3,3.29.07.59.19,1.19.26,1.79a6.58,6.58,0,0,1,0,.77.76.76,0,0,1-.86.11c-.8-.33-1.6-.64-2.38-1a2.49,2.49,0,0,1-.75-.62c-.81-1-1.59-1.95-2.38-2.93A3,3,0,0,1,80.62.59Z"/><path class="cls-1" d="M87.43,63.29h2.1a1.33,1.33,0,0,1,.15.45c0,2.48,0,5-.06,7.44a2.94,2.94,0,0,1,0,.37H87.47C87.33,71.06,87.3,64.28,87.43,63.29Z"/><path class="cls-1" d="M44.53,71.57H42.4l-.06-.07s0,0,0,0l0-7.45v-.71c.73,0,1.43,0,2.16,0a1.86,1.86,0,0,1,.17.52c0,2.27-.05,4.54-.07,6.81Z"/><path class="cls-1" d="M30.45,94.72H31.5l3,4.52a26.78,26.78,0,0,1,.23-4.51l.74,0a11.24,11.24,0,0,1,0,1.83c0,.63-.1,1.25-.12,1.88s0,1.22,0,1.83a2.64,2.64,0,0,1-1.19.11c-.31-.46-.61-1-.94-1.43a11.11,11.11,0,0,1-1-1.4,16,16,0,0,0-1-1.52c-.23,1.52,0,2.92-.19,4.29a2.88,2.88,0,0,1-.41.06l-.49,0c0-.27,0-.52,0-.77,0-.44.09-.88.12-1.32C30.35,97.07,30.39,95.93,30.45,94.72Z"/><path class="cls-1" d="M65.34,94.71h1.19l2.93,4.41a1.5,1.5,0,0,0,.13-.43c0-.61,0-1.22,0-1.83s.07-1.38.11-2.12h.86c0,.42,0,.81,0,1.2s-.09.79-.11,1.18c-.06,1-.11,2.09-.16,3.17h-1c-.22-.08-.37-.33-.54-.61-.47-.77-1-1.5-1.52-2.25-.31-.46-.58-1-.91-1.5a2.11,2.11,0,0,0-.07.31l-.15,3.85a.88.88,0,0,1,0,.19h-.77C65.14,98.43,65.54,96.61,65.34,94.71Z"/><path class="cls-1" d="M9,94.69a2.36,2.36,0,0,1,2,.62,2.94,2.94,0,0,1,.83,2.82,2.78,2.78,0,0,1-2.94,2.34,5.68,5.68,0,0,1-1.24-.15,2.23,2.23,0,0,1-1.75-1.63,3.32,3.32,0,0,1,.4-2.9,2.51,2.51,0,0,1,2-1.1C8.48,94.67,8.69,94.69,9,94.69Zm-.13.66a5.24,5.24,0,0,0-.88.16,2,2,0,0,0-1.26,1.63,2.1,2.1,0,1,0,4.13.58c0-.16,0-.33,0-.49a1.8,1.8,0,0,0-.57-1.37A1.83,1.83,0,0,0,8.86,95.35Z"/><path class="cls-1" d="M75.6,99.55a2.77,2.77,0,0,0,.16-1.69l-1.24-.07.12-.69a10.64,10.64,0,0,1,2,.05l-.06,3.07a13.37,13.37,0,0,1-1.35.24,6.06,6.06,0,0,1-2.16-.15A2.34,2.34,0,0,1,71.3,98a3.06,3.06,0,0,1,.75-2.34,2.47,2.47,0,0,1,1.82-.91c.68,0,1.36,0,2,0a1.91,1.91,0,0,1,.54.15l.15.74a1.86,1.86,0,0,1-.41,0,5.6,5.6,0,0,0-1.87-.19,2.05,2.05,0,0,0-2,2.06c0,.14,0,.28,0,.42a1.69,1.69,0,0,0,1.61,1.85A2.54,2.54,0,0,0,75.6,99.55Z"/><path class="cls-1" d="M25,98.9c.91,1.12,2.06,1,3.28.66V97.8l-1.23.08.05-.74a13.75,13.75,0,0,1,2,0c.42.54,0,1,0,1.48a12.3,12.3,0,0,1,0,1.49.89.89,0,0,1-.3.19,7.23,7.23,0,0,1-3,.09,2.56,2.56,0,0,1-2-3.13A2.8,2.8,0,0,1,26,94.78a1.57,1.57,0,0,1,.48-.09c.6,0,1.21,0,1.82,0a4,4,0,0,1,.66.16v.79a9.41,9.41,0,0,0-1-.24c-.35,0-.7,0-1,0a2.1,2.1,0,0,0-2.12,2.13,5.47,5.47,0,0,0,0,.7A6.08,6.08,0,0,0,25,98.9Z"/><path class="cls-1" d="M53.39,100.29c-.06-1.88.32-3.7.1-5.56h1A7.9,7.9,0,0,1,54.4,97a11,11,0,0,0,3,.06c.15-.73-.1-1.53.3-2.29l.79-.11a1.55,1.55,0,0,1,.08.48,13.15,13.15,0,0,0-.14,2.66c0,.83-.12,1.66-.19,2.53h-.89c-.12-.79.31-1.59,0-2.45l-.94,0H55.37a1.16,1.16,0,0,0-1,.3v2.19Z"/><path class="cls-1" d="M43.3,60.61l-.19-1.44c.26-.2.45-.09.65,0,1.31.39,2.63.77,4,1.13,1,.28,2.06.52,3.09.79.16,0,.31.12.48.18a.61.61,0,0,1-.64.46,13.72,13.72,0,0,1-2.71.13c-1.15-.12-2.29,0-3.46-.12Z"/><path class="cls-1" d="M97,100.28a4.32,4.32,0,0,1-.46,0l-.58,0-1.78-3a5.32,5.32,0,0,0,.94,0,4.81,4.81,0,0,0,.73-.27A1.17,1.17,0,0,0,96,95.68c-.53-.48-1.18-.2-1.83-.3a5.11,5.11,0,0,0-.06.59L94,100a1.9,1.9,0,0,1-.08.35l-.92-.08c-.13-.79.23-1.53.17-2.31a21.35,21.35,0,0,1,0-2.4,4.65,4.65,0,0,1,.17-.91,23,23,0,0,1,2.5,0c1,.12,1.5.89,1.15,2a4.57,4.57,0,0,1-.27.56l-1.14.55c0,.49.48.75.62,1.18A6.77,6.77,0,0,0,97,100.28Z"/><path class="cls-1" d="M15,97.83l1.51,2.39c-.31.2-.61.09-.88.1a18.32,18.32,0,0,1-1.78-3l1.44-.21c.49-.7.49-.74.29-1.42-.55-.44-1.18-.23-1.85-.25,0,.24,0,.44,0,.64l-.15,4.06s0,.08-.07.17h-.86a1.83,1.83,0,0,1,0-.52,9.23,9.23,0,0,0,.13-2.23c0-.49,0-1,0-1.47s.08-1,.12-1.38h2.32a1.41,1.41,0,0,1,1.48,1,1.62,1.62,0,0,1-.89,1.81C15.49,97.65,15.25,97.73,15,97.83Z"/><path class="cls-1" d="M61.56,94.73l1-.1,2,5.68h-1l-.76-2.2a20,20,0,0,0-2,0l-1.08,2.21h-1C59.58,98.34,60.67,96.58,61.56,94.73Zm.44,1a6.52,6.52,0,0,0-.81,1.6h1.4A5.8,5.8,0,0,0,62,95.71Z"/><path class="cls-1" d="M46.78,94.62l1,.13-1,1.36-1,1.36c.62.94,1.2,1.85,1.82,2.8a3.77,3.77,0,0,1-1.05.06l-1.41-2.09-1.6,2.06H42.42l2.19-2.84-1.67-2.64c.36-.22.69-.09,1-.13l1.27,1.92A9.47,9.47,0,0,0,46.78,94.62Z"/><path class="cls-1" d="M77.78,94.71h3.75l.06.65c-.94.09-1.82,0-2.78.07l-.09,1.64h2.39v.76c-.79.28-1.62-.07-2.44.16v1.56l.39.21a9.22,9.22,0,0,1,2.24-.15l.16.56a12.88,12.88,0,0,1-3.77.1,15,15,0,0,1,.1-2.76C77.74,96.6,77.78,95.69,77.78,94.71Z"/><path class="cls-1" d="M91.82,97.12c.07.33.12.58-.14.76H89.45c-.24.49-.06,1.07-.11,1.65l.25.15H92.1l0,.67H88.43a10.6,10.6,0,0,1,.06-2.82c0-.91,0-1.82,0-2.79,1.3-.1,2.5,0,3.75,0l0,.62a4.51,4.51,0,0,1-1.41.09c-.44,0-.88,0-1.35,0l-.16,1.65C90.16,97.15,91,97,91.82,97.12Z"/><path class="cls-1" d="M18.23,98.07v1.52c.87.09,1.76,0,2.71.06l.06.53a13,13,0,0,1-3.77.07.87.87,0,0,1,0-.32,10.45,10.45,0,0,0,.13-2.37c.06-.93.13-1.86.2-2.78a17.89,17.89,0,0,1,3.73,0l-.19.62H18.36v1.66H20.8v.77C20,98.09,19.13,97.79,18.23,98.07Z"/><path class="cls-1" d="M42.41,94.72l0,.68H39.64V97c.25.16.53.07.8.08s.8,0,1.2,0a2.33,2.33,0,0,1,.49.14l-.19.67a8.7,8.7,0,0,1-2.33-.07c-.3.53-.08,1.1-.16,1.63a.66.66,0,0,0,.63.27c.69-.06,1.38-.1,2.14-.15l0,.61a14,14,0,0,1-3.7.1,1,1,0,0,1-.08-.8,11.19,11.19,0,0,0,.13-2.24,6.58,6.58,0,0,1,.11-1.53,3.67,3.67,0,0,0,0-1Z"/><path class="cls-1" d="M111.66,97.91c-.08.57-.13,1-.19,1.49a.88.88,0,0,0,.06.17c.86.26,1.77-.1,2.67.11a.56.56,0,0,1,.07.18c0,.13,0,.27,0,.39a18.21,18.21,0,0,1-3.7,0c.08-1.82.17-3.63.26-5.44a15.84,15.84,0,0,1,3.54,0s.06.07.06.11,0,.28,0,.47c-.88.16-1.78,0-2.67.11a4,4,0,0,0-.12,1.59c.82.11,1.64,0,2.52.08l-.07.79Z"/><path class="cls-1" d="M97.29,94.73l.95-.1,1.61,4.73c.47-.45.53-1.06.81-1.55s.51-1,.76-1.5.52-1,.8-1.59a1.66,1.66,0,0,1,1,.07l-2.81,5.52H99.28Q98.29,97.55,97.29,94.73Z"/><path class="cls-1" d="M109.81,94.74l0,.74c-.1,0-.23.08-.32,0a4.11,4.11,0,0,0-1.67-.11,2,2,0,0,0-1.75,1.89,9.45,9.45,0,0,0,.11,1.31c1,1.39,2.18,1.29,3.53.87l0,.75a4.22,4.22,0,0,1-3,0,2.68,2.68,0,0,1-1.47-3c.11-.33.17-.68.3-1a2.44,2.44,0,0,1,2.4-1.49A11.14,11.14,0,0,1,109.81,94.74Z"/><path class="cls-1" d="M52.65,94.73l.05.74c-.14,0-.27.09-.36,0a4.11,4.11,0,0,0-1.52-.12,1.67,1.67,0,0,0-1.41.77A2.38,2.38,0,0,0,49,98.41a1.9,1.9,0,0,0,1.85,1.34c.53,0,1-.12,1.63-.19v.64a3.77,3.77,0,0,1-2.34.2,2.35,2.35,0,0,1-1.56-.85,3.4,3.4,0,0,1-.42-.71,3.18,3.18,0,0,1,.61-3.37,2.14,2.14,0,0,1,1.39-.75A12.66,12.66,0,0,1,52.65,94.73Z"/><path class="cls-1" d="M2.34,100.31H1.55c0-.63,0-1.25,0-1.87.05-1.21.11-2.42.17-3.63a13.35,13.35,0,0,1,3.42-.06s.07.11.07.17,0,.27,0,.47H2.59V97c.7.12,1.45,0,2.14.07a.53.53,0,0,1,0,.8l-1.07,0H2.59c0,.43-.06.82-.1,1.2S2.4,99.86,2.34,100.31Z"/><path class="cls-1" d="M117.48,99a3.09,3.09,0,0,0-.94-1.12c-.16-.15-.41-.22-.56-.39-.31-.34-.58-.72-.85-1.06a4.61,4.61,0,0,1,0-.75,1.35,1.35,0,0,1,1.21-1c.58,0,1.17,0,1.75,0a1.45,1.45,0,0,1,.1.94c-.54-.39-1.11-.17-1.63-.24-.44.34-.44.34-.44,1,.41.37.89.78,1.35,1.2s.8.62.87,1.15a1.44,1.44,0,0,1-1.45,1.74,3.82,3.82,0,0,1-1.86-.24l-.06-.76c.29.07.48.13.68.17a4.51,4.51,0,0,0,.82.12C117.09,99.76,117.24,99.63,117.48,99Z"/><path class="cls-1" d="M84.17,100.23v-.75l.62.15a7.37,7.37,0,0,0,.82.13.9.9,0,0,0,1-.71,4.78,4.78,0,0,0-1.31-1.49c-.06-.06-.17-.09-.24-.15-.67-.61-1.2-1.33-.45-2.31.8-.65,1.73-.35,2.67-.42v.78l-1.52-.08c-.13.12-.25.21-.34.31-.28.33-.29.53,0,.84s.66.59,1,.89.45.41.66.64a1.34,1.34,0,0,1-.52,2.27,3.39,3.39,0,0,1-1.73.09A7.12,7.12,0,0,1,84.17,100.23Z"/><path class="cls-1" d="M22.12,94.72h.93a13.72,13.72,0,0,1-.09,2.8c0,.91,0,1.82,0,2.77H21.9c.21-1.14-.06-2.31.2-3.46a5.24,5.24,0,0,0,0-1.19Z"/><path class="cls-1" d="M104.3,100.3h-.93c-.07-.37,0-4.92.13-5.57.12,0,.25,0,.39,0l.49,0C104.53,96.56,104.12,98.39,104.3,100.3Z"/></g></g></svg>