<svg xmlns="http://www.w3.org/2000/svg" viewBox="0 0 134.56 36.17"><defs><style>.cls-1,.cls-2{fill:#969696;}.cls-2{fill-rule:evenodd;}</style></defs><g id="Capa_2" data-name="Capa 2"><g id="Capa_1-2" data-name="Capa 1"><polygon class="cls-1" points="79.17 6.52 74.94 6.52 73.63 10.55 72.32 6.52 68.08 6.52 71.51 4.03 70.2 0 73.63 2.49 77.06 0 75.75 4.03 79.17 6.52"/><polygon class="cls-1" points="79.17 6.52 74.94 6.52 73.63 10.55 72.32 6.52 68.08 6.52 71.51 4.03 70.2 0 73.63 2.49 77.06 0 75.75 4.03 79.17 6.52"/><path class="cls-1" d="M10.8,14.16H7.68L6.1,24.32a29.76,29.76,0,0,0-.38,3.53H5.66c0-.73-.23-3.15-.32-3.65L4,14.16H0L3.39,30.63H7.62l1.17-6.89a36.37,36.37,0,0,0,.38-3.92h.12A38.2,38.2,0,0,0,9.78,24L11,30.63h4.14l3.33-16.47H14.69l-1.26,10c-.09.5-.32,2.92-.32,3.65H13a27.8,27.8,0,0,0-.38-3.53Z"/><path class="cls-2" d="M31.82,30.63a9,9,0,0,1-.32-2.31V18.6c.06-2.16-.26-4.88-5.43-4.88-4.76,0-5.78,2.19-5.75,5.31h3.62c0-1.48.26-2.39,2-2.39,1,0,1.61.12,1.78.85.32,1.34-.26,2.07-1.87,2.74-3,1.23-5.63,2.13-5.63,5.9,0,3.39,1.34,4.93,4.41,4.93a4,4,0,0,0,3.33-2.13H28a3.08,3.08,0,0,0,.23,1.7ZM27.7,23.74c-.08,1.57.32,4.4-1.92,4.4C24.37,28.14,24,27.3,24,26a2.49,2.49,0,0,1,.64-2c1-.82,2.13-1.46,3.06-2.11Z"/><path class="cls-2" d="M42.22,20.29v4.94c0,1.89-.62,2.91-1.84,2.91s-1.58-1.25-1.67-2.83V19.82c.12-1.63-.06-3.18,1.72-3.18s1.84,2.34,1.79,3.65M35.09,32.47c.21,2.77,2.28,3.7,4.79,3.7,5.2,0,6.13-2.68,6.13-6v-16H42.22v1.69h-.06a3,3,0,0,0-3.3-2.13c-2.45.06-3.86,1.34-3.94,5.87v6c.08,2.62.73,5.51,3.94,5.51a3.54,3.54,0,0,0,3.47-2.16l.06.06v1.9c0,1.29-.29,2.57-1.9,2.57a2.35,2.35,0,0,1-1.16-.23.79.79,0,0,1-.44-.73Z"/><path class="cls-2" d="M60.75,30.63a9,9,0,0,1-.32-2.31V18.6c.06-2.16-.26-4.88-5.43-4.88-4.76,0-5.78,2.19-5.75,5.31h3.62c0-1.48.26-2.39,2-2.39,1,0,1.61.12,1.78.85.33,1.34-.26,2.07-1.86,2.74-3,1.23-5.64,2.13-5.64,5.9,0,3.39,1.34,4.93,4.41,4.93a4,4,0,0,0,3.33-2.13h.06a3.08,3.08,0,0,0,.23,1.7Zm-4.12-6.89c-.08,1.57.33,4.4-1.92,4.4-1.4,0-1.78-.84-1.78-2.1a2.49,2.49,0,0,1,.64-2c1-.82,2.13-1.46,3.06-2.11Z"/><path class="cls-1" d="M68.12,14.16h-3.8V30.63h3.8V19.79c0-1.81.08-3.12,1.87-3.15s1.86,1.2,1.86,2.66V30.63h3.8V19.79c0-1.92.29-3.06,1.93-3.15S79.39,18,79.39,19.5V30.63h3.79V17.22c0-1.75-1.22-3.5-4-3.5a3.89,3.89,0,0,0-3.82,2.13c-.26-1.55-2.13-2.16-3.53-2.13a3.76,3.76,0,0,0-3.63,2.13h0Z"/><path class="cls-2" d="M97.63,30.63a9,9,0,0,1-.32-2.31V18.6c.06-2.16-.26-4.88-5.43-4.88-4.76,0-5.78,2.19-5.75,5.31h3.62c0-1.48.26-2.39,2-2.39,1,0,1.61.12,1.78.85.33,1.34-.26,2.07-1.86,2.74-3,1.23-5.64,2.13-5.64,5.9,0,3.39,1.34,4.93,4.41,4.93a4,4,0,0,0,3.33-2.13h.06a3.08,3.08,0,0,0,.23,1.7Zm-4.12-6.89c-.08,1.57.33,4.4-1.92,4.4-1.4,0-1.78-.84-1.78-2.1a2.49,2.49,0,0,1,.64-2c1-.82,2.13-1.46,3.06-2.11Z"/><path class="cls-1" d="M104.93,14.16h-3.8V30.63h3.8V19.79c0-1.81.09-3.12,1.87-3.15s1.87,1.2,1.87,2.66V30.63h3.79V19.79c0-1.92.3-3.06,1.93-3.15S116.2,18,116.2,19.5V30.63H120V17.22c0-1.75-1.23-3.5-4-3.5a3.91,3.91,0,0,0-3.83,2.13c-.26-1.55-2.13-2.16-3.53-2.13A3.75,3.75,0,0,0,105,15.85h-.06Z"/><path class="cls-2" d="M134.56,30.72a8.59,8.59,0,0,1-.32-2.31V18.69c0-2.16-.27-4.88-5.44-4.88-4.76,0-5.78,2.19-5.75,5.32h3.62c0-1.49.27-2.4,2-2.4,1,0,1.6.12,1.78.85.32,1.34-.26,2.07-1.87,2.75-3,1.22-5.63,2.13-5.63,5.89,0,3.39,1.34,4.94,4.4,4.94A4,4,0,0,0,130.67,29h.06a3,3,0,0,0,.24,1.69Zm-4.12-6.89c-.09,1.58.32,4.41-1.93,4.41-1.4,0-1.78-.85-1.78-2.1a2.56,2.56,0,0,1,.64-2c1-.82,2.14-1.46,3.07-2.1Z"/></g></g></svg>