<svg xmlns="http://www.w3.org/2000/svg" viewBox="0 0 117.8 30.02"><defs><style>.cls-1{fill:#969696;}</style></defs><g id="Capa_2" data-name="Capa 2"><g id="Capa_1-2" data-name="Capa 1"><path class="cls-1" d="M45.1,7.28,45,9.38c3.51-2.86,7.7-3.73,10.65.2.35-.29.7-.59,1.07-.86a7.68,7.68,0,0,1,7.19-1.45,4.31,4.31,0,0,1,2.93,5c-.7,3.43-1.41,6.84-2.14,10.26-.33,1.58-.44,1.66-2.14,1.66-1.17,0-2.34,0-3.5,0-.87,0-1-.22-.83-1.1.57-2.85,1.19-5.69,1.77-8.55a8.77,8.77,0,0,0,.2-2c0-.86-.42-1.19-1.29-1.3A2.75,2.75,0,0,0,55.8,12.7a12.85,12.85,0,0,0-.93,2.85c-.57,2.48-1,5-1.6,7.45-.26,1.14-.3,1.16-1.5,1.19s-2.55,0-3.82,0-1.28-.24-1-1.38q1-4.5,1.93-9c0-.1.07-.2.09-.3.16-.83.15-1.73-.63-2.14a2.39,2.39,0,0,0-2.58.13A4.15,4.15,0,0,0,44,14.06c-.58,2.9-1.23,5.8-1.88,8.69-.31,1.41-.36,1.43-1.8,1.44-1.22,0-2.44,0-3.66,0-.94,0-1.13-.28-.94-1.2.74-3.57,1.51-7.14,2.26-10.71.28-1.3.61-2.58.79-3.89.11-.79.4-1.12,1.2-1.11C41.63,7.3,43.31,7.28,45.1,7.28Z"/><path class="cls-1" d="M112.38,26.07c-.21,1.24-.39,2.17-.52,3.11-.07.5-.3.78-.81.8H29.46c-2.05,0-2.05,0-1.05-1.86a5.07,5.07,0,0,0,.29-.57,2.25,2.25,0,0,1,2.46-1.52c7.23.05,14.45,0,21.68,0h59.54Z"/><path class="cls-1" d="M75.79,8.55l1.73-.86a7.65,7.65,0,0,1,5-.64A5.69,5.69,0,0,1,87,13.44a30.39,30.39,0,0,1-1,4.31,9.72,9.72,0,0,1-5.49,6.05A7.12,7.12,0,0,1,75,24a11.47,11.47,0,0,1-2.57-1.79,1.48,1.48,0,0,0-.21.3c-.6,1.65-.6,1.65-2.29,1.65-1,0-1.91,0-2.86,0-1.13,0-1.24-.17-1-1.2.68-3,1.4-6,2.05-9C69,10,69.83,6,70.68,1.92A7.86,7.86,0,0,0,70.93,1,1,1,0,0,1,72,.05C73.53,0,75.07,0,76.6,0c.54,0,.84.3.69,1-.45,2-.84,3.93-1.24,5.9C76,7.33,75.91,7.79,75.79,8.55Zm-1.88,8.52a4.43,4.43,0,0,1,0,.6A2.19,2.19,0,0,0,75,20.22,2.8,2.8,0,0,0,78,19.65a8.89,8.89,0,0,0,2.18-7.36c-.09-1-.79-1.41-1.79-1.48a3.14,3.14,0,0,0-3.17,1.7A7.79,7.79,0,0,0,73.91,17.07Z"/><path class="cls-1" d="M107.43,13.1c-.57,5.11-2.57,9-7.31,10.69a10.42,10.42,0,0,1-5.62.56c-.93-.19-1.9-.2-2.81-.46A6.09,6.09,0,0,1,87.37,17a11.6,11.6,0,0,1,3.82-7.46,9.32,9.32,0,0,1,4.48-2.28c2.77-.54,5.55-.73,8.25.5C106.36,8.86,107.13,10.93,107.43,13.1Zm-6.72.64a13.84,13.84,0,0,0-.11-1.59,1.79,1.79,0,0,0-1.72-1.59A3.2,3.2,0,0,0,96,11.66,9.78,9.78,0,0,0,94.09,19c.14,1.2.84,1.65,2.07,1.72A3,3,0,0,0,99,19.25,11,11,0,0,0,100.71,13.74Z"/><path class="cls-1" d="M5.56,18.42H7.79c.51,0,.83.23.8.77a1.43,1.43,0,0,0,1.24,1.73,2.14,2.14,0,0,0,2.23-1.18,1,1,0,0,0-.44-1.61,7.8,7.8,0,0,0-1.49-.54c-1.11-.35-2.25-.62-3.34-1-2.86-1.08-3.38-3.14-2.16-5.75A6.52,6.52,0,0,1,8.91,7.48a12.89,12.89,0,0,1,7.82-.06,4,4,0,0,1,3,3.9c0,1.12-.23,1.41-1.37,1.43s-2.44,0-3.66,0c-.72,0-1.1-.25-1.06-1s-.21-1.38-1.06-1.52a2,2,0,0,0-2.11.79,1,1,0,0,0,.43,1.7c.87.37,1.8.6,2.7.91A31.11,31.11,0,0,1,17,14.87c1.38.66,1.78,1.72,1.6,3.29-.41,3.71-3,5.42-5.88,6a17.19,17.19,0,0,1-6.63.06C3.37,23.73,1.94,22,2.19,19.36c.06-.66.33-.95,1-.94Z"/><path class="cls-1" d="M27.27,17c1.16-2.29,2.13-4.22,3.12-6.15a17.6,17.6,0,0,0,1.24-2.4,1.62,1.62,0,0,1,2-1.15,18.5,18.5,0,0,1,4.08.22,12.55,12.55,0,0,1-.55,1.37q-3.84,7-7.71,13.9c-1.08,1.95-2.23,3.86-3.21,5.86A2.15,2.15,0,0,1,23.84,30c-1.31-.08-2.63,0-4.22,0,.55-1.3,1-2.36,1.45-3.39s1.12-2.29,1.69-3.42A2.47,2.47,0,0,0,23,21.36c-.67-3-1.24-6-1.85-9-.26-1.3-.53-2.59-.76-3.89-.16-.89.05-1.14,1-1.17s2.12,0,3.18,0,1.12.2,1.27,1.23c.33,2.3.66,4.61,1,6.9A13.23,13.23,0,0,0,27.27,17Z"/><path class="cls-1" d="M109.67,24.18c-.79,0-1.59,0-2.39,0-.51,0-.77-.29-.63-.85.08-.3.07-.63.13-.94.62-2.84,1.25-5.69,1.86-8.53l2.52-11.63c0-.11,0-.22,0-.32.37-1.94.36-1.92,2.3-1.74A14.84,14.84,0,0,0,115.7.1c.43,0,.85-.12,1.27-.1.61,0,1,.26.78,1-.45,2-.82,3.94-1.23,5.91-1.13,5.38-2.28,10.77-3.37,16.16-.16.77-.47,1.12-1.25,1.11s-1.48,0-2.23,0Z"/><path class="cls-1" d="M0,30c.24-1.22.44-2.09.59-3a1,1,0,0,1,1.07-1H17.55c1.73,0,1.82.13,1.05,1.67C17.29,30.37,17.86,30,15.09,30,10.7,30,6.3,30,1.9,30Z"/></g></g></svg>