<svg xmlns="http://www.w3.org/2000/svg" viewBox="0 0 110.5 42.97"><defs><style>.cls-1{fill:#969696;}</style></defs><g id="Capa_2" data-name="Capa 2"><g id="Capa_1-2" data-name="Capa 1"><path class="cls-1" d="M5.36,0c1,0,4.69.32,5,2.63H8A2.75,2.75,0,0,0,5.42,1.47c-1.45,0-3.1.65-3.1,2.8,0,1.91,2,2.65,3.1,2.65.87,0,2.65-.79,2.84-1.68-.11-.11-.32-.09-2.56,0V4h4.6V7.93H8.79a3,3,0,0,0-.22-.87C8,7.76,5.74,8.24,5,8.24c-1.79,0-5-.85-5-4C0,.77,3.47,0,5.36,0"/><path class="cls-1" d="M16.08.6H17.4V1.89c-1,0-2.23-.25-3.35,1.44v4.6H12.28V.76H14a3.2,3.2,0,0,0,0,1.3A3,3,0,0,1,16.08.6"/><path class="cls-1" d="M18.46.76h1.79V6.09c0,1,2,1.12,2,1.12.71,0,2.78-.42,2.79-2V.76h1.64V7.92H25.18a3.66,3.66,0,0,0-.09-.86,4.84,4.84,0,0,1-3.21,1.18c-1,0-3.43-.46-3.42-2.11Z"/><path class="cls-1" d="M19.49,12.68h4c.33,0,4.19,3.37,6.22,5.13,1.89-1.61,5.63-5.15,6-5.13H40L29.75,21.93Z"/><rect class="cls-1" x="41.31" y="12.68" width="3.58" height="9.23"/><path class="cls-1" d="M68.09,12.67H80.25v2.48H68.35c-.33,0-.36.13-.6.4a1.26,1.26,0,0,0,.35.64H78c1.23,0,3.57.92,3.57,3a3.36,3.36,0,0,1-3,2.86H65.71V19.73h12a.58.58,0,0,0,.59-.6c0-.37-.24-.46-.35-.59H67.19a3.17,3.17,0,0,1-2.8-2.79c0-2.21,2.31-3.09,3.7-3.08"/><path class="cls-1" d="M33.81.44c-.56,0-2.75.48-3.16,1.33a7.29,7.29,0,0,1-.09-1H28.93V10.87h1.88c-.1-3.15-.12-3.39,0-3.51a3.46,3.46,0,0,0,2.83.88c1.72,0,4.45-.66,4.45-3.9A4,4,0,0,0,33.81.44Zm-.52,6.77c-1.45,0-2.7-.55-2.7-2.57a2.73,2.73,0,0,1,2.83-3,2.63,2.63,0,0,1,2.84,2.79A2.69,2.69,0,0,1,33.29,7.21Z"/><path class="cls-1" d="M43.75.44c-1.63,0-4.91,1.18-4.91,4.12,0,3.09,3.29,3.68,4.84,3.68,1.73,0,5-.51,5-3.9C48.65,1.45,45.73.44,43.75.44Zm.06,6.77c-1.55,0-3-.53-3-2.65a2.83,2.83,0,0,1,3-2.94c1.55,0,3,.77,3,2.72C46.85,6.9,45,7.21,43.81,7.21Z"/><path class="cls-1" d="M59.41,12.67H46.61v9.24h3.76a18.39,18.39,0,0,0,0-2.34H60.44c1.07,0,3.44-1.63,3.44-3.31C63.88,13.63,60.81,12.65,59.41,12.67Zm-.52,4.38H50.22V15.17h8.67c.37,0,1.37.26,1.37.94S59.26,17.07,58.89,17.05Z"/><path class="cls-1" d="M6,35c1.18,3.89,7.3,6.67,16.8,7.63,10,1,22.55-.06,35.34-3,2.32-.54,4.6-1.13,6.77-1.73,13-3.07,24.81-7.58,33.38-12.71s12.87-10.27,12.12-14.49a6.63,6.63,0,0,0-3.15-4.3C103.71,4,97.5,2.6,89.31,2.42A119.55,119.55,0,0,0,65.77,4.54,125.73,125.73,0,0,1,86,2.7l1.84,0c7.7.17,13.43,1.39,16.57,3.54A5.61,5.61,0,0,1,107,9.84c.36,2-.56,4.22-2.73,6.6a38.35,38.35,0,0,1-9.49,7.08c-8.73,4.94-20.93,9.33-34.34,12.34-13.18,3-25.7,4.28-35.28,3.7s-15.4-3-16.31-6.88c-.58-2.41,1-4.91,2.46-6.57a24,24,0,0,1,5.89-4.8C8.15,25,4.37,29.56,6,35Z"/></g></g></svg>