<svg xmlns="http://www.w3.org/2000/svg" viewBox="0 0 110.5 54.86"><defs><style>.cls-1,.cls-2{fill:#969696;}.cls-2{fill-rule:evenodd;}.cls-3{fill:none;stroke:#969696;stroke-miterlimit:10;stroke-width:0.72px;}</style></defs><g id="Capa_2" data-name="Capa 2"><g id="Capa_1-2" data-name="Capa 1"><path class="cls-1" d="M61.51,16.58a39.83,39.83,0,0,0-12.46,7.79M60,9.77a39.6,39.6,0,0,1-14.66-.52m15.57,4L47.43,16.06M63,15.29a40.46,40.46,0,0,0-14,4.34M63,9.32A40.6,40.6,0,0,1,49,5m13.62,7.2H48.92"/><path class="cls-2" d="M28,48.51v6.22h2.28a3,3,0,0,0,3.3-3.11c0-1.36-.77-3.11-3.43-3.11Zm.46.45h1.75A2.65,2.65,0,0,1,33,51.62a2.7,2.7,0,0,1-2.86,2.73H28.42V49Z"/><polygon class="cls-2" points="39.51 48.51 36.08 48.51 36.08 54.73 39.58 54.73 39.58 54.34 36.59 54.34 36.59 51.81 39.45 51.81 39.45 51.43 36.59 51.43 36.59 48.96 39.51 48.96 39.51 48.51 39.51 48.51"/><polygon class="cls-2" points="47.88 48.51 44.51 48.51 44.51 54.73 47.95 54.73 47.95 54.34 44.96 54.34 44.96 51.81 47.82 51.81 47.82 51.43 44.96 51.43 44.96 48.96 47.88 48.96 47.88 48.51 47.88 48.51"/><path class="cls-2" d="M53.27,48.83a3,3,0,0,0-1.43-.39A1.75,1.75,0,0,0,50,50.13c0,2,3,1.23,3,3a1.25,1.25,0,0,1-1.3,1.23,2.86,2.86,0,0,1-1.62-.65v.52a2.89,2.89,0,0,0,1.62.58,1.76,1.76,0,0,0,1.82-1.75c0-2.14-3-1.36-3-3a1.23,1.23,0,0,1,1.3-1.16,2.9,2.9,0,0,1,1.43.45v-.52Z"/><path class="cls-2" d="M56,48.51v6.22h.46V51.88h1.23c1.62,0,2.08-.91,2.08-1.69s-.59-1.68-2.08-1.68Zm.46.45h1.23c1.1,0,1.56.52,1.56,1.23s-.46,1.24-1.62,1.24H56.45V49Z"/><path class="cls-2" d="M63.65,48.51h-.26l-2.85,6.22h.52l1-2.14h3l1,2.14h.52l-2.92-6.22Zm1.23,3.69H62.22l1.3-2.92,1.36,2.92Z"/><path class="cls-2" d="M74.29,48.51h-.45V54L69.1,48.51h-.45v6.22h.52V49.28l4.73,5.45h.39V48.51ZM73,46.88h-.32c0,.33-.13.46-.39.46a3.73,3.73,0,0,1-.71-.2,2.14,2.14,0,0,0-.85-.26c-.52,0-.71.46-.71.91h.26c.06-.32.19-.45.39-.45a2.27,2.27,0,0,1,.78.19,1.85,1.85,0,0,0,.78.26.79.79,0,0,0,.51-.26.74.74,0,0,0,.26-.65Z"/><path class="cls-2" d="M79.55,48.51h-.26l-2.86,6.22h.46l1-2.14h3l1,2.14h.52l-2.92-6.22Zm1.23,3.69H78.05l1.37-2.92,1.36,2.92Z"/><path class="cls-2" d="M0,44.42H2.92V40.91h.84c.78,0,1.24.85,1.88,2.28l.52,1.23H9l-1-2.21c-.46-1-.78-1.56-1.37-1.81a2,2,0,0,0,1.37-1.95c0-1.3-1-2.4-3.25-2.4H0v8.37Zm2.92-4.8V37.41h.91c.91,0,1.43.39,1.43,1.1s-.59,1.11-1.5,1.11Z"/><polygon class="cls-2" points="11.68 44.42 18.04 44.42 18.04 42.67 14.66 42.67 14.66 41.04 17.71 41.04 17.71 39.29 14.66 39.29 14.66 37.8 17.97 37.8 17.97 36.05 11.68 36.05 11.68 44.42 11.68 44.42"/><path class="cls-2" d="M21.28,44.42H26a3.83,3.83,0,0,0,4-4.09,4.21,4.21,0,0,0-4.55-4.28H21.28v8.37Zm2.92-2V38.06H25a2,2,0,0,1,2.08,2.21c0,1.49-.65,2.2-2.08,2.2Z"/><polygon class="cls-2" points="40.23 36.05 35.49 36.05 35.49 44.42 40.36 44.42 40.36 43.38 36.72 43.38 36.72 40.72 40.1 40.72 40.1 39.68 36.72 39.68 36.72 37.15 40.23 37.15 40.23 36.05 40.23 36.05"/><polygon class="cls-2" points="44.58 36.05 43.34 36.05 43.34 44.42 48.34 44.42 48.34 43.38 44.58 43.38 44.58 36.05 44.58 36.05"/><path class="cls-2" d="M55.86,36.05H51.13v8.37H56v-1H52.3V40.72h3.43v-1H52.3V37.15h3.56v-1.1ZM53.4,33.71l-.84,1.82h.71l1.36-1.82Z"/><path class="cls-2" d="M66.12,36.63a8.07,8.07,0,0,0-2.86-.71,4.4,4.4,0,0,0-4.61,4.48,4.27,4.27,0,0,0,4.55,4.15,6.31,6.31,0,0,0,3-.72V42.47a5.08,5.08,0,0,1-2.92,1,3.11,3.11,0,0,1-3.37-3.17A3.18,3.18,0,0,1,63.2,37a5.93,5.93,0,0,1,2.92.91v-1.3Z"/><polygon class="cls-2" points="75.72 36.05 68.71 36.05 68.71 37.15 71.57 37.15 71.57 44.42 72.8 44.42 72.8 37.15 75.72 37.15 75.72 36.05 75.72 36.05"/><path class="cls-2" d="M78.57,36.05v8.37h1.24V40.78h.45c.65,0,1.17.2,2.27,1.95l1.1,1.69h1.43c-.58-.78-.78-1-1.17-1.62A7,7,0,0,0,82,40.46a2.16,2.16,0,0,0,1.43-2.08c0-1.42-1-2.33-2.73-2.33Zm1.24,1h.71c1.17,0,1.69.45,1.69,1.29,0,.65-.39,1.37-1.69,1.37h-.71V37.09Z"/><polygon class="cls-2" points="88.89 36.05 87.72 36.05 87.72 44.42 88.89 44.42 88.89 36.05 88.89 36.05"/><path class="cls-2" d="M99.66,36.63a8.35,8.35,0,0,0-2.92-.71,4.4,4.4,0,0,0-4.61,4.48,4.31,4.31,0,0,0,4.55,4.15,6.86,6.86,0,0,0,3-.72V42.47a5.42,5.42,0,0,1-2.92,1,3.16,3.16,0,0,1-3.44-3.17A3.2,3.2,0,0,1,96.74,37a5.93,5.93,0,0,1,2.92.91v-1.3Z"/><path class="cls-2" d="M106.73,36h-.84l-3.57,8.44h1.23l1-2.47h3.57l1.1,2.47h1.24L106.73,36Zm-.45,1.88,1.36,3h-2.59l1.23-3Z"/><polygon class="cls-3" points="41.33 0.36 68.91 0.36 68.91 27.94 41.33 27.94 41.33 0.36 41.33 0.36"/><path class="cls-2" d="M61.06,9.51a1.11,1.11,0,0,1-2.15.58,1.13,1.13,0,0,1,.78-1.36,1.07,1.07,0,0,1,1.37.78Z"/><path class="cls-2" d="M54.31,10a1.09,1.09,0,0,1-.78,1.36,1.13,1.13,0,0,1-1.36-.78A1.11,1.11,0,1,1,54.31,10Z"/><path class="cls-2" d="M46.39,9a1.11,1.11,0,0,1-.84,1.36,1.09,1.09,0,0,1-1.36-.77A1.13,1.13,0,0,1,45,8.21,1.15,1.15,0,0,1,46.39,9Z"/><path class="cls-2" d="M61.83,13A1.15,1.15,0,0,1,61,14.38a1.17,1.17,0,0,1-1.36-.85,1.13,1.13,0,0,1,.91-1.36,1.1,1.1,0,0,1,1.29.84Z"/><path class="cls-2" d="M55.73,14.31a1.13,1.13,0,1,1-1.29-.84,1.1,1.1,0,0,1,1.29.84Z"/><path class="cls-2" d="M48.79,15.8a1.14,1.14,0,0,1-.91,1.37,1.1,1.1,0,0,1-1.29-.85,1.13,1.13,0,1,1,2.2-.52Z"/><path class="cls-2" d="M62.29,16.45a1.17,1.17,0,0,1-.78,1.37A1.21,1.21,0,0,1,60.08,17a1.19,1.19,0,0,1,.85-1.43,1.15,1.15,0,0,1,1.36.84Z"/><path class="cls-2" d="M56.51,19.31a1.19,1.19,0,0,1-.84,1.43,1.14,1.14,0,0,1-.58-2.21,1.19,1.19,0,0,1,1.42.78Z"/><path class="cls-2" d="M50.41,23.85a1.11,1.11,0,1,1-2.14.58,1.09,1.09,0,0,1,.78-1.36,1.13,1.13,0,0,1,1.36.78Z"/><path class="cls-2" d="M61.9,9.32A1.14,1.14,0,0,1,63,8.21a1.14,1.14,0,1,1-1.1,1.11Z"/><path class="cls-2" d="M55.28,8a1.14,1.14,0,0,1,1.1-1.1A1.15,1.15,0,0,1,57.55,8a1.12,1.12,0,0,1-1.17,1.11A1.1,1.1,0,0,1,55.28,8Z"/><path class="cls-2" d="M47.88,5A1.11,1.11,0,0,1,49,3.87a1.14,1.14,0,0,1,0,2.27A1.1,1.1,0,0,1,47.88,5Z"/><path class="cls-2" d="M61.51,12.17a1.14,1.14,0,0,1,1.1-1.1,1.15,1.15,0,0,1,1.17,1.1,1.17,1.17,0,0,1-1.17,1.17,1.15,1.15,0,0,1-1.1-1.17Z"/><path class="cls-2" d="M55.28,12.17a1.14,1.14,0,0,1,1.1-1.1,1.1,1.1,0,0,1,1.11,1.1,1.12,1.12,0,0,1-1.11,1.17,1.15,1.15,0,0,1-1.1-1.17Z"/><path class="cls-2" d="M48.14,12.17a1.14,1.14,0,0,1,2.27,0,1.14,1.14,0,1,1-2.27,0Z"/><path class="cls-2" d="M61.51,15.35a1.09,1.09,0,0,1,1.1-1.1,1.11,1.11,0,0,1,1.17,1.1,1.15,1.15,0,0,1-1.17,1.1,1.14,1.14,0,0,1-1.1-1.1Z"/><path class="cls-2" d="M55.22,16.65a1.14,1.14,0,1,1,1.16,1.17,1.16,1.16,0,0,1-1.16-1.17Z"/><path class="cls-2" d="M48.14,19.5a1.14,1.14,0,0,1,2.27,0,1.14,1.14,0,0,1-2.27,0Z"/></g></g></svg>