<svg xmlns="http://www.w3.org/2000/svg" xmlns:xlink="http://www.w3.org/1999/xlink" viewBox="0 0 142.47 19.29"><defs><style>.cls-1{mask:url(#mask);filter:url(#luminosity-noclip-4);}.cls-2,.cls-4,.cls-6{mix-blend-mode:multiply;}.cls-2{fill:url(#linear-gradient);}.cls-3{mask:url(#mask-2);filter:url(#luminosity-noclip-5);}.cls-4{fill:url(#linear-gradient-2);}.cls-5{mask:url(#mask-3);filter:url(#luminosity-noclip-6);}.cls-6{fill:url(#linear-gradient-3);}.cls-7{fill:#969696;}.cls-8{fill:#fff;}.cls-9{mask:url(#mask-4);}.cls-10{mask:url(#mask-5);}.cls-11{mask:url(#mask-6);}.cls-12{filter:url(#luminosity-noclip-3);}.cls-13{filter:url(#luminosity-noclip-2);}.cls-14{filter:url(#luminosity-noclip);}</style><filter id="luminosity-noclip" x="4.49" y="-8184.34" width="17.52" height="32766" filterUnits="userSpaceOnUse" color-interpolation-filters="sRGB"><feFlood flood-color="#fff" result="bg"/><feBlend in="SourceGraphic" in2="bg"/></filter><mask id="mask" x="4.49" y="-8184.34" width="17.52" height="32766" maskUnits="userSpaceOnUse"><g class="cls-14"/></mask><linearGradient id="linear-gradient" x1="13.25" y1="19.29" x2="13.25" y2="13.5" gradientUnits="userSpaceOnUse"><stop offset="0" stop-color="#4d4d4d"/><stop offset="0.5"/><stop offset="0.54" stop-color="#080808"/><stop offset="0.61" stop-color="#1f1f1f"/><stop offset="0.69" stop-color="#444"/><stop offset="0.79" stop-color="#787878"/><stop offset="0.9" stop-color="#b8b8b8"/><stop offset="1" stop-color="#fff"/></linearGradient><filter id="luminosity-noclip-2" x="6.4" y="-8184.34" width="17.01" height="32766" filterUnits="userSpaceOnUse" color-interpolation-filters="sRGB"><feFlood flood-color="#fff" result="bg"/><feBlend in="SourceGraphic" in2="bg"/></filter><mask id="mask-2" x="6.4" y="-8184.34" width="17.01" height="32766" maskUnits="userSpaceOnUse"><g class="cls-13"/></mask><linearGradient id="linear-gradient-2" x1="7.9" y1="1.09" x2="22.84" y2="6.53" gradientUnits="userSpaceOnUse"><stop offset="0.09" stop-color="#fff"/><stop offset="0.69" stop-color="#5d5d5d"/><stop offset="1" stop-color="#0d0d0d"/></linearGradient><filter id="luminosity-noclip-3" x="5.39" y="-8184.34" width="16.62" height="32766" filterUnits="userSpaceOnUse" color-interpolation-filters="sRGB"><feFlood flood-color="#fff" result="bg"/><feBlend in="SourceGraphic" in2="bg"/></filter><mask id="mask-3" x="5.39" y="-8184.34" width="16.62" height="32766" maskUnits="userSpaceOnUse"><g class="cls-12"/></mask><linearGradient id="linear-gradient-3" x1="9.86" y1="19.87" x2="17.31" y2="9.98" gradientUnits="userSpaceOnUse"><stop offset="0.01"/><stop offset="0.05" stop-color="#141414"/><stop offset="0.16" stop-color="#444"/><stop offset="0.26" stop-color="#6c6c6c"/><stop offset="0.36" stop-color="#8b8b8b"/><stop offset="0.46" stop-color="#a1a1a1"/><stop offset="0.55" stop-color="#aeaeae"/><stop offset="0.64" stop-color="#b3b3b3"/><stop offset="1" stop-color="#fff"/></linearGradient><filter id="luminosity-noclip-4" x="4.49" y="13.5" width="17.52" height="5.79" filterUnits="userSpaceOnUse" color-interpolation-filters="sRGB"><feFlood flood-color="#fff" result="bg"/><feBlend in="SourceGraphic" in2="bg"/></filter><mask id="mask-4" x="4.49" y="13.5" width="17.52" height="5.79" maskUnits="userSpaceOnUse"><g class="cls-1"><path class="cls-2" d="M22,13.53a12.49,12.49,0,0,1-10,5.76A8.14,8.14,0,0,1,7.37,18a7.1,7.1,0,0,1-2.88-3.92h0c1.84-.18,4.11-.35,6.78-.46l1.18,0c2.48-.08,8.05,0,9.56,0Z"/></g></mask><filter id="luminosity-noclip-5" x="6.4" y="0" width="17.01" height="5.19" filterUnits="userSpaceOnUse" color-interpolation-filters="sRGB"><feFlood flood-color="#fff" result="bg"/><feBlend in="SourceGraphic" in2="bg"/></filter><mask id="mask-5" x="6.4" y="0" width="17.01" height="5.19" maskUnits="userSpaceOnUse"><g class="cls-3"><path class="cls-4" d="M22.32,4.93h1.1A7.47,7.47,0,0,0,16.05,0,12.42,12.42,0,0,0,6.4,5.19C8,5,10.16,4.91,12.24,4.88a2.08,2.08,0,0,0,1.63-.83c.82-1.21,1.62-2.44,2.77-2.84l.06,0C18.43.52,20.73,2.13,22.32,4.93Z"/></g></mask><filter id="luminosity-noclip-6" x="5.39" y="13.5" width="16.62" height="5.79" filterUnits="userSpaceOnUse" color-interpolation-filters="sRGB"><feFlood flood-color="#fff" result="bg"/><feBlend in="SourceGraphic" in2="bg"/></filter><mask id="mask-6" x="5.39" y="13.5" width="16.62" height="5.79" maskUnits="userSpaceOnUse"><g class="cls-5"><path class="cls-6" d="M22,13.53l-1.77,0c-1.77,0-4.36,0-6.21,0A4.46,4.46,0,0,0,13,14.78C11.51,17.21,11,19.59,6.58,16a5.52,5.52,0,0,0-1.19,0,7.23,7.23,0,0,0,1.84,1.9l.14.09.25.16A8.21,8.21,0,0,0,12,19.29,12.49,12.49,0,0,0,22,13.53Z"/></g></mask></defs><g id="Capa_2" data-name="Capa 2"><g id="Capa_1-2" data-name="Capa 1"><path class="cls-7" d="M107.94,12.47c-.85-4.64,3.39-9.76,8.75-11.25,6.24-1.25,11.48,1.14,12.43,5.93.67,4.67-2.94,9.57-9,11-5.72,1.07-11.22-1-12.21-5.65Zm8-5.63c-2.09,2.38-2.63,5.49-1.2,6.93s4.27.69,6.36-1.69,2.62-5.48,1.2-6.93-4.28-.69-6.36,1.69Zm-29-.9a1.61,1.61,0,0,0-.91-1.4,5.31,5.31,0,0,0-2.45-.46H82.52l-1,4.84h.88a6.54,6.54,0,0,0,3.47-.77A2.3,2.3,0,0,0,87,5.94ZM75.09,17.72s-1.63.07-1.41-1.48L76.52,3a1.8,1.8,0,0,1,1.67-1.38H85a22.42,22.42,0,0,1,3.29.22,8.15,8.15,0,0,1,2.47.73,4.19,4.19,0,0,1,1.63,1.34,4.6,4.6,0,0,1,.66,2.19,4.75,4.75,0,0,1-2.56,4.51c-1.81,1.14-4.43,1.58-7.83,1.58H80.82l-1.2,5.57ZM48.61,5.87a1.54,1.54,0,0,0-.84-1.37,4.71,4.71,0,0,0-2.22-.42H44l-.93,4.35h1.53a5.63,5.63,0,0,0,3-.67,2,2,0,0,0,1-1.89ZM41.1,17.72H36.49a1.24,1.24,0,0,1-1.33-1.48L38,3a1.8,1.8,0,0,1,1.68-1.38h7.8a19.7,19.7,0,0,1,3,.19,7.31,7.31,0,0,1,2.23.67,3.47,3.47,0,0,1,1.47,1.25,3.34,3.34,0,0,1,.59,1.9,4.24,4.24,0,0,1-2.31,4.16,10.59,10.59,0,0,1-4.12.94s-.52.12.07.27a3.72,3.72,0,0,1,1.34.72c1.29,1,2.23,2.09,5.16,6H48a52.88,52.88,0,0,0-3.67-5.95,2,2,0,0,0-1.77-.7L41.1,17.72Zm95.78-3.12h5.59l-.39,1.8a1.78,1.78,0,0,1-1.66,1.32h-8.79a1.24,1.24,0,0,1-1.33-1.48L133.13,3a1.82,1.82,0,0,1,1.68-1.38h4.86l-2.79,13ZM64.46,8.18H71.8l-.37,1.7a1.79,1.79,0,0,1-1.68,1.38H63.81l-.72,3.34h7.34l-.38,1.8a1.79,1.79,0,0,1-1.66,1.32H57.83a1.23,1.23,0,0,1-1.32-1.48L59.34,3A1.8,1.8,0,0,1,61,1.58H73.21l-.37,1.73a1.81,1.81,0,0,1-1.68,1.38h-6l-.74,3.49Zm45-6.6-.37,1.73a1.74,1.74,0,0,1-1.68,1.38H107c-3.49,0-3.71,1-4.38,4.2l-.83,3.84a5.94,5.94,0,0,1-5.81,5H87.15L87.52,16A1.78,1.78,0,0,1,89.2,14.6h2.12c3.49,0,3.71-1,4.38-4.19l.83-3.85c1-4.87,6.37-5,7.19-5Z"/><path class="cls-7" d="M4.19,10.76a10.87,10.87,0,0,1,.17-1.1v0h0c-.55,0-1.42.12-2.07.2a11.63,11.63,0,0,0-2.24.4c-.23.28,1.32.48,3.67.51Z"/><path class="cls-7" d="M16.05,0A12.42,12.42,0,0,0,6.4,5.19S1.13,5.56.85,6A11.55,11.55,0,0,0,0,10.29H0l0,0a11.63,11.63,0,0,1,2.25-.4c.64-.08,1.51-.15,2.07-.2h0c1.83-.18,5.32-.43,7.32-.48,4.89-.14,9.12-.1,12,0C24.58,4.07,21.23,0,16.05,0Z"/><path class="cls-7" d="M22,13.53c-1.51,0-7.08-.06-9.56,0l-1.18,0c-2.67.11-4.94.28-6.78.46h0A7.45,7.45,0,0,0,12,19.29,12.49,12.49,0,0,0,22,13.53Z"/><path class="cls-8" d="M23.74,9.19c-2.93-.13-7.15-.17-12,0-2,.05-5.49.3-7.32.48h0a8.62,8.62,0,0,0-.16,1v0c0,.15,0,.3,0,.45v0c0,.14,0,.29,0,.43v.27a1.77,1.77,0,0,0,0,.23,3.71,3.71,0,0,0,0,.47s0,.09,0,.13,0,.24,0,.36l0,.15c0,.11,0,.23.07.34l0,.13.09.35s0,0,0,.06c1.84-.18,4.11-.35,6.78-.46,0,0,1.18,0,1.18-.05,2.48-.07,8.05,0,9.56,0h.39c1.26,0,1.78,0,3.1.1a5.44,5.44,0,0,1,1.67.2h0A10.54,10.54,0,0,0,28,9.75c0-.22-1.55-.43-4.27-.56"/><g class="cls-9"><path class="cls-7" d="M22,13.53a12.49,12.49,0,0,1-10,5.76A8.14,8.14,0,0,1,7.37,18a7.1,7.1,0,0,1-2.88-3.92h0c1.84-.18,4.11-.35,6.78-.46l1.18,0c2.48-.08,8.05,0,9.56,0Z"/></g><g class="cls-10"><path class="cls-7" d="M22.32,4.93h1.1A7.47,7.47,0,0,0,16.05,0,12.42,12.42,0,0,0,6.4,5.19C8,5,10.16,4.91,12.24,4.88a2.08,2.08,0,0,0,1.63-.83c.82-1.21,1.62-2.44,2.77-2.84l.06,0C18.43.52,20.73,2.13,22.32,4.93Z"/></g><g class="cls-11"><path class="cls-7" d="M22,13.53l-1.77,0c-1.77,0-4.36,0-6.21,0A4.46,4.46,0,0,0,13,14.78C11.51,17.21,11,19.59,6.58,16a5.52,5.52,0,0,0-1.19,0,7.23,7.23,0,0,0,1.84,1.9l.14.09.25.16A8.21,8.21,0,0,0,12,19.29,12.49,12.49,0,0,0,22,13.53Z"/></g><path class="cls-7" d="M27.17,13.83a5.38,5.38,0,0,0-1.67-.2c-1.32-.07-1.84-.08-3.1-.1H22c-.22.33-.46.66-.71,1h0c3.48-.1,5.77-.35,5.87-.66Z"/></g></g></svg>