<svg xmlns="http://www.w3.org/2000/svg" viewBox="0 0 59.7 66.04"><defs><style>.cls-1{fill:#969696;}</style></defs><g id="Capa_2" data-name="Capa 2"><g id="Capa_1-2" data-name="Capa 1"><path class="cls-1" d="M7.69,58.07a11.46,11.46,0,0,1-.46-1.53,1.79,1.79,0,0,1,1-2.07c.62-.18.86.13,1.1.85a15.08,15.08,0,0,1,.24,4.59C9.4,62.72,8,66.11,4.51,66,1.49,66,.16,64,0,61a13.59,13.59,0,0,1,.61-4.79c.31-1.06.59-1.44,1.55-1.65.75-.13.68.65.51,1.58a18.09,18.09,0,0,0-.41,5.38C2.41,64,3.55,65,4.78,65c1.85,0,2.67-1.5,3-3.73A6.44,6.44,0,0,0,7.69,58.07ZM47.13,60.5c.72,0,.93.85.75,1.37a2.18,2.18,0,0,1-1.74,1.26C45.93,62.62,45.83,60.5,47.13,60.5ZM33.74,61.66c0-.58-.31-1.06-.69-1.06s-1,.34-1,1.44a2.14,2.14,0,0,0,.44,1.44A1.79,1.79,0,0,0,33.74,61.66Zm-10.66-7A1,1,0,0,0,22,53.75a1.35,1.35,0,0,0-1.19,1.54,1,1,0,0,0,1,1A1.45,1.45,0,0,0,23.08,54.67Zm5.57,2c0-1-.29-1.39-.8-1.35-.68,0-1,2.19-.86,4.44.09,1.47.31,1.7.51,1.69C27.88,61.43,28.79,58.81,28.65,56.68Zm22.73,3.61c-.43,1.76-1.72,4.35-3.64,4.35-.44,0-1.23-.17-1.23-.62s3-.54,3-2.84a2.13,2.13,0,0,0-2-2c-1.55,0-3,1.68-3,4a2.46,2.46,0,0,0,2.6,2.78c2.26,0,3.63-1.85,4.35-3.39.34,1,.55,3.39,1.41,3.39.34,0,.58-.17,1-1.1,1-2.29,2-4.93,3.39-4.93.51,0,.21.93,1.44.93a1,1,0,0,0,1-1c0-.79-.72-1.41-1.81-1.41-3.22,0-3.91,4.83-4.42,4.83-.86,0-.58-3.87-1.2-3.87S51.45,60,51.38,60.29ZM24,64.4a2.42,2.42,0,0,0,2.09-1.28,12.63,12.63,0,0,1-.72-3.31c-.21-3.32,1.07-6.45,2.47-6.53,1-.07,1.85.91,1.94,2.48C30,59.9,28.64,61.62,28,63.11a2.44,2.44,0,0,0,2,1.57,1.4,1.4,0,0,0,.86-.31,3.4,3.4,0,0,1-.14-1c0-2.4,1.54-4.42,2.88-4.42,1.06,0,1.67,1.41,1.67,2.33,0,1.1-.92,2-2.29,2.85a1.62,1.62,0,0,0,1.06.41c2,0,3-2.37,3.74-4.52.13-.42.37-1,.85-1,.82,0,1.17,5.41,2.53,5.41.59,0,1.07-1.2,1.07-2.12,0-.68-.24-.75-.24-1.75s.58-2,1.37-2c.48,0,.65.48.65,1.06,0,2.2-1.58,6.27-3.9,6.27-1.75,0-1.62-3-2.23-3s-1.65,3-5,3a2.19,2.19,0,0,1-1.61-.83,3.91,3.91,0,0,1-2.29.79c-1.27,0-1.82-1.3-2.33-1.3s-1.3,1.34-3.36,1.34c-1.64,0-1.92-2.19-2.5-2.19s-1.3,2.19-2.16,2.19c-1.44,0-1.74-3.8-3-3.8-1,0-4.13,3.86-5,3.77-.35,0-.49-.29-.46-.64a23.81,23.81,0,0,1,.63-2.34c.27-1,.53-2.18.67-2.55a.93.93,0,0,1,.83-.6c.15,0,.2.3.24.54.18.85.42,1.71.69,1.71.48,0,2.07-3,3-3,1.13,0,1.26,4.8,2.8,4.8.52,0,.9-.62,1.24-1.37,0-1.27.37-3.08,1.4-3.08.72,0,1.07,1.61.55,3,0,1.68,1.09,2.09,1.82,2.09"/><path class="cls-1" d="M47.83,10.69a.79.79,0,0,1-.82-.4c-.16-.33-.1-.86-.41-1.09a3.16,3.16,0,0,0,.89.09c.82,0,1.6-.57,2.2-.57a.47.47,0,0,1,.52.51C50.21,10,48.6,10.69,47.83,10.69Zm.4,2.05c1.89,0,3.62-1.51,3.62-2.83a1.11,1.11,0,0,0-1-1.22.78.78,0,0,1,.18.58c0,1-1.52,2.11-3.17,2.11-.61,0-.79.41-.79.63C47,12.52,47.52,12.74,48.23,12.74Zm-.14.76c.23,1.73,2.85,4.06,3.56,4,.47,0,.65-2.25.65-4,0-1,.06-1.78-.47-2a4.13,4.13,0,0,1-3.74,2"/><path class="cls-1" d="M7.18,24.94c.61,0,.49-3.79,1.49-3.79.23,0,.31.24.31.53,0,.86-.42,2.11-.42,2.8,0,.35.09.46.25.46.44,0,1.2-4.17,1.95-4.17.23,0,.34.24.34.48,0,.87-1.11,3.38-1.11,4.08,0,.11,0,.2.13.2.46,0,1.36-2,1.66-2.94.16-.51.38-.78.58-.78s.34.2.34.62A15.33,15.33,0,0,1,11,27.26c-.61,1.2-1.58,2.93-1.58,3.89a1.93,1.93,0,0,0,.8,1.62c-1.16-.07-1.63-.18-2.07-1.09-1.94,3.87,3.58,3.49,1.69,6.92-.35-.62-3.07-1.25-3.07-4.85,0-3.11,2.72-4.93,2.72-6.22a.84.84,0,0,0-.32-.67c-.6-.51-.62-.92-1.09-.92s-.77.79-.33,1.5A1.17,1.17,0,0,1,8,28c0,.51-.8,1.87-1.36,1.87s-1-1.39-1-3.65c0-2,.46-4,1-4,.16,0,.22.1.22.25s-.08.71-.08,1.51.2.93.37.93"/><path class="cls-1" d="M11.81,30.26c.77,0,1.4-.56,1.4-1.82V26.59a3.18,3.18,0,0,1,.53-2.07,2.92,2.92,0,0,0-.06.72c0,1.57.88,2.64.88,4.15,0,.56-.17.87-.6.87s-.38-.38-.48-.38-.18.23-.18.49a1,1,0,0,0,1,1,1.25,1.25,0,0,0,1.18-1.27c0-1.64-1.27-3.45-1.27-5.2a4.15,4.15,0,0,1,.36-1.67c0,3.62,3.07,6.25,3.07,7.76a.61.61,0,0,1-.63.62.6.6,0,0,1-.62-.59c0-.12,0-.16-.07-.16a.92.92,0,0,0-.44.84A1.36,1.36,0,0,0,17.32,33a1.62,1.62,0,0,0,1.6-1.66c0-1.91-3.73-4.8-3.73-7.89a4.19,4.19,0,0,1,.48-2,6.25,6.25,0,0,0-3.15,5.4c0,1.56,0,2.34-.85,2.34-.42,0-.53-.38-.68-.38s-.16.33-.16.42a1,1,0,0,0,1,1.05"/><path class="cls-1" d="M39.35,9.8a8.29,8.29,0,0,0,2.58-.57.94.94,0,0,1,.47-.12c.64,0,.47.72,1.06.72s1-.38,1.38-.38c.54,0,1.32,1.71,1.32,2.51s-1.4,1.49-3,1.49A3.88,3.88,0,0,1,39.24,10,.17.17,0,0,1,39.35,9.8Zm4,2.3c.8,0,1.4-.36,1.4-.58,0-.07-.11-.12-.35-.12a9.82,9.82,0,0,1-1.6-.17c-.76-.13-1.34-.42-1.56-.42s-.11,0-.11.09c0,.48.87,1.2,2.22,1.2"/><path class="cls-1" d="M12.19,37.11a2.65,2.65,0,0,0-1.56,2.58,5.07,5.07,0,0,0,5,4.53A3,3,0,0,0,19,41.15c0-2.75-1.69-4.67-3.89-4.67a2.19,2.19,0,0,0-2.27,2.16,3,3,0,0,0,3.07,3,1.53,1.53,0,0,0,1.62-1.56,2,2,0,0,0-1.84-1.95.54.54,0,0,0-.56.56c0,.44.6.88,1.35.88a.93.93,0,0,0,.4-.08.54.54,0,0,1,.05.22c0,.42-.4.67-1,.67a1.78,1.78,0,0,1-1.82-1.78c0-.65.57-1.12,1.39-1.12a2.7,2.7,0,0,1,2.58,2.87c0,1.29-.71,2-2.17,2-2.91,0-4.32-2.61-3.69-5.27"/><path class="cls-1" d="M32.94,47.76a8.87,8.87,0,0,0,1.1-.07c.27,0,.29.16.29.27,0,.4-.89.89-2.47.89a1.62,1.62,0,0,1-1.66-1,7.15,7.15,0,0,1-3.65,1.11c-3.72,0-4.67-1.62-5.83-2.15-.89-.4-2.26.38-4.17-1.74a5.14,5.14,0,0,0,.88.07C19.1,45.11,20,44.29,20,43a4.21,4.21,0,0,0,0-.5,3.6,3.6,0,0,1,1.95,2.61c0,.18.78.35,1.25.35a1.49,1.49,0,0,0,1.62-1.35,4.08,4.08,0,0,0,4-3.11,4.41,4.41,0,0,1,1.89,1.33,3.25,3.25,0,0,1,1.09-.16,7.21,7.21,0,0,1,2,.34c0-.23.07-.52.44-.52.54,0,.4.6.58.94.09.18.54.29.54.65a.47.47,0,0,1-.47.48.78.78,0,0,1-.22,0c-.36.13-.38,2.74-1.91,2.74a3,3,0,0,1-2.61-2.08.78.78,0,0,0-.66-.57c-.29,0-.45.06-.8.44a6.31,6.31,0,0,1-4.63,2c-.62,0-1.11-.06-1.24-.06s-.07,0-.07,0,.62.62,2,.62c3.2,0,4-1.8,4.49-1.8a.42.42,0,0,1,.42.29A3.57,3.57,0,0,0,32.94,47.76Zm-1.41-3.63a.73.73,0,1,0,.73-.73.73.73,0,0,0-.73.73"/><path class="cls-1" d="M45.93,35.06c-.26,0-.53.2-.53.69a1.17,1.17,0,0,0,.65,1,1.18,1.18,0,0,0,.53.14c.53,0,.94-.14.94-.58S46.71,35.06,45.93,35.06Zm-2,1.12c-.38,0-2.49,2.82-3.85,2.82-.33,0-.6-.62-.6-1.09,0-.25.16-.43.75-.56,3.12-.71,2.43-3.06,5.1-3.06a3.06,3.06,0,0,1,3.11,3.26c0,2.4-3.41,5.38-3.92,5.38s-.88-.6-.88-1c0-.13.06-.29.42-.44a4.25,4.25,0,0,0,2.74-3.11.32.32,0,0,0-.32-.36c-.31,0-1.64,3-3.11,3-1,0-2.06-.93-2.06-1.36,0-.73,2.95-2.08,2.95-3.1,0-.38-.18-.4-.33-.4"/><path class="cls-1" d="M8,12.36a2.15,2.15,0,0,1-1.18.4,1.37,1.37,0,0,1-1.4-1.4,1.55,1.55,0,0,1,1-1.44,1.62,1.62,0,0,0,0,.31A2.12,2.12,0,0,0,8,12.36Zm3.89,3.49a3.44,3.44,0,0,0-.81,2.09,1.63,1.63,0,0,0,1.52,1.8,1.38,1.38,0,0,0,1.31-1.55A2.68,2.68,0,0,0,11.88,15.85Zm-6,.72a.46.46,0,0,0,0,.21.38.38,0,0,0,.34.34,3.07,3.07,0,0,0,.31,0c.44,0,.93.31,1.64.31A3.43,3.43,0,0,0,9.61,17a3.8,3.8,0,0,0,1.82-2.55c0-.34-.28-.3-.51-.62s-.14-.59-.29-.74-.34-.09-.67-.13l-.4,0a3.7,3.7,0,0,0-2.11.59C5.87,14.49,6.11,16.16,5.85,16.57Zm4.27-2.25c.13.17.47.38.47.51s-.14.58-.43.58c-.64,0-1.15-1-1.15-1.51,0-.34.2-.38.47-.38a.49.49,0,0,1,.28.07C9.92,13.69,9.92,14.05,10.12,14.32ZM8.45,16.54A1.5,1.5,0,0,1,7.2,15.12c0-.36.27-.82.47-.82s.11.06.12.19A2.09,2.09,0,0,0,9,16.14c.06,0,.09.05.09.09S8.78,16.54,8.45,16.54ZM10,12a3.32,3.32,0,0,0,.17-1.06c0-.87-.4-2.19-1.64-2.19A1.21,1.21,0,0,0,7.3,9.94C7.3,11.38,8.74,12,10,12Zm-4.7,7.27c0,1.38.42,2,1.16,2a4.06,4.06,0,0,0,2.29-1.21A8.25,8.25,0,0,1,7,20.32,1.91,1.91,0,0,1,5.29,19.23Zm.63-1.62a2.44,2.44,0,0,0,0,.27c0,.86.45,1.33,1,1.33a2,2,0,0,0,1.45-.87,4.51,4.51,0,0,1-.65.05A2.19,2.19,0,0,1,5.92,17.61Zm4.46-.25a1.72,1.72,0,0,0-1.29,1.52A1.07,1.07,0,0,0,10.23,20a1.18,1.18,0,0,0,.71-.19,2.1,2.1,0,0,1-.69-1.58A2.21,2.21,0,0,1,10.38,17.36Zm.65-5a.73.73,0,0,0,.73.72.72.72,0,0,0,.72-.72.73.73,0,0,0-.72-.73A.73.73,0,0,0,11,12.38ZM12,14a.73.73,0,1,0,1.46,0A.73.73,0,0,0,12,14"/><path class="cls-1" d="M40.33,22.94a.7.7,0,0,1,.69-.68.69.69,0,0,1,.71.68.69.69,0,0,1-.71.7A.69.69,0,0,1,40.33,22.94ZM34,17.34a.73.73,0,0,0,.73.72.72.72,0,0,0,.72-.72.73.73,0,0,0-.72-.73A.73.73,0,0,0,34,17.34Zm-.62,2.56a1,1,0,1,0,1-1A1.05,1.05,0,0,0,33.33,19.9Zm2.29-1.16a1.11,1.11,0,1,0,1.11-1.11A1.1,1.1,0,0,0,35.62,18.74Zm.09-2.37a.69.69,0,1,0,.69-.69A.69.69,0,0,0,35.71,16.37ZM39,14.63a.69.69,0,1,0,.69-.69A.69.69,0,0,0,39,14.63Zm-1.36,2.24A1.17,1.17,0,1,0,38.8,15.7,1.17,1.17,0,0,0,37.64,16.87Zm-1.87,4.25a.73.73,0,0,0,.72.73.73.73,0,1,0,0-1.46A.73.73,0,0,0,35.77,21.12Zm2.38-1.46a.73.73,0,0,0,.72.73.73.73,0,0,0,.73-.73.73.73,0,0,0-.73-.72A.72.72,0,0,0,38.15,19.66Zm-.68,2.57A1.26,1.26,0,1,0,38.73,21,1.26,1.26,0,0,0,37.47,22.23Zm2.62-1.55a.86.86,0,1,0,1.71,0,.86.86,0,0,0-1.71,0ZM40,18.39a.76.76,0,1,0,1.52,0,.76.76,0,1,0-1.52,0"/><path class="cls-1" d="M41.89,42.24a5.38,5.38,0,0,1-3.42,1.18,4.49,4.49,0,0,1-1.56-.31c-.18,0-.38.18-.58.42a4.1,4.1,0,0,0-1,2.49A1.5,1.5,0,0,0,37,47.47c3.4,0,5.94-2.13,5.94-3.85C42.89,42.64,42.31,42.24,41.89,42.24Zm-1-.2a.67.67,0,0,0,.19-.53v-.42c0-.53-.8-.83-1.89-.83-1.33,0-2,.6-2,.85V42c0,.34.8.69,1.78.69A3,3,0,0,0,40.94,42Zm-.14,1.8c.09,0,.2,0,.2.38a1.58,1.58,0,0,1-.83,1.34,3.49,3.49,0,0,1-2,.58,4.13,4.13,0,0,0,.26-1.32,3.13,3.13,0,0,0,0-.42h.24a4.13,4.13,0,0,0,2.16-.56"/><path class="cls-1" d="M33.86,21.63c.2,1.54,2.27.76,2.27,2.63,0,.27-.07.68-.07,1s0,.75.34.75.38-.22.38-.51-.07-.66-.07-.86a.7.7,0,0,1,.73-.78c.69,0,1.22.71,2.25.71-.23,1.16-2.63.85-2.63,2.13,0,.63.63.78,1,.78s.51-.06.51-.38,0-.39,0-.51a.15.15,0,0,1,.15-.15c.4,0,2.36,1.49,2.36,1.95s-2.07.83-2.67.83a.19.19,0,0,1-.22-.2c0-.12.31-.51.31-.72s-.27-.28-1-.28c-.35,0-.6,0-.6.31,0,.49.8,1.09.8,1.55s-.22.58-.8.58-1.23-.38-1.23-1,.52-1,.52-1.33c0-.09-.07-.23-.29-.23-.67,0-.85,1.78-3.23,2a1.84,1.84,0,0,0,.7-1.51c0-.38-.09-.69-.09-1.11s.26-.82.62-.82c.67,0,1,.95,1.44.95a.53.53,0,0,0,.49-.55c0-1.38-2.65-1.18-2.65-3.12A4.51,4.51,0,0,1,33.86,21.63ZM42.53,27c0,.46.14,1,.6,1s.71-.58.71-1.21-.13-1.29-.13-1.59c0-.12,0-.18.13-.18.27,0,.52.77.82.77s.81-.6,1-.6.07.07.07.09c0,.27-.42.87-.42,1.11s1.06.23,1.06.41-1.11.28-1.63.51-.82.49-.82.86.36.43.87.43a7.17,7.17,0,0,0,2.34-.65.08.08,0,0,1,.09.09c0,.18-.62.78-.62,1.05s1.13.68,1.11.86-.09.07-.21.07-.51-.05-.75-.05-.27,0-.33.09,0,1.11-.21,1.11S45.36,29,44,29c-.2,0-.34.17-.34.44a2.75,2.75,0,0,0,1.38,2c.31.2.82.4.82.51s-1.16,0-1.16.38.14.82.14,1.11c0,.09,0,.2-.13.2s-.74-1-1-1-.69.6-.89.6a.1.1,0,0,1-.09-.11c0-.42.67-1.36.67-2.29,0-.44,0-1.38-.58-1.38s-.93.69-1.14,1.38c-.13.4,0,2-.33,2s-.2-1-.57-1-.85.49-1.05.49c0,0-.07,0-.07,0,0-.22.53-.93.53-1.08S39,30.71,39,30.5s.47-.22.91-.29c.92-.17,2.28-.84,2.28-1.79s-1-1.5-1.68-1.94c-.35-.22-.73-.4-.73-.54s.44-.15.62-.15.54,0,.54-.24,0-.49,0-.74,0-.33.09-.33c.28,0,.66.89.84.89s.69-.73,1-.73c.09,0,.12.06.12.22,0,.67-.34,1.44-.34,2.09"/><path class="cls-1" d="M34.39,32c.83.11,1,.4,1,.63,0,.4-.36.53-.71.53s-.54,0-.85,0a1.39,1.39,0,0,0-1.13.47.61.61,0,0,1,.58.56c0,1.06-2.92.18-2.92,2.89,0,1.44,1.49,3,3.74,3,1.16,0,1.91-.38,1.91-.82s-.62-.11-.62-.4c0-.12.22-.36.22-.56s-.07-.26-.22-.26a7.18,7.18,0,0,1-2.2.53c-1,0-1.94-.56-1.94-1.33,0-.16.07-.25.18-.25s.25.07.38.07.13-.07.13-.27,0-.76.34-.76,1,1.27,3.51,1.27a5.65,5.65,0,0,0,3-.71A4.71,4.71,0,0,1,34,41.16a5.13,5.13,0,0,1-5.22-5.23,5.36,5.36,0,0,1,5.39-5.31c.79,0,1.47.28,1.47.62S34.48,31.42,34.39,32ZM40,33a1.15,1.15,0,0,1,.18.58c0,.51-.35,1-.35,1.51a1.09,1.09,0,0,0,1.14,1.09,1.26,1.26,0,0,0,1.26-1.31C42.2,33.86,41.33,33,40,33Zm-6,1.16a.75.75,0,0,1,.24.55c0,.27-.13.56-.13.87a.8.8,0,0,0,.8.82.84.84,0,0,0,.85-.87A1.6,1.6,0,0,0,34,34.11ZM36.36,31a3.37,3.37,0,0,1,3,3.15A1.64,1.64,0,0,1,37.71,36a1.54,1.54,0,0,1-1.6-1.66c0-.76.6-1.56.6-2.34A1.39,1.39,0,0,0,36.36,31Zm1,2.42a.44.44,0,0,0,.44.46.5.5,0,0,0,.47-.55c0-.38-.35-.91-.67-.91-.15,0-.09.22-.13.46s-.11.4-.11.54"/><path class="cls-1" d="M17.25,14.74c.61,0,1.32-3.34,1.32-3.91,0-.14-.05-.25-.18-.25-.56,0-1.34,3.18-1.34,3.89C17.05,14.59,17.08,14.74,17.25,14.74Zm4.45,1c.45,0,1-1.75,1-2.84,0-.23,0-.49-.14-.49-.39,0-1,1.8-1,2.78C21.5,15.58,21.59,15.74,21.7,15.74Zm-3-1.62c.2,0,.45-.22.92-.74a4.29,4.29,0,0,0,0-.73c0-.36-.15-.76-.36-.76-.55,0-.82,1.45-.82,1.83C18.52,13.94,18.63,14.12,18.74,14.12Zm2.49-.74c0-.31-.08-.39-.15-.39s-.38.22-.67.71c0,.66.14,1,.33,1S21.23,14,21.23,13.38Zm1.4-2.15c1.2,0,1.74,1,1.74,2.2,0,.51-.14,1.26-.38,1.26s-.2-.42-.24-.81-.12-.59-.29-.59S23,14,23,14.69c0,.41.08.89.4.89a.72.72,0,0,0,.46-.2,1.63,1.63,0,0,1-1.57,1.56c-1.6,0-2.2-1.87-2.38-3a4.42,4.42,0,0,1-3.45,1.76,2,2,0,0,1-2.16-2.13c0-.31.11-1.11.49-1.11s0,1.49.94,1.49c.22,0,.62-.18.84-.78a3.25,3.25,0,0,0,.2-1.07c0-.49-.11-.8-.47-.8a1.49,1.49,0,0,0-.82.36,2.74,2.74,0,0,1,2.65-2c1.44,0,2.2,1.27,2.2,2.69a4.32,4.32,0,0,1-.05.62,3.14,3.14,0,0,1,2.4-1.8"/><path class="cls-1" d="M19.23,16.12c-.78,0-.82.95-.82,2.85-.58-1.25-1.54-2.6-2.67-2.6-.77,0-1.06.51-1.06,1.4a3,3,0,0,0,.06.62c.09-.31.38-.43.74-.43a3.33,3.33,0,0,1,2.35,1.41,12.9,12.9,0,0,0-2-.25,2.44,2.44,0,0,0-1,.16,2.43,2.43,0,0,0-1.23,2.2,4.54,4.54,0,0,0,0,.6,3.92,3.92,0,0,1,3.42-2c.22,0,.38,0,.51,0a3,3,0,0,0-.73,2c0,.29-.13.31-.33.31,0,.6.48,1.49.48,1.95a.37.37,0,0,1-.18.34c0,.8.79,1.38.79,1.89a.39.39,0,0,1-.09.29c.06.33.94.88,1.05,1.16s.3.39.39.39c.31,0,.8-.37.8-.69a.42.42,0,0,0-.16-.29A2.72,2.72,0,0,1,19,26.24a.34.34,0,0,1-.35-.26c-.1-.38-.1-1.08-.25-1.5-.23-.05-.34-.14-.34-.63,0-.24.14-1.17.14-1.5a.25.25,0,0,1-.25-.29c0-.58.58-1,.74-1.78A2.68,2.68,0,0,1,20,22.52a4.84,4.84,0,0,1-.12,1c.76-.38,1.91-.94,1.91-2.09,0-.67-.31-1.41-2.37-1.71a6.63,6.63,0,0,1,2.11-.36c1.16,0,1.84.36,2,1.18a2.22,2.22,0,0,0,.42-1.16,1.54,1.54,0,0,0-1.69-1.47A5.83,5.83,0,0,0,19,19.23c.48-1,.8-1.56,1.39-1.56a1.24,1.24,0,0,1,.27,0c-.22-.8-1-1.58-1.47-1.58"/><path class="cls-1" d="M49.85,29.22c.91,0,1.64,1.19,1.64,2.57A5.73,5.73,0,0,1,49.56,36c0-2.45-3-1.67-3-3.45a1.21,1.21,0,0,1,1.2-1.28,1.9,1.9,0,0,1,1.37.49,1.57,1.57,0,0,1-.49-1.16,1.23,1.23,0,0,1,1.23-1.33"/><path class="cls-1" d="M33.62,12a1.94,1.94,0,0,0,1.4.65c.2,0,.44,0,.57,0s.27.07.27.2a1.13,1.13,0,0,1-.4.71,1.83,1.83,0,0,0,.71.12,2.13,2.13,0,0,0,2.21-2.29,2.43,2.43,0,0,1,.35,1.17,2.61,2.61,0,0,1-2.8,2.74,4,4,0,0,1-1.42-.29c-.34,0-.32.69-.56.67-.42-.07-.8-1-.8-2A2.85,2.85,0,0,1,33.62,12Zm2.74-1.33c-.14-.24-.68-.36-.94-.36A1.46,1.46,0,0,0,34,11.34a1.56,1.56,0,0,1-.13-.62,1.76,1.76,0,0,1,1.87-1.78,3.17,3.17,0,0,1,1.78.62c.18,0,.37-.18.51-.18s.2.31.2.53a3,3,0,0,1-1.14,2.43,1.88,1.88,0,0,0-.91-.87A.29.29,0,0,1,36,11.2a.73.73,0,0,1,.39-.57"/><path class="cls-1" d="M21,6.67c0,.64,2.27,3.74,2.71,3.74s.63-.63.63-1.18a.77.77,0,0,0-.1-.4,10.77,10.77,0,0,0-3.15-2.27A.1.1,0,0,0,21,6.67ZM7.63,4.8A3.48,3.48,0,0,1,5.76,6.38c-.18,0-.24-.22-.24-.42a1.65,1.65,0,0,1,.37-1,2.08,2.08,0,0,1,1.2-.32C7.34,4.6,7.63,4.65,7.63,4.8Zm16.6,1c0-1.09-2.95-3.07-3-3.92a.33.33,0,0,1,.11-.23C21.86,1.17,24,.78,24,.33c0-.24-.43-.24-.65-.24-1.69,0-4.16.62-4.16,1.22s2.21,2.12,2.21,2.87c0,.2-.12.27-.32.27-.62,0-2-.74-2.6-.74-.29,0-.4.2-.4.49,0,.87,1,2.52,1,3,0,.06,0,.13-.09.13-.33,0-1.87-1.82-2.42-1.82-.19,0-.21.28-.21.68v.61c0,.42,0,.68-.22.68-.47,0-.69-1.33-1.15-1.33s-.56,2.36-1,2.36-.08-2.6-.58-2.6-1.2,1.73-1.6,1.73c-.15,0-.19-.14-.19-.27,0-.53.31-1.38.31-1.89,0-.26-.07-.4-.29-.4-.56,0-1.8.91-2.27.91-.07,0-.16,0-.16-.11,0-.44,2-1.82,2-2.44s-2.73-.2-2.73-.89,2-1.18,2-1.78S8.07,0,7.18,0C6.11,0,5.52.14,5.52.45c0,.48,2.44.62,2.44,1S5.43,3,5.43,3.58,9,3.62,9,4.18s-3.1,3.29-3.1,4.18c0,.2.14.29.34.29.95,0,3.4-1.8,4.07-1.8.24,0,.26.29.26.55,0,.47-.17,1.2-.17,1.72s.11.71.48.71c.67,0,1.29-1.14,1.74-1.14s.24,3.36,1.11,3.36,1-3.64,1.53-3.64.85,1.06,1.29,1.06.29-1.84.87-1.84,2.45,2.18,3.27,2.18c.26,0,.35-.2.35-.45,0-1-1.35-3.14-1.35-3.84,0-.18.06-.23.26-.23.7,0,2.78,1,3.76,1C24,6.27,24.23,6.09,24.23,5.85Zm-1.9-3.6c0,.33,1.15,1,1.68,1,.31,0,.4-.42.4-.86s-.24-.56-.71-.56S22.33,2,22.33,2.25ZM18.06.4c0-.11-.54-.22-1.29-.22-1.18,0-1,1-1.92,1s-.71-1-1.91-1c-.73,0-1.4.13-1.4.3s.85.12.85.72-1.83.82-1.83,1.2c0,.13.14.18.32.18.41,0,1-.18,1.5-.18.25,0,.49.06.49.29,0,.46-1,1.28-1,1.64,0,.11.09.15.19.15.36,0,1-.93,1.56-.93,1,0,.33,2.05.85,2.05s.31-2,1.09-2,1.11,1.4,1.55,1.4a.21.21,0,0,0,.2-.22c0-.38-.55-1.16-.55-1.67,0-.31.22-.45.51-.45s1,.25,1.29.25c.11,0,.22,0,.22-.16,0-.44-1.62-.91-1.62-1.47s.89-.57.89-.82"/><path class="cls-1" d="M50.29,3.34C50.29,5,49.11,6.2,47,6.54c.23,0,.45,0,.67,0,2.49,0,3.4-1.13,3.4-2.07A1.16,1.16,0,0,0,50.29,3.34ZM47.21,5.18c0-1.29-3.08-1.62-3.08-1.91s1.72-.64,2.61-.65C45.38.87,43.44,1.05,43.44.74A5.63,5.63,0,0,1,46.23.2c1.13,0,2.19.25,2.19,1.11,0,.47-.39,1-.39,1.69a.67.67,0,0,0,.73.74c.57,0,.69-.6.69-1.23s-.09-.93-.09-1.18A1.22,1.22,0,0,1,50.63.05c.62,0,.77.28,1.67.28a1.37,1.37,0,0,0-.67,1.07c0,.76.49,1.29.49,2.85,0,2.87-2.69,3.89-6,3.89a18.11,18.11,0,0,1-2.81-.22c-.15,0-.18,0-.18-.14,0-.24,1.29-.37,1.29-1.53a8.78,8.78,0,0,0-.15-1,.15.15,0,0,1,.15-.15c.27,0,.82,1.06,1.83,1.06A.87.87,0,0,0,47.21,5.18Zm3-4a.46.46,0,1,0,.45-.45.45.45,0,0,0-.45.45"/><path class="cls-1" d="M48.56,18c0-.39-1-.42-1.05-1.49,0-.17-.08-.46-.28-.46s-.07,1-.43,1c-.84,0-1.11-1.63-1.42-1.63-.07,0-.16,0-.16.27s0,.33,0,.56-.06.4-.28.4c-.49,0-.92-1.14-1.34-1.14-.09,0-.18,0-.18.14s.36.62.36.82c0,.44-1.18.2-1.18.56,0,.17.16.22.38.22.38,0,1-.16,1.29-.16s.45,0,.45.27-.65.58-.65.82.11.16.2.16c.49,0,1.36-.85,2-.85.11,0,.38.05.38.22s-.62.65-.62,1a.18.18,0,0,0,.17.2c.32,0,.76-.85,1.38-.85.23,0,.58.09.76.09S48.56,18,48.56,18ZM49,26.77a11.44,11.44,0,0,1,1.26-2.53c-.6-.3-2.18-1-2.18-2A2.81,2.81,0,0,1,50,20c.15,0,.19.13.19.37,0,.65-.31,1.7-.31,2.27s.32,1,.62,1a2.61,2.61,0,0,0,1.16-2.16,2.45,2.45,0,0,0-2.22-2.51c-.49,0-1.38.8-3.47.8-3.91,0-4.8-3.87-4.8-5.56,0-.08,0-.1,0-.1a2.73,2.73,0,0,0,1.71.48c.64,0,1.22-.17,2.15-.17,2.17,0,3.14,1.51,4.48,3.44.82.51,2.76,1.33,2.76,3.63,0,2-2.16,3.17-2.68,5.35.83-.09,1.32-1.58,2.18-1.58.43,0,.63.34.63.89a3.91,3.91,0,0,1-1.33,2.74,1.06,1.06,0,0,0,0-.27c0-.51-.2-1.24-.78-1.24-.91,0-1.2,1-1.71,1.8a8.64,8.64,0,0,0-2.5-4.54c-1.29-1-3.51-.48-3.51-2.36,0-.51.33-1.24.33-1.82a.87.87,0,0,0-.15-.53c1.75.66,1.13,1.82,2.2,3,.67.76,2.52,1.49,3.6,4.63a3.19,3.19,0,0,0,0-.49c0-2.69-3.56-5.32-3.87-6.41,2.07.23,2.44.74,3.42,3.47A11.26,11.26,0,0,1,49,26.77"/><path class="cls-1" d="M39.09,7.54c-1.27,0-2.11-.63-2.11-1a.25.25,0,0,1,.26-.27c.4,0,1.27.61,1.56.61.07,0,.13,0,.13-.14,0-.33-.31-.87-.31-1.15,0-.07.05-.12.16-.12.49,0,1.22.2,1.6.2.13,0,.17-.08.17-.15,0-.4-1.18-1.18-1.18-1.42s1.47-.54,1.47-.89-2-.11-2-.45.38-.69.38-.89-.07-.13-.2-.13a14.17,14.17,0,0,1-1.4.35c-.18,0-.4,0-.4-.3,0-.41.71-.87,1.82-.87,1.8,0,2.87,1.24,2.87,3.31C41.91,6.89,40.08,7.54,39.09,7.54ZM35.55,4.09c0-.2-.71-.58-.71-.8,0,0,0,0,.09,0,.2,0,.55.07.82.07s.27-1,.45-1,.35,1,.55,1S37.42,3,37.6,3s.07,0,.07.06-.45.61-.45.76,1,.36,1,.51-1,.16-1,.32.38.64.38.8,0,.06,0,.06-.71-.26-.87-.26S36.13,6,36,6s-.09-.07-.09-.16l0-.73a.14.14,0,0,0-.13-.15l-.76,0c-.09,0-.13,0-.13,0S35.55,4.22,35.55,4.09Zm-.53,3c.29,0,.35.71.4,1.13,0,.21.08.23.17.23s.56-.83.79-.83,1.28,1,2.82,1a4.14,4.14,0,0,0,4.27-4.27c0-2.64-1.85-4.18-4.41-4.18a13.56,13.56,0,0,0-2.59.6c-.28,0-.72-.71-.94-.71s-.18.18-.18.49,0,.84-.22.84C34.69,1.33,33,.07,33,.53s1.13,1.69,1.13,2S33,3.18,33,3.4c0,.4,1.18.47,1.18,1S33,5.29,33,5.67s1.23.09,1.23.47-.91,1.66-.91,2c0,.09,0,.09.09.09.35,0,1.39-1.18,1.64-1.18"/><path class="cls-1" d="M26.79,39a.86.86,0,0,1-.2.53,1.36,1.36,0,0,0-1-.54c-1.87,0-1.16,2.7-3.16,2.7a10.34,10.34,0,0,1-1.22-.1c-.13,0-.2,0-.2.16,0,.47.67,1.63,2.54,1.63s3.68-1.14,3.68-2.56a1.85,1.85,0,0,0-.17-.74.53.53,0,0,1,.42-.18c.29,0,.45.32.73.32a.5.5,0,0,0,.51-.51.56.56,0,0,0-.35-.51.61.61,0,0,0,.26-.49.58.58,0,0,0-.59-.6.55.55,0,0,0-.4.18c0-.32-.21-.63-.56-.63a.47.47,0,0,0-.47.51c0,.29.2.53.2.83"/><path class="cls-1" d="M16.83,35.6c1.45.37,2.18,1.15,2.32,2.08a4.06,4.06,0,0,0,.68,2,3.12,3.12,0,0,0,2.12,1c.66,0,1.18-.22,1.18-.82a2.49,2.49,0,0,0-2.19-2.12h-.48a.84.84,0,0,1-.54-.16c-.29-.25-.38-1.62-.93-2.43a2.29,2.29,0,0,0-2.14-1.17c-.64,0-1.35.35-1.35.86C15.5,35.1,15.67,35.31,16.83,35.6Zm5.07,4.08c-.55,0-1.36-.59-1.36-.91a.43.43,0,0,1,.45-.42c.45,0,1.27.56,1.27,1,0,.13-.09.3-.36.3"/><path class="cls-1" d="M20.23,25.52c0-1.17,2.76-1.78,2.76-3.22a2.4,2.4,0,0,0-.25-1,2.9,2.9,0,0,1,1.67,2.14c0,1.26-1.31,1.84-1.31,2.62s1.4,1,1.4,2.18c0,.93-1.33,2-1.33,3.2a1.83,1.83,0,0,0,1.65,1.82,4.22,4.22,0,0,1-.92.12c-1.84,0-3.73-1.51-3.73-3.31a3.09,3.09,0,0,1,1-2.23,2.58,2.58,0,0,0,1.35.73c.29,0,.42-.15.42-.37C22.9,27.57,20.23,27,20.23,25.52ZM26,34.7c-.62.28-.87.23-.87.87,0,.23,0,.54,0,.71s0,.34.29.34a2.33,2.33,0,0,0,1.69-2c0-.26-.15-.36-.31-.36S26.46,34.49,26,34.7ZM26,33.39c0-.82-1.69-.84-1.69-2.08a2.86,2.86,0,0,1,.6-1.4,2,2,0,0,0,1.37,1.75,2.33,2.33,0,0,1,1.83,2.47c0,1.64-1.15,3.67-4.09,3.67a4.14,4.14,0,0,1-4-3.89c0-.49.12-1,.43-1s.37.22.59.43a3.75,3.75,0,0,0,3,1c1.17,0,2-.47,2-1"/><path class="cls-1" d="M13.08,33.78a.69.69,0,1,1-.77-.61A.7.7,0,0,1,13.08,33.78Zm-3.4.71a1.18,1.18,0,0,0,1.31,1,1.37,1.37,0,0,0,.6-.18,1.13,1.13,0,0,0,1.3.87,1.15,1.15,0,0,0,1-1.29,1.51,1.51,0,0,0-.11-.42.58.58,0,0,0,.15,0,1.21,1.21,0,0,0,1-1.28,1.18,1.18,0,0,0-1.27-1.07,1.1,1.1,0,0,0-.6.25,1.22,1.22,0,0,0-1.38-.9,1.18,1.18,0,0,0-1,1.32,1.35,1.35,0,0,0,.09.36l-.18,0a1.22,1.22,0,0,0-1,1.31"/></g></g></svg>