<svg xmlns="http://www.w3.org/2000/svg" viewBox="0 0 108.23 46.13"><defs><style>.cls-1{fill:#969696;}</style></defs><g id="Capa_2" data-name="Capa 2"><g id="Capa_1-2" data-name="Capa 1"><g id="Ilustración_37" data-name="Ilustración 37"><path class="cls-1" d="M15.45,45.68v-3L17,42.52l-1.39-4H7.76l-1.32,4L8,42.61v3.08H0V42.61H2L8.77,22.67H14.7C17,29.28,19.2,35.9,21.48,42.58h2v3.1ZM14.4,35l-2.59-8.12-.18,0L8.94,35Z"/><path class="cls-1" d="M104.39,12.49c1.06,1,2.15,1.94,3.18,3s.88,1.2-.14,2l-3.91,3c.08.95.17,1.91.25,2.88.11,1.31.25,2.61.34,3.92.08,1.08-.35,1.36-1.36.94L97.31,25.8c-.22-.1-.46-.18-.75-.3-.8,1-1.6,2-2.39,3l-4.86,6c-.26.32-.54.75-1,.53a1.51,1.51,0,0,1-.66-.91c-.89-3.82-1.75-7.64-2.62-11.45-.06-.27-.12-.53-.2-.84a7.94,7.94,0,0,0-.81-.06H78.53c-.45,0-.93.07-1.21-.41s.06-.83.27-1.19l3.15-5.24.42-.75c-.23-.17-.42-.33-.62-.46-1.45-1-2.92-1.92-4.35-2.92-.27-.19-.6-.6-.57-.88s.43-.61.75-.74c2-.84,4.13-1.63,6.19-2.44l.76-.32c-.12-.91-.22-1.8-.34-2.69-.09-.68-.2-1.35-.29-2C82.57.78,83,.4,83.89.7c2.44.82,4.88,1.67,7.32,2.5l.35.1,1.16-.7C94,1.81,95.26,1,96.54.24c.69-.42,1.06-.3,1.4.42.67,1.42,1.32,2.84,2,4.29l4.32,1.16.53.14c.67.2.85.46.71,1.15-.29,1.42-.59,2.83-.89,4.25,0,.2-.07.4-.1.59ZM88.86,32.59c.28-.31.43-.47.57-.64l6.09-7.57c.51-.63.7-.68,1.45-.36l4.82,2.05c.21.09.44.17.76.28-.16-1.69-.34-3.26-.45-4.83-.14-2.11-.47-1.6,1.2-2.86l3-2.25a1.7,1.7,0,0,0-.11-.25c-.63-.65-1.28-1.29-1.88-2-1.67-1.83-1.5-1-1-3.39,0-.2.09-.4.13-.6.18-.86.35-1.72.53-2.63-1.44-.39-2.81-.79-4.19-1.12a1.61,1.61,0,0,1-1.23-1C98,4.26,97.41,3.1,96.83,1.87c-.28.16-.5.26-.7.39-1.24.76-2.48,1.5-3.69,2.29A1.52,1.52,0,0,1,91,4.72C89,4,87.08,3.38,85.13,2.71l-.81-.26c.19,1.39.36,2.66.54,3.93.12.86,0,1.06-.81,1.38L78.74,9.84c-.22.08-.44.18-.75.32l.63.46L82.24,13c.82.55.88.82.38,1.67l-2.9,4.84c-.12.2-.22.41-.38.72H85.1c.82,0,1,.13,1.17.92.56,2.47,1.11,4.95,1.67,7.42C88.23,29.87,88.53,31.14,88.86,32.59Z"/><path class="cls-1" d="M73.76,35.76c0-.76,0-1.4,0-2a1.65,1.65,0,0,0-1.42-1.6A7.42,7.42,0,0,0,70.92,32c-1.67,0-3.35,0-5,0H65V29.25c.6-.11,1.21-.24,1.82-.33a23.14,23.14,0,0,1,6.9-.22,4.32,4.32,0,0,1,4.11,4.58c.07,2.78,0,5.57,0,8.36,0,.28,0,.57.06,1h1.9v3.1h-5.7L73.79,44a1.77,1.77,0,0,0-.3.25c-1.7,2.12-4.87,2.16-6.61,1.49a4.25,4.25,0,0,1-2.5-2.36,6,6,0,0,1,0-4.94,4.2,4.2,0,0,1,3.56-2.51,37.81,37.81,0,0,1,4-.16C72.5,35.75,73.09,35.76,73.76,35.76Zm0,2.7c-1.31,0-2.53,0-3.75,0a2.06,2.06,0,0,0-.72.18,2.2,2.2,0,0,0-.56,3.65,3.11,3.11,0,0,0,3.1.35,2.68,2.68,0,0,0,1.91-2.26A13.73,13.73,0,0,0,73.75,38.46Z"/><path class="cls-1" d="M61.66,42.71v2.72a26.59,26.59,0,0,1-2.79.46,30.75,30.75,0,0,1-4.6.09A6.21,6.21,0,0,1,48.4,40.9a13.93,13.93,0,0,1,0-6.79,6.93,6.93,0,0,1,6.7-5.54,9.53,9.53,0,0,1,5,.78,5.13,5.13,0,0,1,2.33,6.95,3.83,3.83,0,0,1-3.57,2.2c-1.83.08-3.67,0-5.5,0H52.5a3.35,3.35,0,0,0,3.32,4.12c1.65,0,3.31,0,5,0C61.05,42.67,61.31,42.7,61.66,42.71ZM52.5,35.88c1.58,0,3.11,0,4.64,0a1.63,1.63,0,0,0,1.55-1.39,2,2,0,0,0-1.49-2.32C54.8,31.36,52.52,33.13,52.5,35.88Z"/><path class="cls-1" d="M32.85,45.37V42.73c.3,0,.57-.06.83-.06,1.74,0,3.49,0,5.23,0a6.42,6.42,0,0,0,1.79-.32,1.51,1.51,0,0,0,1.06-1.51,1.38,1.38,0,0,0-1-1.37c-.81-.27-1.66-.44-2.48-.68a20.82,20.82,0,0,1-3-1,4.22,4.22,0,0,1-2.45-4.13,4.16,4.16,0,0,1,2.4-4.15,10,10,0,0,1,3.11-.89,17.84,17.84,0,0,1,6.66.53,2.12,2.12,0,0,1,.31.14v2.63c-.31,0-.58,0-.84,0-1.47,0-3,0-4.42,0a6.78,6.78,0,0,0-1.73.27,1.29,1.29,0,0,0-1,1.16,1.33,1.33,0,0,0,.76,1.46,19.73,19.73,0,0,0,2.25.74c1,.32,2.11.53,3.1,1a4.27,4.27,0,0,1,2.77,4.33,4.55,4.55,0,0,1-2.89,4.5,10.69,10.69,0,0,1-5,.7c-1.6-.11-3.19-.35-4.79-.54A3.82,3.82,0,0,1,32.85,45.37Z"/><path class="cls-1" d="M29.16,42.61l1.76.11v3H25.07V25.91l-1.81-.1V22.69h5.9Z"/><path class="cls-1" d="M101.11,13.44c-.09.39-.19,1.16-.42,1.89a14.55,14.55,0,0,1-3.41,5.87,3,3,0,0,1-3.39.88,21.16,21.16,0,0,1-8-4.4,3,3,0,0,1-.86-3.57,16.73,16.73,0,0,1,5.07-7.18,3.75,3.75,0,0,1,3.49-.8,11.75,11.75,0,0,1,6.43,4.06A4.73,4.73,0,0,1,101.11,13.44Zm-1.48-.31a3.3,3.3,0,0,0-.95-2.27,10.77,10.77,0,0,0-5-3.19,2.7,2.7,0,0,0-2.83.62,16.79,16.79,0,0,0-4.29,6.2A1.7,1.7,0,0,0,87,16.66a20.88,20.88,0,0,0,7.4,4,1.48,1.48,0,0,0,1.65-.45,13.31,13.31,0,0,0,3.36-6C99.54,13.85,99.57,13.49,99.63,13.13Z"/><path class="cls-1" d="M93.28,18a4,4,0,0,1-4-4.14,4.08,4.08,0,0,1,4.07-4.06,4.14,4.14,0,0,1,4.1,4.13A4.07,4.07,0,0,1,93.28,18Zm0-1.39A2.7,2.7,0,0,0,96,13.92a2.78,2.78,0,0,0-2.73-2.73,2.72,2.72,0,0,0-2.68,2.7A2.67,2.67,0,0,0,93.3,16.62Z"/></g></g></g></svg>