<svg xmlns="http://www.w3.org/2000/svg" viewBox="0 0 133.76 43.12"><defs><style>.cls-1{fill:#969696;}</style></defs><g id="Capa_2" data-name="Capa 2"><g id="Capa_1-2" data-name="Capa 1"><polygon class="cls-1" points="28.72 22.19 25.73 19.12 25.73 27.7 28.72 27.7 28.72 22.19"/><path class="cls-1" d="M16.6,13H24l-3-3H17.07A5,5,0,0,0,16.6,0V10L8.26,1.73C7.79,2,7.4,2.2,7,2.44s-.86.63-1.33.94l7.86,7.87V28.48l6.06,6.06V30.22l-3.07-3.07Z"/><polygon class="cls-1" points="19.59 12.98 19.59 27.7 22.66 27.7 22.66 16.05 19.59 12.98"/><polygon class="cls-1" points="30.06 19.12 26.99 16.05 22.66 16.05 25.73 19.12 30.06 19.12"/><path class="cls-1" d="M10.47,25.57V12.51l-7-7A14.61,14.61,0,0,0,1.73,8.1L7.4,13.77V18.1L.55,11.25A19.44,19.44,0,0,0,0,15c.08,0,10.15,10.23,10.47,10.54"/><polygon class="cls-1" points="0.16 19.36 0.16 23.68 19.59 43.12 19.59 38.87 0.16 19.36"/><path class="cls-1" d="M34.86,23.92H31.79v3.86H28.72a5,5,0,0,0,10.07,0Z"/><polygon class="cls-1" points="59.8 27.77 57.36 32.1 43.12 32.1 52.33 14.4 44.14 14.4 46.42 10.07 60.67 10.07 51.46 27.77 59.8 27.77"/><polygon class="cls-1" points="67.91 18.89 75.14 18.89 75.14 23.21 67.91 23.21 67.91 27.77 75.14 27.77 75.14 32.1 62.48 32.1 62.48 10.07 75.14 10.07 75.14 14.4 67.91 14.4 67.91 18.89"/><path class="cls-1" d="M82.93,28.33h2c2.28,0,3.23-.79,3.23-2.52A2.5,2.5,0,0,0,87,23.53a5.3,5.3,0,0,0-2.76-.4H82.93Zm0-9.13h1.34c2.44,0,3.46-.79,3.46-2.6s-1-2.52-3.54-2.52H82.93Zm2.21-9.13c2.83,0,4.4.32,5.66,1a5.8,5.8,0,0,1,2.44,5,5.18,5.18,0,0,1-1.49,3.86,4.27,4.27,0,0,1-2.29,1.26,5.29,5.29,0,0,1,2.68,1.26,4.92,4.92,0,0,1,1.5,3.85,5.67,5.67,0,0,1-2.29,4.8,8.1,8.1,0,0,1-4.64,1h-9V10Z"/><path class="cls-1" d="M102.92,20.54c2.2,0,3.54-1.1,3.54-3.07a3,3,0,0,0-3.15-3.07h-2v6.14ZM101.19,32.1H95.84V10H103c2.91,0,5,.55,6.53,1.66a6.86,6.86,0,0,1,2.36,5.58c0,3.39-1.42,5.59-4.25,6.69l4.88,8.1h-6.45l-4.8-8.57Z"/><path class="cls-1" d="M120.86,23.53l2.2-7.16,2.21,7.16Zm5.74-13.46h-6.84l-7.32,22.11h5.67l1.33-4.33h7.16l1.34,4.33h5.82Z"/></g></g></svg>