<svg xmlns="http://www.w3.org/2000/svg" viewBox="0 0 500.95 158.42"><defs><style>.cls-1{fill:#969696;}</style></defs><g id="Capa_2" data-name="Capa 2"><g id="Capa_1-2" data-name="Capa 1"><path class="cls-1" d="M2.15,158.42c-.09-4.13-.21-8.26-.26-12.39a17.93,17.93,0,0,1,.44-2.79h495.5c.13,5.37.24,10.28.36,15.18Z"/><path class="cls-1" d="M309.43,70.15l18.72,28c-2.38.26-3.78.54-5.19.56-5,.05-10-.17-15,.08-3.45.17-5.56-1.21-7.33-4-3.27-5.18-7.08-10-10.11-15.37-2.67-4.7-6.13-6.1-11.8-4.25-.14,7.38-.28,15-.43,23.11H255.79c-1.39-4.49-1.44-93.1,0-98.06h5.11c11.81,0,23.65.52,35.42-.16C306.09-.52,313,4,319,10.4c15.42,16.44,12.75,43-5.37,56.63ZM278.88,51.76c5,0,9.29.38,13.51-.08,7.43-.8,12.32-6,13.2-13.3.83-6.83-3.06-14.16-9.22-16.57-5.69-2.23-11.57-1.14-17.49-.95Z"/><path class="cls-1" d="M496.18,98.47c-8.27.45-15.63.24-23.53.1-1.8-4.53-3.53-8.92-5.32-13.43H425.76l-5.13,13.2H396.21C408.47,65.25,421.05,33,433.34.52h28.51C473.27,32.57,484.59,65.05,496.18,98.47ZM448.33,28.65l-1.41,0c-4,10.87-8.07,21.74-12.27,33.06h25.1C455.78,50.19,452.05,39.42,448.33,28.65Z"/><path class="cls-1" d="M4.8,98.47c12.71-33.34,25-65.68,37.35-98H70.68C82,32.81,93.37,65.16,105,98.42c-8.31.52-15.67.3-23.51.15-1.85-4.43-3.67-8.81-5.59-13.42H34.69c-1.74,4.19-3.5,8.43-5.42,13.07C21.52,99.2,13.72,98.68,4.8,98.47ZM43.3,62c8.77.09,16.57.52,25.28-.31C64.45,49.86,60.63,38.94,56.81,28l-1,.11Z"/><path class="cls-1" d="M231.16,61.41c-8.92,1.41-17.73-.08-26.84.94V78.58c1.75.11,3.5.31,5.25.31,11.63,0,23.27,0,34.9,0,1.94,0,3.87.26,6.1.42V98.67c-23.66.09-47,0-70.7,0V.62h50.82c1.51,6.59.81,13.21.37,20.64H204.28V38.38h26.33C232.36,46.34,231.14,53.67,231.16,61.41Z"/><path class="cls-1" d="M388.62,98.37H364.11c-1.31-8.53-.42-16.92-.58-25.26s0-16.88,0-25.32v-26c-10.05-.61-19.77.11-29.84-.45V.54h86.93v20.6c-10.27.89-20.67-.06-31.63.6-.68,8.64-.23,17-.31,25.37s0,16.88,0,25.32Z"/><path class="cls-1" d="M174.41,79.17V97.51c-3.66,1.43-58.39,1.85-64.61.6-1.3-3.8-1.44-92.67-.06-97.59h23.92c0,13.06.07,25.91.08,38.76s0,25.75,0,39.34C147.39,79.36,160.6,78.49,174.41,79.17Z"/><path class="cls-1" d="M0,135.05a.78.78,0,0,1,.32-.2,6.23,6.23,0,0,1,1.09-.15,7.66,7.66,0,0,0,2.25-.34,1.85,1.85,0,0,0,.26-1.05l0-1.32,0-4.78,0-2.25,0-4.72-.09-5.36a5.2,5.2,0,0,0-.24-2.16,3.49,3.49,0,0,0-2-.42,8.82,8.82,0,0,1-1.26-.11.39.39,0,0,1-.24-.34.86.86,0,0,1,.09-.35.56.56,0,0,1,.3-.1l.64,0a21.3,21.3,0,0,0,2.29.11l1.39,0,3.3.07q2.48,0,3.87-.06l1.88-.05c.28,0,1,0,2.14.07l2.66,0,.32.06,1.56-.06.19.1a1.13,1.13,0,0,1,.13.32,5.45,5.45,0,0,1-.09.8c-.05.37-.08.59-.08.68,0,1.3,0,2.4.13,3.3a.17.17,0,0,1-.11.15,1.07,1.07,0,0,1-.37,0,9.84,9.84,0,0,1-.55-1.26,14,14,0,0,0-1.05-2.08,2.76,2.76,0,0,0-.73-.94,2.54,2.54,0,0,0-1.09-.15l-1.71,0-.8,0L9,112.43H8.56c-.69,0-1.1.09-1.24.27A6.17,6.17,0,0,0,7,115.34c0,.15,0,1.66.1,4.51v2.61a1.53,1.53,0,0,0,.45.06H8.8c.65,0,1.09,0,1.32,0a2.3,2.3,0,0,0,.39,0c1.35,0,3.09-.07,5.22-.07a2.23,2.23,0,0,0,1.17-.4,4.11,4.11,0,0,0,.42-1.76q.13-1.42.63-1.62a1.14,1.14,0,0,1,.45.1,1.41,1.41,0,0,1,0,.28c0,.09,0,.23,0,.43-.07.47-.1,1.92-.1,4.36,0,.65,0,1.37.11,2.18s.1,1.23.1,1.29a2.32,2.32,0,0,1-.06.45.6.6,0,0,1-.24.08h-.13a6.64,6.64,0,0,1-.58-1.64,5.28,5.28,0,0,0-1-2.37,2.54,2.54,0,0,0-1.73-.48l-1,0q-.69,0-2.07,0H10.49a30.46,30.46,0,0,0-3.41.11l0,.62,0,3.46,0,2.18,0,2.13a5.72,5.72,0,0,0,.24,2.21,1.72,1.72,0,0,0,1.39.42l1.15,0,1.17,0q1,0,2.52,0a23.21,23.21,0,0,0,4.83-.32,4.11,4.11,0,0,0,2-1.1,13.16,13.16,0,0,0,2-3.41c.24-.51.48-.77.71-.77a.66.66,0,0,1,.38.15,21.54,21.54,0,0,0-.62,2.44,19.78,19.78,0,0,0-.24,2.69,1.72,1.72,0,0,1-.3,1h-.42l-5.27.05H14.19l-5.63.07H6.27l-.81,0c-2.25.1-3.91.15-5,.15a.62.62,0,0,1-.39-.09.34.34,0,0,1-.1-.28Z"/><path class="cls-1" d="M24.49,135.43a1,1,0,0,1,.12-.43,14.38,14.38,0,0,1,2.42-.44,1.41,1.41,0,0,0,1-.35,4.11,4.11,0,0,0,.19-1.53l.11-4.19,0-2.85,0-3.72v-1c0-2.23,0-3.63,0-4.18a2.13,2.13,0,0,0-.13-.44,4.51,4.51,0,0,0-.69-.26l-2.5-.46c0-.11,0-.2,0-.25s0-.15,0-.26l1,0,2.42.09,1.4,0h.42l.46,0c.62,0,1,0,1.08,0l1.27-.09c.86,0,1.47,0,1.82,0a3.13,3.13,0,0,1-.11.62c-.12,0-.67.05-1.66.08a6.7,6.7,0,0,0-1.7.18c-.24.14-.36.57-.36,1.28,0,.17,0,.51,0,1v4.89l0,5.26L31,133v1c0,.32.06.52.16.59l2.34,0h1.08l2.74-.09a5.06,5.06,0,0,0,1.55-.22,7.56,7.56,0,0,0,1.54-1.07,5.09,5.09,0,0,0,1-1.17l.27-.39a8.83,8.83,0,0,0,.81-1.65H43q-.1.57-.21,1.08c-.31,1.5-.52,2.74-.63,3.73,0,.22-.05.41-.07.59l-5.94-.17q-7.65,0-9.09.14-.43,0-.93,0Z"/><path class="cls-1" d="M51.53,135a5.36,5.36,0,0,1,1.61-.39,4.19,4.19,0,0,0,2-.64c.34-.69.51-2.45.51-5.26v-3l0-1.79,0-1.31,0-2.43-.06-6.1a2.08,2.08,0,0,0-.3-1.35,4.81,4.81,0,0,0-2.29-.87,2.61,2.61,0,0,1-.94-.31.8.8,0,0,1-.21-.53,3,3,0,0,1,.6-.1h1.34l.69,0a8.79,8.79,0,0,1,1.54.15c1.15.08,2.34.12,3.55.12q.52,0,1.5-.06,2.59-.15,3.72-.15a19.74,19.74,0,0,1,4.29.45,15.28,15.28,0,0,1,4.16,1.67A10.56,10.56,0,0,1,76,115.52a12.13,12.13,0,0,1,2.12,3.63,12.73,12.73,0,0,1,.72,4.42,12.51,12.51,0,0,1-.79,4.35,11.71,11.71,0,0,1-2.23,3.75,11.15,11.15,0,0,1-2.89,2.38,16.49,16.49,0,0,1-4.47,1.38,28.94,28.94,0,0,1-4.45.23c-1.41,0-2.56,0-3.45-.13a8,8,0,0,0-1.13-.08l-.21,0-7.65.15,0-.15a.46.46,0,0,1,0-.21Zm9.55-.75a8.77,8.77,0,0,0,2.89.49,12.06,12.06,0,0,0,3.72-.59,10.58,10.58,0,0,0,3.22-1.67,10.37,10.37,0,0,0,2.3-2.44,11.41,11.41,0,0,0,1.28-2.45,13.63,13.63,0,0,0,.52-4.15,13,13,0,0,0-1-5,9.24,9.24,0,0,0-2.51-3.34,11.21,11.21,0,0,0-4.23-2.34A18.19,18.19,0,0,0,62,112a7.29,7.29,0,0,0-2.9.43,3,3,0,0,0-.22.26,3.57,3.57,0,0,0-.11.87c0,.16,0,.36,0,.58,0,1.45.05,2.62.05,3.49l0,4.26q0,9.39.35,10.45A3.48,3.48,0,0,0,61.08,134.23Z"/><path class="cls-1" d="M81.4,134.83a2.62,2.62,0,0,1,.72-.18c1.62-.1,2.54-.29,2.78-.58s.35-1.64.35-4.07l0-1.67v-1.75l-.06-1.93,0-1.12,0-1.24v-1.47l0-.65,0-.83c0-.19,0-.41,0-.66,0-.67,0-1.38-.1-2.12a2.26,2.26,0,0,0-.17-.43,5.44,5.44,0,0,0-1.9-.4,5.11,5.11,0,0,1-1.48-.23c-.09-.07-.14-.23-.15-.5h1.34l4.22.1c1.08,0,2.52,0,4.32-.1a3.64,3.64,0,0,1,0,.48c-.21,0-.57.11-1.06.18a7.82,7.82,0,0,0-1.85.33.56.56,0,0,0-.3.27,2.78,2.78,0,0,0-.19,1.07l-.08,2,.07,7.07v2.8c0,.88,0,1.48,0,1.8a17,17,0,0,0,.09,2.27,1.38,1.38,0,0,0,.3.71,1.68,1.68,0,0,0,.71.34,7,7,0,0,0,1.14.19,2,2,0,0,1,1.13.25,1.82,1.82,0,0,1,0,.35v.13c-1,0-1.68.05-2.13.05l-1.42-.05-2.19,0h-4Z"/><path class="cls-1" d="M92.06,134.83a.78.78,0,0,1,.4-.13h.74a6.09,6.09,0,0,0,1.45-.23,2.43,2.43,0,0,0,.95-1,38.86,38.86,0,0,0,1.86-4.6c.33-.94.54-1.51.62-1.71.27-.64.52-1.3.76-2l1.5-4.18q.34-1,1.68-4.51c.22-.59.49-1.39.81-2.38l.47,0,.55,0a21.34,21.34,0,0,1,1.21,2.91c.19.55.5,1.37.94,2.46l2.41,6.53,1.28,3.54c.68,2,1.13,3.25,1.34,3.71a2.66,2.66,0,0,0,.59.91,1.88,1.88,0,0,0,.59.19l.72.19a7.41,7.41,0,0,1,1,.35,1,1,0,0,1,.06.27.85.85,0,0,1,0,.24l-.72,0-2.86-.05-1.59,0-1.92,0-.39,0-.34,0h-.35a.85.85,0,0,1-.32-.09,1.26,1.26,0,0,1,.08-.43.93.93,0,0,1,.35-.11l1.67-.11a3.05,3.05,0,0,0,1-.18,1.33,1.33,0,0,0,.1-.43,7.26,7.26,0,0,0-.41-1.48c-.19-.53-.36-1-.5-1.51s-.71-2.05-1.69-4.71a6.41,6.41,0,0,0-1.15-.11l-3.4,0-1,0a10.63,10.63,0,0,0-1.19.08c-.14.32-.23.55-.27.68l-1.4,4.37a23.15,23.15,0,0,0-.89,2.75,1.36,1.36,0,0,0,.15.48,6.76,6.76,0,0,0,.89.17l2.16.19c.11.1.17.18.17.26a1.13,1.13,0,0,1,0,.24H99c-.85,0-1.84,0-3-.08l-1.11,0-1.16,0-.78,0c-.25,0-.58,0-1,0v-.1A1.11,1.11,0,0,1,92.06,134.83Zm7.58-9.53c1.13.06,2.43.09,3.88.09.82,0,1.55,0,2.17-.08a8.63,8.63,0,0,0-.36-1.15l-1.14-3-1.45-3.67-.16-.29c-.06.13-.29.67-.7,1.64-.68,1.65-1.16,2.94-1.46,3.86-.14.41-.28.82-.43,1.23a8.65,8.65,0,0,0-.28.85,2.91,2.91,0,0,1-.16.5Z"/><path class="cls-1" d="M115.17,134.84a19.09,19.09,0,0,0,2.61-.38.79.79,0,0,0,.38-.47v-.18c0-.26,0-1.22.13-2.87,0-.47,0-.92,0-1.36l0-1.89,0-2.15V118.7a4.81,4.81,0,0,0-.27-2.2,2.35,2.35,0,0,0-1.52-.57,7.46,7.46,0,0,1-1.35-.24.27.27,0,0,1-.13-.26,1.19,1.19,0,0,1,0-.28,1.21,1.21,0,0,1,.73-.16l.44,0a5.22,5.22,0,0,1,.67,0h1.3l4.18,0a16.14,16.14,0,0,1,5,.53,4.6,4.6,0,0,1,2.26,1.77,4.86,4.86,0,0,1-2.22,7.25,7.48,7.48,0,0,0-.83.48c.36.76.87,1.67,1.51,2.74l2,3.46a20.8,20.8,0,0,0,1.67,2.39,3.7,3.7,0,0,0,1.12.81,9.71,9.71,0,0,0,2.22.6c0,.11,0,.19,0,.26s0,.14,0,.24q-2.18,0-5.1,0l-.57,0c-.75-1.45-1.64-3-2.65-4.76l-2.36-4.3a2.74,2.74,0,0,0-.78-.83,1.75,1.75,0,0,0-.82-.17l-1.35,0-.44,0c0,.34-.05,1-.05,2.08v5.43a2.82,2.82,0,0,0,.13.85,1,1,0,0,0,.43.48,10.08,10.08,0,0,0,1.79.55l.65.16a.69.69,0,0,1,.13.43,4.39,4.39,0,0,1-.61.08c-1,0-1.62,0-2,0H121l-2.16,0-2.11,0-1.44.05-.32-.06,0-.16C115,135.08,115,135,115.17,134.84Zm5.9-10.38h.63a15,15,0,0,0,2.64-.27,4.41,4.41,0,0,0,1.7-.67,3.56,3.56,0,0,0,1.09-1.39,4.39,4.39,0,0,0,.43-1.9,4.57,4.57,0,0,0-.68-2.28,3.94,3.94,0,0,0-1.77-1.54,6.57,6.57,0,0,0-3-.62c-.29,0-.66,0-1.12,0q-.06.83-.06,1.26l.08,3,0,1.22C121,122.12,121,123.18,121.07,124.46Z"/><path class="cls-1" d="M135.28,134.83a2.72,2.72,0,0,1,.72-.18c1.62-.1,2.55-.29,2.78-.58s.35-1.64.35-4.07l0-1.67v-1.75l-.06-1.93,0-1.12,0-1.24v-1.47l0-.65,0-.83c0-.19,0-.41,0-.66,0-.67,0-1.38-.09-2.12a3.25,3.25,0,0,0-.18-.43,5.38,5.38,0,0,0-1.9-.4,5.11,5.11,0,0,1-1.48-.23c-.09-.07-.14-.23-.15-.5h1.34l4.22.1c1.08,0,2.52,0,4.32-.1a3.64,3.64,0,0,1,0,.48c-.21,0-.56.11-1.06.18a7.57,7.57,0,0,0-1.84.33.55.55,0,0,0-.31.27,2.78,2.78,0,0,0-.19,1.07l-.08,2,.07,7.07v2.8q0,1.32,0,1.8a17.65,17.65,0,0,0,.08,2.27,1.38,1.38,0,0,0,.3.71,1.68,1.68,0,0,0,.71.34,6.9,6.9,0,0,0,1.15.19,2,2,0,0,1,1.12.25,1.27,1.27,0,0,1,0,.35v.13c-1,0-1.67.05-2.13.05l-1.42-.05-2.19,0h-4Z"/><path class="cls-1" d="M147.61,125.19a9.86,9.86,0,0,1,.39-2.89,12.23,12.23,0,0,1,1.31-2.74,9.42,9.42,0,0,1,2.22-2.47,12.51,12.51,0,0,1,3.61-1.75,13.52,13.52,0,0,1,4.1-.53,11.93,11.93,0,0,1,3.26.45,11.48,11.48,0,0,1,2.9,1.24,10.23,10.23,0,0,1,2.61,2.44,8.45,8.45,0,0,1,1.36,2.47A10.55,10.55,0,0,1,170,125a12.57,12.57,0,0,1-.41,3.48,9.17,9.17,0,0,1-1.36,2.73,12.07,12.07,0,0,1-2.55,2.42,9.72,9.72,0,0,1-3,1.48,12.7,12.7,0,0,1-3.87.57,13.14,13.14,0,0,1-3.77-.5,10.86,10.86,0,0,1-2.75-1.2,11.13,11.13,0,0,1-4-5.14A10.63,10.63,0,0,1,147.61,125.19Zm11,9.88a11.05,11.05,0,0,0,2.78-.38,7.11,7.11,0,0,0,2.55-1.23,6.85,6.85,0,0,0,1.74-2,10.51,10.51,0,0,0,1-2.84,15.69,15.69,0,0,0,.39-3.46,15,15,0,0,0-.64-4.28,7.7,7.7,0,0,0-1.6-2.86,7.6,7.6,0,0,0-2.69-2,8.23,8.23,0,0,0-3.35-.69,8.58,8.58,0,0,0-2.83.48,7.26,7.26,0,0,0-2.27,1.21,7.53,7.53,0,0,0-1.65,2.1,11.55,11.55,0,0,0-1.16,3,12.29,12.29,0,0,0-.4,2.9,12.77,12.77,0,0,0,.4,3A10.88,10.88,0,0,0,152,131a8.78,8.78,0,0,0,1.7,2.17,7.05,7.05,0,0,0,4.94,1.95Z"/><path class="cls-1" d="M180.05,135a4.44,4.44,0,0,1,1.36-.34,3.39,3.39,0,0,0,1.69-.54,13.55,13.55,0,0,0,.43-4.45V127.2l0-1.51,0-1.11,0-2.06-.05-5.16a1.78,1.78,0,0,0-.25-1.15,4.24,4.24,0,0,0-1.94-.73,2.28,2.28,0,0,1-.8-.26.68.68,0,0,1-.17-.45,2.26,2.26,0,0,1,.51-.08H182l.58,0a7.15,7.15,0,0,1,1.31.13q1.45.09,3,.09c.29,0,.72,0,1.27,0,1.46-.09,2.51-.13,3.14-.13a16.77,16.77,0,0,1,3.63.38,12.77,12.77,0,0,1,3.52,1.41,9.21,9.21,0,0,1,2.31,2.06,10.28,10.28,0,0,1,1.8,3.07,10.67,10.67,0,0,1,.61,3.74,10.28,10.28,0,0,1-.68,3.68,10,10,0,0,1-4.32,5.19,13.91,13.91,0,0,1-3.78,1.17,25.77,25.77,0,0,1-3.77.19c-1.2,0-2.17,0-2.92-.11a5.86,5.86,0,0,0-1-.07l-.17,0-6.48.13,0-.13a.48.48,0,0,1,0-.18Zm8.08-.64a7.41,7.41,0,0,0,2.45.41,9.87,9.87,0,0,0,3.14-.5,8.83,8.83,0,0,0,2.73-1.41,8.65,8.65,0,0,0,2-2.07,9.87,9.87,0,0,0,1.08-2.07,11.69,11.69,0,0,0,.44-3.51,11,11,0,0,0-.87-4.19,7.87,7.87,0,0,0-2.12-2.83,9.54,9.54,0,0,0-3.59-2,15.17,15.17,0,0,0-4.46-.63,6.25,6.25,0,0,0-2.45.37l-.19.22a3.37,3.37,0,0,0-.09.73c0,.14,0,.3,0,.49,0,1.23.05,2.22.05,3V124c0,5.29.09,8.24.29,8.84A3,3,0,0,0,188.13,134.4Z"/><path class="cls-1" d="M205.54,135.09a1.13,1.13,0,0,1,.27-.17,5.29,5.29,0,0,1,.92-.12,6.4,6.4,0,0,0,1.91-.29,1.52,1.52,0,0,0,.22-.89v-5.16l0-1.9,0-4-.08-4.53a4.28,4.28,0,0,0-.21-1.83,2.94,2.94,0,0,0-1.7-.35,7.65,7.65,0,0,1-1.06-.1.32.32,0,0,1-.21-.29.84.84,0,0,1,.08-.3.59.59,0,0,1,.25-.08l.54,0c.63.06,1.28.1,1.94.1l1.18,0,2.79.07c1.4,0,2.49,0,3.28,0l1.58-.05c.25,0,.85,0,1.82.07l2.25,0,.27,0,1.32,0,.16.08a.81.81,0,0,1,.11.27,4.53,4.53,0,0,1-.07.68,4.85,4.85,0,0,0-.07.57,27.72,27.72,0,0,0,.11,2.8.15.15,0,0,1-.1.13,1.06,1.06,0,0,1-.31,0,10.32,10.32,0,0,1-.47-1.07,12.46,12.46,0,0,0-.88-1.76,2.34,2.34,0,0,0-.62-.79,2,2,0,0,0-.92-.13l-1.45,0-.68,0-4.53.1h-.4c-.58,0-.93.07-1.05.22a5.19,5.19,0,0,0-.27,2.24c0,.13,0,1.4.08,3.81v2.21a1.58,1.58,0,0,0,.38,0H213c.55,0,.92,0,1.11,0l.33,0c1.15,0,2.62-.06,4.42-.06.56-.1.89-.21,1-.34a3.31,3.31,0,0,0,.36-1.49c.08-.81.26-1.26.53-1.37a.92.92,0,0,1,.38.08.75.75,0,0,1,0,.24,2.21,2.21,0,0,1,0,.37c-.05.39-.07,1.62-.07,3.68,0,.55,0,1.17.08,1.84s.09,1.05.09,1.1a2.2,2.2,0,0,1-.05.38.53.53,0,0,1-.2.07h-.12a6.46,6.46,0,0,1-.49-1.39,4.44,4.44,0,0,0-.86-2,2.19,2.19,0,0,0-1.47-.4l-.81,0c-.4,0-1,0-1.75,0h-1a28.29,28.29,0,0,0-2.89.09l0,.53,0,2.92,0,1.85,0,1.8a5.12,5.12,0,0,0,.2,1.88,1.49,1.49,0,0,0,1.18.35l1,0,1,0c.58,0,1.29,0,2.14,0a19.48,19.48,0,0,0,4.08-.27,3.47,3.47,0,0,0,1.68-.93,11,11,0,0,0,1.65-2.88c.21-.44.41-.66.61-.66a.64.64,0,0,1,.32.13,17,17,0,0,0-.53,2.07,16.8,16.8,0,0,0-.2,2.27,1.43,1.43,0,0,1-.26.87H224l-4.46.05-2,0-4.77.07h-2.62c-1.91.09-3.31.13-4.21.13a.53.53,0,0,1-.33-.08.32.32,0,0,1-.08-.23Z"/><path class="cls-1" d="M256.48,112.36a19.22,19.22,0,0,1,.22,3c0,.2,0,.46,0,.8a1.85,1.85,0,0,1-.39.06,1.52,1.52,0,0,1-.32,0,6.57,6.57,0,0,0-2.57-3.38,7.8,7.8,0,0,0-4.41-1.18,7.58,7.58,0,0,0-2.35.32,10,10,0,0,0-3,1.6,9.65,9.65,0,0,0-2.15,2.44,12.06,12.06,0,0,0-1.4,3.44,16.27,16.27,0,0,0-.52,4.12,15.82,15.82,0,0,0,1.22,6.64,7.69,7.69,0,0,0,3.34,3.73,9.06,9.06,0,0,0,4.28,1.12l.89,0a12.21,12.21,0,0,0,2-.36,9.27,9.27,0,0,0,2.26-.93,7.24,7.24,0,0,0,1.75-1.51,9.28,9.28,0,0,0,1.45-2.27l.23-.07a.56.56,0,0,1,.28.11,4.28,4.28,0,0,1,0,.58c-.52,2.12-.9,3.56-1.14,4.34-.2,0-.45.12-.75.22a18.76,18.76,0,0,1-5.88.75,18,18,0,0,1-4.44-.4,18.54,18.54,0,0,1-3.21-1.26,10.09,10.09,0,0,1-5.17-5.82,13.14,13.14,0,0,1-.81-4.68,12.45,12.45,0,0,1,.64-4.2,14.8,14.8,0,0,1,2-3.63,12.36,12.36,0,0,1,3.15-3.06,12,12,0,0,1,4-1.73,22.62,22.62,0,0,1,4.42-.33,13.56,13.56,0,0,1,3.92.55A7.66,7.66,0,0,1,256.48,112.36Z"/><path class="cls-1" d="M258.48,134.83a.78.78,0,0,1,.4-.13h.74a6.09,6.09,0,0,0,1.45-.23,2.43,2.43,0,0,0,.95-1,38.86,38.86,0,0,0,1.86-4.6c.33-.94.54-1.51.62-1.71.27-.64.52-1.3.76-2l1.5-4.18q.35-1,1.68-4.51c.22-.59.49-1.39.81-2.38l.47,0,.56,0a22.67,22.67,0,0,1,1.2,2.91c.19.55.5,1.37.94,2.46l2.41,6.53,1.28,3.54c.68,2,1.13,3.25,1.34,3.71a2.66,2.66,0,0,0,.59.91,1.88,1.88,0,0,0,.59.19l.72.19a7.41,7.41,0,0,1,1,.35,1,1,0,0,1,.06.27.85.85,0,0,1,0,.24l-.72,0-2.86-.05-1.59,0-1.92,0-.39,0-.34,0h-.35a.9.9,0,0,1-.32-.09,1.26,1.26,0,0,1,.08-.43.93.93,0,0,1,.35-.11l1.67-.11a3.05,3.05,0,0,0,1-.18,1.33,1.33,0,0,0,.1-.43,7.26,7.26,0,0,0-.41-1.48c-.19-.53-.36-1-.5-1.51s-.71-2.05-1.69-4.71a6.41,6.41,0,0,0-1.15-.11l-3.4,0-1,0a10.63,10.63,0,0,0-1.19.08c-.14.32-.23.55-.27.68l-1.4,4.37a23.15,23.15,0,0,0-.89,2.75,1.36,1.36,0,0,0,.15.48,7.11,7.11,0,0,0,.89.17l2.16.19c.11.1.17.18.17.26a1.13,1.13,0,0,1-.05.24h-1.09c-.85,0-1.84,0-3-.08l-1.11,0-1.16,0-.78,0c-.25,0-.58,0-1,0v-.1A1.11,1.11,0,0,1,258.48,134.83Zm7.58-9.53c1.13.06,2.43.09,3.88.09.82,0,1.55,0,2.17-.08a8.63,8.63,0,0,0-.36-1.15l-1.14-3-1.45-3.67-.16-.29c-.06.13-.29.67-.7,1.64-.68,1.65-1.16,2.94-1.46,3.86-.14.41-.28.82-.43,1.23a8.65,8.65,0,0,0-.28.85,2.91,2.91,0,0,1-.16.5Z"/><path class="cls-1" d="M281.12,115.91l0-.76a34.74,34.74,0,0,0,3.61-.13l.62,0,.43,0a8.73,8.73,0,0,1,1.23,1.27l.29.32,3.35,3.7.48.57c.68.79,1.29,1.47,1.85,2s1.64,1.73,3.25,3.51L300,130.6c.38.42.85.93,1.43,1.54l0-.25c-.06-1.47-.1-2.25-.1-2.33l.07-1,0-1.49v-.68c0-.44,0-1.78-.11-4,0-.31-.06-.89-.13-1.74s-.11-1.6-.11-2.25a5.16,5.16,0,0,0-.21-2c-.09-.14-.54-.28-1.35-.43-.19,0-.49,0-.89-.1a3.61,3.61,0,0,1-.84-.08.51.51,0,0,1-.25-.27,1.23,1.23,0,0,1,.14-.47,2.72,2.72,0,0,1,.84-.13,7.25,7.25,0,0,1,1.1.11,6.66,6.66,0,0,0,1.19.11c.48,0,1.24,0,2.27-.09.58-.05,1-.07,1.21-.07h.27l0,.49a1.94,1.94,0,0,1-.69.14,3.51,3.51,0,0,0-.83.14,1.6,1.6,0,0,0-.68.3,1.2,1.2,0,0,0-.38.84l.17,5,.13,2.3,0,.67.1,3.19c.06,2.18.09,4.08.09,5.69,0,.35,0,1.11-.06,2.27l-.74.06q-.56-.63-3.83-4c-.51-.52-.86-.88-1-1.1l-1.36-1.57-1-1.11c-.16-.16-.28-.27-.35-.35q-1.74-2-4.5-4.92c-.5-.53-1.23-1.36-2.19-2.48-.61-.71-1-1.15-1.15-1.3a5.14,5.14,0,0,0-.65-.54l-.05.54c0,2.06.06,4.91.16,8.54l.11,5.26c0,.44,0,.87.08,1.29l.56.12c1,.1,2,.24,3,.43a1.73,1.73,0,0,0,.19.15l0,.6a1.53,1.53,0,0,1-.41.08l-.43,0c-1.05-.09-2.32-.13-3.83-.13-1.06,0-2,0-2.79.08l-.23,0-.41,0v-.47l.41-.19.75-.12a7.83,7.83,0,0,0,1.46-.31,1.23,1.23,0,0,0,.49-.34,21.59,21.59,0,0,0,.17-3.21c0-.65,0-1.85,0-3.6v-2.16l0-4.51a20.5,20.5,0,0,0-.2-3.56,1.06,1.06,0,0,0-.4-.51,3.36,3.36,0,0,0-1.58-.54A10.29,10.29,0,0,1,281.12,115.91Z"/><path class="cls-1" d="M306.34,117.39,307,115a1.52,1.52,0,0,1,.18-.61.33.33,0,0,1,.25-.14c.19,0,.41.23.65.69a2.17,2.17,0,0,0,.45.62,1.21,1.21,0,0,0,.51.19l.16,0,.68.06,3.75,0h5.73l2.47,0,.39,0c.72.06,1.17.09,1.34.09a.5.5,0,0,0,.38-.15s.2-.39.52-1q.21-.45.51-.45a1.1,1.1,0,0,1,.32.06,2.59,2.59,0,0,1,.08.57l0,.63,0,1.34c0,.33,0,1.38-.08,3.16a.64.64,0,0,1-.07.31.58.58,0,0,1-.3.11.28.28,0,0,1-.22-.12,2.73,2.73,0,0,1-.24-.73,5.29,5.29,0,0,0-.79-2,1.82,1.82,0,0,0-.92-.57,14.12,14.12,0,0,0-2.85-.17h-2.68c0,.42,0,.81,0,1.16l.12,9.87c0,.4,0,1.14-.06,2.23l0,2.11,0,1.18a1.29,1.29,0,0,0,.19.8,2.29,2.29,0,0,0,1,.46c1,.24,1.63.39,2,.44a1.3,1.3,0,0,1,.49.13v.48l-2.26-.06c-1.24,0-2.17,0-2.79-.07l-2.32.11-1.7.09a6.83,6.83,0,0,1-.87,0l-.23-.09a.71.71,0,0,1,.15-.47,1.19,1.19,0,0,1,.58-.17,13.5,13.5,0,0,0,1.58-.34,3.18,3.18,0,0,0,1.19-.5.86.86,0,0,0,.22-.48,16.21,16.21,0,0,0,.14-2.74v-2.7l-.06-5.9-.06-1.27,0-4.24H311.9a7.69,7.69,0,0,0-2.78.28,10,10,0,0,0-2.32,2.52c-.34.53-.63.79-.89.79l-.14,0a.35.35,0,0,1-.06-.18A7.06,7.06,0,0,1,306,119C306.17,118.22,306.3,117.67,306.34,117.39Z"/><path class="cls-1" d="M324.79,134.83a.75.75,0,0,1,.39-.13h.75a6,6,0,0,0,1.44-.23,2.51,2.51,0,0,0,1-1,38.86,38.86,0,0,0,1.86-4.6c.32-.94.53-1.51.62-1.71.26-.64.51-1.3.76-2l1.49-4.18c.23-.66.8-2.16,1.69-4.51.22-.59.49-1.39.81-2.38l.46,0,.56,0a22.68,22.68,0,0,1,1.21,2.91q.29.82.93,2.46l2.41,6.53,1.29,3.54c.68,2,1.12,3.25,1.33,3.71a2.66,2.66,0,0,0,.59.91,1.88,1.88,0,0,0,.6.19l.72.19a7.41,7.41,0,0,1,1,.35,1,1,0,0,1,.06.27.93.93,0,0,1-.05.24l-.71,0-2.86-.05-1.59,0-1.92,0-.39,0-.34,0h-.35a.8.8,0,0,1-.32-.09,1.06,1.06,0,0,1,.08-.43.88.88,0,0,1,.35-.11l1.66-.11a3.07,3.07,0,0,0,1-.18,1.56,1.56,0,0,0,.09-.43,6.6,6.6,0,0,0-.41-1.48c-.19-.53-.36-1-.5-1.51s-.7-2.05-1.69-4.71a6.23,6.23,0,0,0-1.14-.11l-3.4,0-1,0a10.48,10.48,0,0,0-1.19.08c-.14.32-.23.55-.27.68l-1.4,4.37a21.11,21.11,0,0,0-.89,2.75,1.52,1.52,0,0,0,.14.48,7.11,7.11,0,0,0,.89.17l2.16.19c.12.1.17.18.17.26a1,1,0,0,1,0,.24h-1.1c-.85,0-1.83,0-2.95-.08l-1.12,0-1.15,0-.78,0c-.26,0-.59,0-1,0v-.1A.88.88,0,0,1,324.79,134.83Zm7.58-9.53q1.69.09,3.87.09c.83,0,1.55,0,2.18-.08a10.36,10.36,0,0,0-.37-1.15c-.68-1.85-1.06-2.86-1.14-3l-1.44-3.67-.16-.29c-.07.13-.3.67-.7,1.64-.68,1.65-1.17,2.94-1.47,3.86-.13.41-.28.82-.42,1.23a6.53,6.53,0,0,0-.28.85,3,3,0,0,1-.17.5Z"/><path class="cls-1" d="M347.42,115.67v-.49l.43-.08,1.49-.08q1.86-.17,4.17-.27c.61,0,1.58,0,2.9,0a14.09,14.09,0,0,1,4,.4,5.31,5.31,0,0,1,2.72,1.77,4.23,4.23,0,0,1,.9,2.63q0,2.34-3.35,4l-.08.12a8.23,8.23,0,0,1,2.81,1.29,5.54,5.54,0,0,1,1.68,2,5.14,5.14,0,0,1,.43,2.29,5.47,5.47,0,0,1-2.15,4.22,8.81,8.81,0,0,1-5.93,1.85H355l-2.4.08-3.71,0c-.38,0-.74,0-1.1-.05v-.18a.43.43,0,0,1,.08-.28.87.87,0,0,1,.36-.16,13.37,13.37,0,0,0,2.25-.56.75.75,0,0,0,.36-.48,15.82,15.82,0,0,0,.19-3.27c0-.16,0-.36,0-.6q0-1.06,0-1.23v-1.64c0-2.8,0-5.23-.09-7.32l0-3.18,0-.4c-.9-.13-1.69-.21-2.38-.24A5.13,5.13,0,0,1,347.42,115.67Zm6.29,8a8.23,8.23,0,0,0,1.67.16c2.3,0,3.85-.5,4.67-1.51a4.36,4.36,0,0,0,1-4.36,3,3,0,0,0-.77-1.24,3.29,3.29,0,0,0-1.36-.83,8.79,8.79,0,0,0-2.83-.46,10,10,0,0,0-2.51.3c0,.22,0,.39,0,.49s0,.41,0,.91c0,.32,0,.64,0,.95l-.05,1.92,0,1.15.11,2.24Zm3.74,10.81a6.81,6.81,0,0,0,2.64-.67,5.5,5.5,0,0,0,1.17-.91,4.6,4.6,0,0,0,1.05-1.59,4.67,4.67,0,0,0,.38-1.77,6.48,6.48,0,0,0-.26-1.61,4.3,4.3,0,0,0-.9-1.67,4.55,4.55,0,0,0-1.87-1.2,7.71,7.71,0,0,0-2.73-.47,21,21,0,0,0-3.25.12c0,.24,0,.42,0,.54v3.13c0,2.48.09,4,.17,4.41a1.83,1.83,0,0,0,.87,1.18A5.39,5.39,0,0,0,357.45,134.5Z"/><path class="cls-1" d="M367.9,134.84a19.09,19.09,0,0,0,2.61-.38.87.87,0,0,0,.38-.47v-.18c0-.26,0-1.22.12-2.87,0-.47,0-.92,0-1.36l0-1.89,0-2.15,0-4,0-2.86a4.62,4.62,0,0,0-.28-2.2,2.33,2.33,0,0,0-1.52-.57,7.93,7.93,0,0,1-1.35-.24.29.29,0,0,1-.12-.26,1.1,1.1,0,0,1,0-.28,1.23,1.23,0,0,1,.73-.16l.44,0a5.38,5.38,0,0,1,.68,0H371l4.18,0a16.06,16.06,0,0,1,5,.53,4.56,4.56,0,0,1,2.26,1.77,4.88,4.88,0,0,1,.85,2.79,4.83,4.83,0,0,1-3.07,4.46,7.2,7.2,0,0,0-.82.48c.36.76.86,1.67,1.5,2.74l2,3.46a18.44,18.44,0,0,0,1.67,2.39,3.58,3.58,0,0,0,1.12.81,9.74,9.74,0,0,0,2.21.6c0,.11,0,.19,0,.26s0,.14,0,.24c-1.45,0-3.15,0-5.09,0l-.58,0c-.75-1.45-1.63-3-2.65-4.76l-2.35-4.3a2.86,2.86,0,0,0-.79-.83,1.71,1.71,0,0,0-.81-.17l-1.36,0-.44,0c0,.34-.05,1-.05,2.08v5.43a2.82,2.82,0,0,0,.13.85,1,1,0,0,0,.44.48,9.85,9.85,0,0,0,1.78.55l.65.16a.63.63,0,0,1,.13.43,4.3,4.3,0,0,1-.6.08c-.95,0-1.62,0-2,0h-.5l-2.15,0-2.11,0-1.44.05-.32-.06,0-.16C367.68,135.08,367.75,135,367.9,134.84Zm5.89-10.38h.64a14.93,14.93,0,0,0,2.63-.27,4.35,4.35,0,0,0,1.7-.67,3.48,3.48,0,0,0,1.09-1.39,4.4,4.4,0,0,0,.44-1.9,4.68,4.68,0,0,0-.68-2.28,3.92,3.92,0,0,0-1.78-1.54,6.54,6.54,0,0,0-3-.62c-.29,0-.66,0-1.11,0,0,.55-.07,1-.07,1.26l.08,3v1.22C373.73,122.12,373.75,123.18,373.79,124.46Z"/><path class="cls-1" d="M388,134.83a2.56,2.56,0,0,1,.71-.18c1.62-.1,2.55-.29,2.78-.58s.35-1.64.35-4.07v-3.42l-.07-1.93,0-1.12,0-1.24v-1.47l0-.65,0-.83c0-.19,0-.41,0-.66,0-.67,0-1.38-.1-2.12a1.78,1.78,0,0,0-.18-.43,5.37,5.37,0,0,0-1.89-.4,5.22,5.22,0,0,1-1.49-.23.72.72,0,0,1-.14-.5h1.34l4.21.1c1.08,0,2.53,0,4.33-.1a3.64,3.64,0,0,1,0,.48c-.21,0-.57.11-1.07.18A7.69,7.69,0,0,0,395,116a.5.5,0,0,0-.3.27,2.6,2.6,0,0,0-.19,1.07l-.08,2,.06,7.07v2.8q0,1.32,0,1.8a17,17,0,0,0,.09,2.27,1.38,1.38,0,0,0,.3.71,1.62,1.62,0,0,0,.71.34,6.65,6.65,0,0,0,1.14.19,2,2,0,0,1,1.13.25,1.82,1.82,0,0,1,.05.35v.13c-1,0-1.68.05-2.14.05l-1.41-.05-2.2,0h-4Z"/><path class="cls-1" d="M398.67,134.83a.78.78,0,0,1,.39-.13h.75a6.09,6.09,0,0,0,1.45-.23,2.49,2.49,0,0,0,.95-1,38.86,38.86,0,0,0,1.86-4.6c.33-.94.53-1.51.62-1.71.26-.64.52-1.3.76-2l1.49-4.18q.36-1,1.69-4.51c.22-.59.49-1.39.81-2.38l.47,0,.55,0a21.34,21.34,0,0,1,1.21,2.91q.29.82.93,2.46l2.41,6.53,1.29,3.54c.68,2,1.12,3.25,1.33,3.71a2.82,2.82,0,0,0,.59.91,1.88,1.88,0,0,0,.6.19l.72.19a7.41,7.41,0,0,1,1,.35,1,1,0,0,1,.06.27.93.93,0,0,1-.05.24l-.71,0-2.86-.05-1.59,0-1.92,0-.39,0-.34,0h-.35a.85.85,0,0,1-.32-.09,1.26,1.26,0,0,1,.08-.43.88.88,0,0,1,.35-.11l1.67-.11a3.05,3.05,0,0,0,1-.18,1.66,1.66,0,0,0,.1-.43,6.89,6.89,0,0,0-.42-1.48c-.19-.53-.35-1-.5-1.51s-.7-2.05-1.69-4.71a6.23,6.23,0,0,0-1.14-.11l-3.4,0-1,0a10.48,10.48,0,0,0-1.19.08c-.14.32-.23.55-.27.68l-1.4,4.37a23.15,23.15,0,0,0-.89,2.75,1.52,1.52,0,0,0,.14.48,7.11,7.11,0,0,0,.89.17l2.16.19c.12.1.18.18.18.26a1.13,1.13,0,0,1-.05.24h-1.1c-.84,0-1.83,0-2.95-.08l-1.11,0-1.16,0-.78,0c-.26,0-.58,0-1,0v-.1A1.22,1.22,0,0,1,398.67,134.83Zm7.58-9.53q1.69.09,3.87.09c.83,0,1.55,0,2.18-.08a10.36,10.36,0,0,0-.37-1.15c-.68-1.85-1.06-2.86-1.14-3l-1.44-3.67-.16-.29c-.06.13-.3.67-.7,1.64-.68,1.65-1.17,2.94-1.46,3.86l-.43,1.23a8.65,8.65,0,0,0-.28.85,2.27,2.27,0,0,1-.17.5Z"/><path class="cls-1" d="M422.78,134.05a1.8,1.8,0,0,1,1.73-1.75,1.5,1.5,0,0,1,1.13.5,1.71,1.71,0,0,1,.46,1.23,1.73,1.73,0,0,1-.49,1.26,1.55,1.55,0,0,1-1.17.51,1.53,1.53,0,0,1-1.16-.52A1.71,1.71,0,0,1,422.78,134.05Z"/><path class="cls-1" d="M446.81,115.89a16,16,0,0,1,.2,2.51c0,.17,0,.4,0,.69a1.77,1.77,0,0,1-.33,0l-.27,0a5.6,5.6,0,0,0-2.18-2.86,6.67,6.67,0,0,0-3.73-1,6.34,6.34,0,0,0-2,.27,8.06,8.06,0,0,0-4.34,3.43,10.45,10.45,0,0,0-1.18,2.9,14.09,14.09,0,0,0-.44,3.49,13.3,13.3,0,0,0,1,5.62,6.52,6.52,0,0,0,2.82,3.16,7.73,7.73,0,0,0,3.63.94h.74a11.2,11.2,0,0,0,1.73-.31,8,8,0,0,0,1.92-.78,6.54,6.54,0,0,0,1.48-1.28,8.1,8.1,0,0,0,1.23-1.92l.19-.07a.52.52,0,0,1,.24.1c0,.25,0,.42,0,.49-.44,1.79-.76,3-1,3.67l-.63.19a15.91,15.91,0,0,1-5,.64,12,12,0,0,1-6.48-1.41,8.84,8.84,0,0,1-2.58-1.91,9,9,0,0,1-1.79-3,11.15,11.15,0,0,1-.69-4,10.34,10.34,0,0,1,.55-3.55,12.06,12.06,0,0,1,1.66-3.07,10.54,10.54,0,0,1,2.66-2.59,10,10,0,0,1,3.41-1.46,18.63,18.63,0,0,1,3.73-.29,11.48,11.48,0,0,1,3.32.47A6.3,6.3,0,0,1,446.81,115.89Z"/><path class="cls-1" d="M450.15,125.19a9.86,9.86,0,0,1,.39-2.89,12.23,12.23,0,0,1,1.31-2.74,9.42,9.42,0,0,1,2.22-2.47,12.51,12.51,0,0,1,3.61-1.75,13.52,13.52,0,0,1,4.1-.53,11.93,11.93,0,0,1,3.26.45,11.48,11.48,0,0,1,2.9,1.24,10.23,10.23,0,0,1,2.61,2.44,8.45,8.45,0,0,1,1.36,2.47,10.55,10.55,0,0,1,.61,3.57,12.57,12.57,0,0,1-.41,3.48,9.17,9.17,0,0,1-1.36,2.73,12.32,12.32,0,0,1-2.55,2.42,9.72,9.72,0,0,1-3,1.48,12.7,12.7,0,0,1-3.87.57,13.14,13.14,0,0,1-3.77-.5,10.86,10.86,0,0,1-2.75-1.2,11.13,11.13,0,0,1-4.05-5.14A10.63,10.63,0,0,1,450.15,125.19Zm11,9.88a11.05,11.05,0,0,0,2.78-.38,7.11,7.11,0,0,0,2.55-1.23,6.85,6.85,0,0,0,1.74-2,10.51,10.51,0,0,0,1-2.84,15.69,15.69,0,0,0,.39-3.46,15,15,0,0,0-.64-4.28,7.7,7.7,0,0,0-1.6-2.86,7.6,7.6,0,0,0-2.69-2,8.27,8.27,0,0,0-3.35-.69,8.58,8.58,0,0,0-2.83.48,7.26,7.26,0,0,0-2.27,1.21,7.53,7.53,0,0,0-1.65,2.1,11.55,11.55,0,0,0-1.16,3,12.29,12.29,0,0,0-.4,2.9,12.77,12.77,0,0,0,.4,3,10.88,10.88,0,0,0,1.09,2.89,8.78,8.78,0,0,0,1.7,2.17,7.05,7.05,0,0,0,4.94,1.95Z"/><path class="cls-1" d="M474.3,135a4,4,0,0,1,1.77-.48,3.52,3.52,0,0,0,1.2-.17.88.88,0,0,0,.19-.24,13.69,13.69,0,0,0,.35-3.18q.13-3.39.47-9c.17-2.86.25-4.64.25-5.35v-.41q-1.14-.24-3.63-.51a.73.73,0,0,1-.16-.37.87.87,0,0,1,.11-.28,1.24,1.24,0,0,1,.41-.1,4,4,0,0,1,.56.07A16.73,16.73,0,0,0,478,115c.29,0,.8,0,1.52-.08l.86,0a2.22,2.22,0,0,1,.58.09,1.62,1.62,0,0,1,.25.31l.66,1.49,4.5,10,1.87,4.17a69.05,69.05,0,0,0,3.42-7.77,2.76,2.76,0,0,1,.19-.46,4.17,4.17,0,0,0,.27-.6c.08-.22.43-1.07,1-2.54.24-.6.44-1.1.58-1.53.61-1.69,1-2.66,1.07-2.9a1.28,1.28,0,0,1,.52-.13,4.25,4.25,0,0,1,.65.05c.6,0,1.56,0,2.9,0q1.25,0,2,0a1.7,1.7,0,0,1,0,.26,1.37,1.37,0,0,1,0,.3,2.86,2.86,0,0,1-1.23.3,8.08,8.08,0,0,0-1.79.22.83.83,0,0,0-.49.37,6.2,6.2,0,0,0-.18,1.46l0,.73,0,.76q0,2.39.13,8l0,3.11,0,2a4.39,4.39,0,0,0,.11,1.39c.07.15.28.28.63.41a20.47,20.47,0,0,0,2.8.59.24.24,0,0,1,.11.2c0,.1,0,.2,0,.32h-.73c-.62,0-1.3,0-2-.06l-1.18,0c-2.18,0-3.62,0-4.33.07l-.83.06a.49.49,0,0,1-.24-.07v-.2a1.18,1.18,0,0,1,.05-.31,5.44,5.44,0,0,1,1.43-.3,5.24,5.24,0,0,0,1.46-.57,12.59,12.59,0,0,0,.15-2.46l-.05-3.22c0-.35,0-1,.05-2s.06-2.51.06-4.66c0-1.71,0-3-.13-3.88-.18.37-.53,1.18-1.06,2.41l-.23.61,0,.09-2.34,5.56-.84,2.15L489,131.3c-.47,1.2-.88,2.26-1.22,3.18-.14.42-.26.76-.36,1l-.37,0q-1.8-5.24-4.29-10.75t-3.49-7.28c-.08.46-.18,1.78-.29,4-.14,2.67-.21,5.6-.21,8.81a28.75,28.75,0,0,0,.22,3.39,1,1,0,0,0,.46.8,5,5,0,0,0,2.05.29,6.74,6.74,0,0,1,1.21.1,1.05,1.05,0,0,1,.11.36,1,1,0,0,1-.08.27l-4.93-.17c-.36,0-.92,0-1.68.07q-.64,0-1.83.06Z"/></g></g></svg>