<svg xmlns="http://www.w3.org/2000/svg" viewBox="0 0 63.62 63.62"><defs><style>.cls-1{fill:#969696;}</style></defs><g id="Capa_2" data-name="Capa 2"><g id="Capa_1-2" data-name="Capa 1"><path class="cls-1" d="M31.81,63.62A31.81,31.81,0,1,1,63.62,31.81,31.8,31.8,0,0,1,31.81,63.62m0-62.12A30.31,30.31,0,1,0,62.12,31.81,30.31,30.31,0,0,0,31.81,1.5Zm27,39.38s-.07.07-.17,0-.09-.06-.09-.11A24.22,24.22,0,0,0,59.57,34c0-3.88-1.59-6.27-3.61-6.27A2.07,2.07,0,0,0,53.84,30c0,2.38,2.91,2.56,2.91,7.76a20.39,20.39,0,0,1-1.15,6.34c-3.26,11-13.66,16.12-23.79,16.12a25.33,25.33,0,0,1-9-1.4.15.15,0,0,1,0-.18.13.13,0,0,1,.13-.09,21.84,21.84,0,0,0,6.77,1.06c3.88,0,6.17-1.59,6.17-3.53a2.17,2.17,0,0,0-2.2-2.2c-2.38,0-2.56,3-7.67,3a21.24,21.24,0,0,1-6.43-1.15C8.63,52.34,3.43,42,3.44,31.81a29,29,0,0,1,1.42-9s.08-.06.16,0a.14.14,0,0,1,.09.11,23.13,23.13,0,0,0-1.06,6.78c0,3.89,1.59,6.18,3.62,6.18a2.09,2.09,0,0,0,2.11-2.12c0-2.38-2.91-2.64-2.91-7.76A20.94,20.94,0,0,1,8,19.56c3.35-10.93,13.66-16,23.79-16.12a26.77,26.77,0,0,1,9,1.49.14.14,0,0,1,0,.16c0,.08-.09.09-.12.09a19.43,19.43,0,0,0-6.79-1.13c-3.78,0-6.16,1.59-6.16,3.62A2.11,2.11,0,0,0,30,9.78c2.38,0,2.56-2.91,7.67-2.91A20.94,20.94,0,0,1,44.06,8c11,3.35,16,13.74,16.12,23.79A27.77,27.77,0,0,1,58.77,40.88ZM43.62,33.31a5.05,5.05,0,0,0-5.29,4.85c0,2.2,1.32,4,3.08,4A1.13,1.13,0,0,0,42.65,41c0-1.15-1.52-1.43-1.4-3.14A2.15,2.15,0,0,1,43.44,36c2.11,0,3.1,2,3.1,4.17a5.41,5.41,0,0,1-5.3,5.53c-3.7,0-6.08-3.53-6.08-7.32,0-5.64,3.7-7.84,5.64-8.37,0,0,5.07.9,4.91-1.33-.07-1-1.53-1.35-2.58-1.39a7.14,7.14,0,0,0-2.35.37A2.84,2.84,0,0,1,39.48,26c3.61-2.73,6.17-5.38,6.17-8.37a2.89,2.89,0,0,0-3.09-3c-3.61,0-6.34,4.59-6.34,8.73a7.88,7.88,0,0,0,.17,2c-2.29,1.67-4,2.71-7.07,4.56a15.39,15.39,0,0,1,.33-2.67c1.06-1.15,2.51-2.87,2.51-4.19a1,1,0,0,0-1.06-1.14c-1.76,0-3.08,2.64-3.43,4.49-.79,1-2.38,2.21-3.7,2.21a1.6,1.6,0,0,1-1.5-1.32C25.82,26.17,30,21.58,30,17.44a2.67,2.67,0,0,0-3-2.82c-4,0-7.31,5.91-7.31,10.49-1.41,0-1.94-1.5-1.94-2.64a17.49,17.49,0,0,1,.44-2.65.71.71,0,0,0-.7-.79c-1.32,0-2.12,1.76-2.12,3.79a4.62,4.62,0,0,0,4.41,4.76,4,4,0,0,0,3.7,3.26A5.39,5.39,0,0,0,27,29.61c-.08.61-.17,1.14-.26,1.67-3.88,2-6.7,3.44-9.25,5.73a9.14,9.14,0,0,0-3.17,6.26,4.85,4.85,0,0,0,5.11,5.11c4.05,0,7.13-3.26,8.63-7.76a34.84,34.84,0,0,0,1.17-8,80.12,80.12,0,0,0,8.08-5.12,3.61,3.61,0,0,0,.89,1.06A11,11,0,0,0,31.9,38.69c0,4.58,3.08,9.69,9.16,9.69a8.39,8.39,0,0,0,8.46-8.11C49.52,36.66,47.5,33.31,43.62,33.31ZM19.39,45.65a2,2,0,0,1-2.21-2.2c0-3.79,5.26-7.4,9.22-9.34C25.7,39.4,23.91,45.44,19.39,45.65Zm2.9-20.8c0-2.91,2.87-8.44,4.63-7.86C29,17.69,25.2,23.26,22.29,24.85ZM39,23.53c0-3.62,2.44-7.13,3.78-6.46C44.25,17.83,41.59,21.23,39,23.53Z"/></g></g></svg>