<svg xmlns="http://www.w3.org/2000/svg" viewBox="0 0 104.65 35.19"><defs><style>.cls-1{fill:#969696;}</style></defs><g id="Capa_2" data-name="Capa 2"><g id="Capa_1-2" data-name="Capa 1"><path class="cls-1" d="M8.44,29.74a3.24,3.24,0,0,0-1.25-.25,1.65,1.65,0,0,0-1.76,1.75A1.6,1.6,0,0,0,7.08,33a2.77,2.77,0,0,0,.64-.07V31.64h-1v-.76h2v2.6a6.12,6.12,0,0,1-1.57.25c-1.57,0-2.66-.78-2.66-2.42a2.4,2.4,0,0,1,2.66-2.59,4.57,4.57,0,0,1,1.42.21Zm4.6.34h-.93v1.75c0,.45-.14,1.18-.82,1.18s-.6-.59-.6-1V30.08H9.76v2.25c0,.81.37,1.4,1.21,1.4a1.52,1.52,0,0,0,1.18-.56h0v.48H13Zm1.44,2.5a1.05,1.05,0,0,0,1.13,1.16,2.31,2.31,0,0,0,.69-.09l0-.73a.87.87,0,0,1-.42.09c-.36,0-.44-.28-.44-.59V30.76h.82v-.68h-.82v-1l-.93.3v.72h-.69v.68h.69Zm5.43.87a2.43,2.43,0,0,1-1.23.29,1.69,1.69,0,0,1-1.86-1.86A1.67,1.67,0,0,1,18.48,30c1.32,0,1.69.91,1.69,2.16H17.7a1,1,0,0,0,1,.91,2.35,2.35,0,0,0,1.19-.37Zm-.62-1.94c0-.45-.24-.84-.76-.84a.82.82,0,0,0-.83.84Zm3.89-2.7h1.23c1.05,0,2,.3,2,1.46s-.83,1.54-1.87,1.54h-.41v1.84h-1Zm1,2.24h.34c.49,0,.92-.16.92-.72s-.42-.76-.92-.76h-.34Zm3.08,2.6h.93V32.34c0-.51,0-1.46.76-1.46a.9.9,0,0,1,.41.08V30a.89.89,0,0,0-.28,0,1.1,1.1,0,0,0-1,.9h0v-.81h-.83Zm5.59-.2a2.37,2.37,0,0,1-1.22.29,1.7,1.7,0,0,1-1.87-1.86A1.68,1.68,0,0,1,31.39,30c1.32,0,1.7.91,1.7,2.16H30.62a.93.93,0,0,0,1,.91,2.32,2.32,0,0,0,1.18-.37Zm-.62-1.94c0-.45-.24-.84-.76-.84a.81.81,0,0,0-.82.84Zm1.81-3h.93v.88H34Zm0,1.54h.93v3.57H34Zm4.27.05a3.9,3.9,0,0,0-1-.14c-.73,0-1.41.34-1.41,1.11,0,1.29,1.62.82,1.62,1.52,0,.34-.37.44-.61.44a2.13,2.13,0,0,1-.92-.24l-.05.76a4.16,4.16,0,0,0,1.05.15c.76,0,1.5-.33,1.5-1.16,0-1.29-1.62-.93-1.62-1.5,0-.31.3-.4.55-.4a2.28,2.28,0,0,1,.84.16Zm3.93,3.32a2.43,2.43,0,0,1-1.23.29,1.7,1.7,0,0,1-1.86-1.86A1.68,1.68,0,0,1,40.78,30c1.32,0,1.7.91,1.7,2.16H40a.93.93,0,0,0,1,.91,2.32,2.32,0,0,0,1.18-.37Zm-.62-1.94c0-.45-.24-.84-.76-.84a.81.81,0,0,0-.82.84Zm1.79,2.14h1v-1h-1Z"/><path class="cls-1" d="M51.45,29.74a3.24,3.24,0,0,0-1.25-.25,1.65,1.65,0,0,0-1.76,1.75A1.6,1.6,0,0,0,50.09,33a2.77,2.77,0,0,0,.64-.07V31.64h-1v-.76h2v2.6a6.12,6.12,0,0,1-1.57.25c-1.57,0-2.66-.78-2.66-2.42a2.4,2.4,0,0,1,2.66-2.59,4.62,4.62,0,0,1,1.42.21Zm4.6.34h-.93v1.75c0,.45-.14,1.18-.82,1.18s-.6-.59-.6-1V30.08h-.93v2.25c0,.81.37,1.4,1.21,1.4a1.52,1.52,0,0,0,1.18-.56h0v.48h.88Zm1.44,2.5a1.05,1.05,0,0,0,1.13,1.16,2.31,2.31,0,0,0,.69-.09l0-.73a.87.87,0,0,1-.42.09c-.36,0-.44-.28-.44-.59V30.76h.82v-.68h-.82v-1l-.93.3v.72H56.8v.68h.69Zm5.43.87a2.43,2.43,0,0,1-1.23.29,1.69,1.69,0,0,1-1.86-1.86A1.67,1.67,0,0,1,61.48,30c1.33,0,1.71.91,1.71,2.16H60.71a1,1,0,0,0,1,.91,2.35,2.35,0,0,0,1.19-.37Zm-.62-1.94c0-.45-.24-.84-.76-.84a.82.82,0,0,0-.83.84Zm4-2.7H68c.63,0,1.57.18,1.57,1.24a1.07,1.07,0,0,1-1,1.08v0a1.12,1.12,0,0,1,1.11,1.1c0,1.22-1.09,1.4-1.71,1.4H66.27Zm1,2h.4c.41,0,.92-.09.92-.59s-.5-.6-.94-.6h-.38Zm0,2.13h.46c.45,0,1-.11,1-.68s-.51-.72-1-.72h-.46Zm6.23.56a2.43,2.43,0,0,1-1.23.29,1.7,1.7,0,0,1-1.87-1.86A1.68,1.68,0,0,1,72,30c1.33,0,1.7.91,1.7,2.16H71.26a.94.94,0,0,0,1,.91,2.39,2.39,0,0,0,1.19-.37Zm-.63-1.94c0-.45-.23-.84-.75-.84a.82.82,0,0,0-.83.84Zm4-1.38a3.9,3.9,0,0,0-1-.14c-.73,0-1.4.34-1.4,1.11,0,1.29,1.61.82,1.61,1.52,0,.34-.37.44-.61.44a2.09,2.09,0,0,1-.91-.24l-.06.76a4.17,4.17,0,0,0,1.06.15c.75,0,1.5-.33,1.5-1.16,0-1.29-1.62-.93-1.62-1.5,0-.31.3-.4.55-.4a2.19,2.19,0,0,1,.83.16Zm3.26,0a4,4,0,0,0-1-.14c-.73,0-1.4.34-1.4,1.11,0,1.29,1.62.82,1.62,1.52,0,.34-.38.44-.61.44a2.13,2.13,0,0,1-.92-.24l0,.76a4.16,4.16,0,0,0,1,.15c.76,0,1.5-.33,1.5-1.16,0-1.29-1.62-.93-1.62-1.5,0-.31.3-.4.55-.4a2.19,2.19,0,0,1,.83.16ZM84,33.45a2.43,2.43,0,0,1-1.23.29,1.69,1.69,0,0,1-1.86-1.86A1.67,1.67,0,0,1,82.57,30c1.33,0,1.71.91,1.71,2.16H81.8a.94.94,0,0,0,1,.91A2.39,2.39,0,0,0,84,32.69Zm-.62-1.94c0-.45-.24-.84-.76-.84a.82.82,0,0,0-.83.84Zm1.81,2.14h.93V32.34c0-.51,0-1.46.75-1.46a.92.92,0,0,1,.42.08V30A1,1,0,0,0,87,30a1.1,1.1,0,0,0-1,.9h0v-.81H85.2Zm6.13-3.57H90.4v1.75c0,.45-.14,1.18-.82,1.18s-.6-.59-.6-1V30.08h-.93v2.25c0,.81.37,1.4,1.21,1.4a1.52,1.52,0,0,0,1.18-.56h0v.48h.88Zm1.13,3.57h.93V31.9c0-.46.15-1.18.82-1.18s.61.59.61,1v1.91h.93V31.4c0-.81-.37-1.41-1.22-1.41a1.33,1.33,0,0,0-1.17.57h0v-.48h-.89Zm7.7-3.57V33.3a1.68,1.68,0,0,1-1.89,1.89A3,3,0,0,1,97,35l.07-.79a2.76,2.76,0,0,0,1,.31c1,0,1.08-.77,1.08-1.39h0a1.27,1.27,0,0,1-1.11.57c-1.06,0-1.46-.85-1.46-1.8S97.09,30,98.16,30a1.2,1.2,0,0,1,1.1.57h0v-.48Zm-1.75,2.85c.58,0,.82-.51.82-1.1s-.24-1.11-.78-1.11-.83.58-.83,1.13.26,1.08.79,1.08m2.88.72h1v-1h-1Z"/><rect class="cls-1" y="22.34" width="104.65" height="2.81"/><rect class="cls-1" width="104.65" height="2.81"/><path class="cls-1" d="M6.89,9.36l.05,1.7H7a3,3,0,0,1,3.21-1.82v2.5H9a2,2,0,0,0-1.37.69,3.28,3.28,0,0,0-.37,1.67v4.68H4.43l0-7.55c0-.39-.06-1.18-.09-1.87ZM11.39,12a2.57,2.57,0,0,1,1.28-2.35,5.54,5.54,0,0,1,2.77-.6c1.9,0,4,.7,4,3.53v5.14a8.55,8.55,0,0,0,.13,1H17.06a9.53,9.53,0,0,1-.1-1.26h0A3.05,3.05,0,0,1,14,19.06,2.79,2.79,0,0,1,11,16.2a3.27,3.27,0,0,1,2-3,9,9,0,0,1,3.67-.51v-.88a1.2,1.2,0,0,0-1.29-1.16A1.27,1.27,0,0,0,14.09,12Zm5.25,2.33c-1,0-3,0-3,1.48A1.31,1.31,0,0,0,15,17.18c1.56,0,1.61-1.73,1.61-2.83m3.82-5v1.87h1.89v4.64c0,2,.47,3.19,2.67,3.19a11.22,11.22,0,0,0,2.21-.28V17.12c-.3,0-.6.06-.9.06-1,0-1.16-.34-1.16-1.58V11.23h2.12V9.36H25.17V6.48l-2.82,1V9.36Zm8.38-4.13h3V7.65h-3Zm.1,4.12h2.81v9.42H28.94Zm7.31,4.72c0,1.5.28,3.11,2,3.11s2-1.61,2-3.11S40,11,38.26,11s-2,1.61-2,3.12m6.93,0a4.63,4.63,0,0,1-4.92,5,4.63,4.63,0,0,1-4.92-5,4.64,4.64,0,0,1,4.92-5,4.64,4.64,0,0,1,4.92,5m4.49,0c0,1.29.51,3.11,2,3.11,1.8,0,2-1.67,2-3.11S51.5,11,49.7,11c-1.52,0-2,1.82-2,3.12m0-3.63h0a3.2,3.2,0,0,1,2.51-1.37c2.93,0,4.41,2.46,4.41,5s-1.29,5-4.05,5a3.09,3.09,0,0,1-2.87-1.62h0v4.94H44.85V11.23c0-.62-.05-1.26-.09-1.87h2.85Zm11.58,8.34V13.11c0-1.37.81-2.16,1.69-2.16,1.39,0,1.67,1.14,1.69,2.16v5.67h2.81V12.64a6.46,6.46,0,0,0-.19-1.5c-.33-1.37-2.15-2.07-3.09-2.07a3.21,3.21,0,0,0-2.89,1.43l0,0V5.23H56.44V18.78ZM67.68,12A2.55,2.55,0,0,1,69,9.67a5.52,5.52,0,0,1,2.77-.6c1.9,0,4,.7,4,3.53v5.14a8.55,8.55,0,0,0,.13,1H73.35a9.53,9.53,0,0,1-.1-1.26h0a3.06,3.06,0,0,1-2.89,1.54,2.78,2.78,0,0,1-3.07-2.86,3.27,3.27,0,0,1,2-3,9,9,0,0,1,3.67-.51v-.88a1.2,1.2,0,0,0-1.29-1.16A1.27,1.27,0,0,0,70.38,12Zm5.25,2.33c-1,0-3,0-3,1.48a1.31,1.31,0,0,0,1.37,1.35c1.56,0,1.61-1.73,1.61-2.83m4.85-5c0,.69.09,1.48.09,1.87l0,7.55h2.8V14.1a3.38,3.38,0,0,1,.37-1.67,2,2,0,0,1,1.37-.69h1.22V9.24a3,3,0,0,0-3.21,1.82h0l-.06-1.7Zm10.11,0H85.1v9.42h2.81V13.11c0-1.37.81-2.16,1.69-2.16,1.39,0,1.67,1.15,1.69,2.16v5.67H94.1V13.11c0-1.37.81-2.16,1.69-2.16,1.39,0,1.67,1.15,1.69,2.16v5.67h2.82V13.11a5.73,5.73,0,0,0-.29-2.25,3.56,3.56,0,0,0-3-1.79,3.61,3.61,0,0,0-3.19,1.79,3.56,3.56,0,0,0-3-1.79,3.29,3.29,0,0,0-2.89,1.39h0Z"/></g></g></svg>