<svg xmlns="http://www.w3.org/2000/svg" viewBox="0 0 104.94 13.57"><defs><style>.cls-1{fill:#969696;}</style></defs><g id="Capa_2" data-name="Capa 2"><g id="Capa_1-2" data-name="Capa 1"><path class="cls-1" d="M100.34,13.57h-22V10H98.07c.84,0,1.54-.35,1.54-.78s-.7-.78-1.54-.78H96.28l-15.53,0a4.44,4.44,0,0,1-4.61-4.25A4.44,4.44,0,0,1,80.75,0h22V3.54H83c-.85,0-1.53.35-1.53.78s.68.78,1.53.78h1.52l15.81,0a4.44,4.44,0,0,1,4.6,4.25,4.44,4.44,0,0,1-4.6,4.25"/><rect class="cls-1" x="36.81" width="6.06" height="13.57"/><polygon class="cls-1" points="17.13 13.57 0 0 8.07 0 17.13 7.18 26.05 0 33.99 0 17.13 13.57"/><path class="cls-1" d="M67.49,0H45.87V13.57h6.06V9.9H67.49c4.23,0,7.67-2.22,7.67-4.95S71.72,0,67.49,0m-.86,6.15H51.84V3.37H66.63c1.27,0,2.3.62,2.3,1.39s-1,1.39-2.3,1.39"/></g></g></svg>