<svg xmlns="http://www.w3.org/2000/svg" viewBox="0 0 175.75 33.75"><defs><style>.cls-1{fill:#969696;fill-rule:evenodd;}</style></defs><g id="Capa_2" data-name="Capa 2"><g id="Capa_1-2" data-name="Capa 1"><path class="cls-1" d="M3.67,12.46h0l1,3.91H2.61l1.06-3.91ZM0,19.73H1.71l.53-1.94H5.08l.49,1.94H7.28l-2.55-9H2.59L0,19.73Z"/><path class="cls-1" d="M7.47,22a2.85,2.85,0,0,0,.81.1c1.27,0,1.82-.54,1.82-1.86v-7H8.56V20c0,.62-.22.79-.57.79s-.35,0-.52,0V22Zm1.09-9.92H10.1V10.62H8.56v1.45Z"/><path class="cls-1" d="M15.47,13.26v4.66a2,2,0,0,1-1.44.69c-.53,0-.8-.27-.8-1.15v-4.2H11.69v4.43c0,1.32.62,2.16,1.91,2.16a3.57,3.57,0,0,0,2-.82v.7H17V13.26Z"/><path class="cls-1" d="M20.14,19.73V15.06a2,2,0,0,1,1.45-.68c.52,0,.79.27.79,1.14v4.21h1.54V15.3c0-1.32-.62-2.16-1.91-2.16A3.57,3.57,0,0,0,20,14v-.7H18.6v6.47Z"/><path class="cls-1" d="M24.87,13.26V14.5h.89v3.86c0,.92.45,1.49,1.59,1.49a9.87,9.87,0,0,0,1.22-.1V18.49a4,4,0,0,1-.71.12c-.38,0-.56-.1-.56-.45V14.5h1.27V13.26H27.3V11.12H25.76v2.14Z"/><path class="cls-1" d="M34.46,19.73a2.87,2.87,0,0,1-.13-.93V15.75c0-1.94-.75-2.58-2.49-2.61a2.88,2.88,0,0,0-2.41,1.18l1,.76a1.67,1.67,0,0,1,1.42-.8c.55,0,.95.27.95.77v.55c-2.52.3-3.71,1.07-3.71,2.54a1.65,1.65,0,0,0,1.75,1.71,3.39,3.39,0,0,0,2-.68l.1.56ZM32.79,18a2.64,2.64,0,0,1-1.42.69.7.7,0,0,1-.75-.76c0-.91,1.14-1.12,2.17-1.32V18Z"/><path class="cls-1" d="M37.42,19.73V15.08a2.31,2.31,0,0,1,1.29-.7c.56,0,.77.31.77.83v4.52H41V15.08a2.33,2.33,0,0,1,1.3-.7c.56,0,.77.31.77.83v4.52h1.54V15.08c0-1.55-.92-1.94-1.59-1.94a2.92,2.92,0,0,0-2.23.94,1.7,1.7,0,0,0-1.59-.94,2.52,2.52,0,0,0-1.94.82v-.7H35.87v6.47Z"/><path class="cls-1" d="M47.28,15.7c0-.9.5-1.42,1.24-1.42s1.22.52,1.25,1.42Zm3.9,1v-.63a2.7,2.7,0,0,0-2.63-3c-1.76,0-2.81,1.3-2.81,3.35s1,3.36,2.73,3.36a2.9,2.9,0,0,0,2.71-1.32l-1.12-.69a1.7,1.7,0,0,1-1.44.77c-.72,0-1.32-.52-1.34-1.87Z"/><path class="cls-1" d="M54,19.73V15.06a2,2,0,0,1,1.44-.68c.52,0,.8.27.8,1.14v4.21h1.54V15.3c0-1.32-.62-2.16-1.92-2.16a3.57,3.57,0,0,0-2,.82v-.7H52.45v6.47Z"/><path class="cls-1" d="M58.72,13.26V14.5h.9v3.86c0,.92.44,1.49,1.59,1.49a10.2,10.2,0,0,0,1.22-.1V18.49a4.39,4.39,0,0,1-.71.12c-.39,0-.56-.1-.56-.45V14.5h1.27V13.26H61.16V11.12H59.62v2.14Z"/><path class="cls-1" d="M111.66,10.75h-1.54v3.11h0a2.23,2.23,0,0,0-1.57-.72c-1.66,0-2.58,1.59-2.58,3.18,0,2,.87,3.53,2.58,3.53a2.37,2.37,0,0,0,1.76-.82l.07.7h1.31v-9ZM110.12,18a1.65,1.65,0,0,1-1.2.57c-.92,0-1.44-.75-1.44-2.12s.52-2.11,1.44-2.11a1.78,1.78,0,0,1,1.2.55V18Z"/><path class="cls-1" d="M114.29,15.7c0-.9.5-1.42,1.25-1.42s1.22.52,1.24,1.42Zm3.91,1v-.63a2.71,2.71,0,0,0-2.64-3c-1.75,0-2.81,1.3-2.81,3.35s1.06,3.36,2.74,3.36a2.92,2.92,0,0,0,2.71-1.32l-1.12-.69a1.71,1.71,0,0,1-1.44.77c-.73,0-1.32-.52-1.35-1.87Z"/><path class="cls-1" d="M123.43,19.73h3.31c2.29,0,3.27-1,3.27-2.37A2.1,2.1,0,0,0,128.45,15a2,2,0,0,0,1.37-2c-.1-1.61-1.26-2.2-3-2.2h-3.34v9Zm1.72-4h1.72c1,0,1.43.45,1.43,1.31s-.44,1.31-1.43,1.31h-1.72V15.72Zm0-3.58h1.72a1.1,1.1,0,1,1,0,2.19h-1.72V12.14Z"/><path class="cls-1" d="M136.36,19.73a2.87,2.87,0,0,1-.13-.93V15.75c0-1.94-.74-2.58-2.48-2.61a2.88,2.88,0,0,0-2.42,1.18l1,.76a1.67,1.67,0,0,1,1.42-.8c.54,0,.94.27.94.77v.55c-2.51.3-3.71,1.07-3.71,2.54a1.65,1.65,0,0,0,1.76,1.71,3.36,3.36,0,0,0,2-.68l.1.56ZM134.69,18a2.61,2.61,0,0,1-1.42.69.7.7,0,0,1-.74-.76c0-.91,1.13-1.12,2.16-1.32V18Z"/><path class="cls-1" d="M139.22,19.73V15.8a1.85,1.85,0,0,1,1.44-1.05h.28V13.14a1.9,1.9,0,0,0-1.82,1.23h0V13.26h-1.42v6.47Z"/><path class="cls-1" d="M146.78,14.87a2.54,2.54,0,0,0-2.55-1.73c-1.75,0-2.81,1.3-2.81,3.35s1.06,3.36,2.81,3.36a2.66,2.66,0,0,0,2.59-1.61l-1.17-.66a1.58,1.58,0,0,1-1.37,1c-.91,0-1.32-.67-1.32-2.12s.41-2.11,1.27-2.11,1,.43,1.27,1l1.28-.49Z"/><path class="cls-1" d="M149.18,15.7c0-.9.5-1.42,1.25-1.42s1.22.52,1.24,1.42Zm3.91,1v-.63a2.71,2.71,0,0,0-2.64-3c-1.75,0-2.81,1.3-2.81,3.35s1.06,3.36,2.74,3.36a2.92,2.92,0,0,0,2.71-1.32L152,17.84a1.71,1.71,0,0,1-1.44.77c-.72,0-1.32-.52-1.35-1.87Z"/><polygon class="cls-1" points="154.52 19.73 156.06 19.73 156.06 10.75 154.52 10.75 154.52 19.73 154.52 19.73"/><path class="cls-1" d="M161.39,16.49c0,1.45-.4,2.12-1.26,2.12s-1.27-.67-1.27-2.12.41-2.11,1.27-2.11,1.26.67,1.26,2.11Zm-4.08,0c0,2.06,1.06,3.36,2.82,3.36s2.81-1.3,2.81-3.36-1.06-3.35-2.81-3.35-2.82,1.3-2.82,3.35Z"/><path class="cls-1" d="M165.58,19.73V15.06a2,2,0,0,1,1.44-.68c.52,0,.79.27.79,1.14v4.21h1.55V15.3c0-1.32-.62-2.16-1.92-2.16a3.57,3.57,0,0,0-2,.82v-.7H164v6.47Z"/><path class="cls-1" d="M175.75,19.73a2.87,2.87,0,0,1-.13-.93V15.75c0-1.94-.74-2.58-2.48-2.61a2.88,2.88,0,0,0-2.42,1.18l1,.76a1.66,1.66,0,0,1,1.42-.8c.54,0,.94.27.94.77v.55c-2.51.3-3.71,1.07-3.71,2.54a1.65,1.65,0,0,0,1.76,1.71,3.36,3.36,0,0,0,2-.68l.1.56ZM174.08,18a2.61,2.61,0,0,1-1.42.69.7.7,0,0,1-.74-.76c0-.91,1.13-1.12,2.16-1.32V18Z"/><path class="cls-1" d="M67.53,16.88a94.49,94.49,0,0,1,7.73-9.15A94.18,94.18,0,0,1,84.41,0a93.33,93.33,0,0,1,9.14,7.73,94.49,94.49,0,0,1,7.73,9.15A95.82,95.82,0,0,1,93.55,26a94.13,94.13,0,0,1-9.14,7.72A95,95,0,0,1,75.26,26a95.82,95.82,0,0,1-7.73-9.15ZM84.41.3,67.84,16.88,84.41,33.45,101,16.88,84.41.3ZM76.82,10.92l3.37-3.27-.07,7.54h2.6V4.94l1.81-1.71,1.71,1.64v24L84.6,30.52l-1.8-1.44.07-10.44H80.19v8L76.74,23V18.49H72.25l-1.56-1.74L72.25,15h4.49l.08-4.12Zm12,15.33V7.65L92.15,11V23l-3.38,3.22Zm5.86-12.92,3.49,3.49-3.49,3.46v-7Z"/></g></g></svg>