<svg xmlns="http://www.w3.org/2000/svg" viewBox="0 0 115.19 44.03"><defs><style>.cls-1{fill:#969696;}</style></defs><g id="Capa_2" data-name="Capa 2"><g id="Capa_1-2" data-name="Capa 1"><path class="cls-1" d="M67,13.21H50.25c-.88,5-2.35,13.46-3.07,17.61h7.11c.54-3.12,2-11.69,2.69-15.43h5.35a3.3,3.3,0,0,1,3.47,4.1c-.36,2.05-1.22,7-2,11.33h7.11c.5-2.91,1.49-8.56,2-11.22.64-3.61-1.27-6.39-5.9-6.39Z"/><path class="cls-1" d="M30.63,28.72c-3.31-.55-2.69-4.5-2.69-4.5a46.74,46.74,0,0,0,9.16,0c2.19-.22,6.51-.76,7.74-4.13s.29-6-3.73-6.78a28.06,28.06,0,0,0-9.32-.1c-5.14.69-8,2.43-9.22,5.49a20.25,20.25,0,0,0-1.29,5.49c-.33,3.31.3,6.34,4.43,6.67a59.51,59.51,0,0,0,14.52-.38l1.44-2.05a41.79,41.79,0,0,1-11,.27Zm-1.39-9.81a6.07,6.07,0,0,1,4.6-4,7,7,0,0,1,3.28,0c1.91.41,2.49,2.63,1.66,4.37A4.61,4.61,0,0,1,35,22a25.68,25.68,0,0,1-6.68.24,18.29,18.29,0,0,1,1-3.37Z"/><path class="cls-1" d="M100.48,28.72c-3.31-.55-2.69-4.5-2.69-4.5a46.74,46.74,0,0,0,9.16,0c2.19-.22,6.51-.76,7.74-4.13s.29-6-3.73-6.78a28.06,28.06,0,0,0-9.32-.1c-5.14.69-8,2.43-9.22,5.49a20.25,20.25,0,0,0-1.29,5.49c-.33,3.31.3,6.34,4.43,6.67a59.51,59.51,0,0,0,14.52-.38l1.44-2.05a41.79,41.79,0,0,1-11,.27Zm-1.39-9.81a6.07,6.07,0,0,1,4.6-4A7,7,0,0,1,107,15c1.91.41,2.49,2.63,1.66,4.37a4.61,4.61,0,0,1-3.82,2.7,25.68,25.68,0,0,1-6.68.24,18.29,18.29,0,0,1,1-3.37Z"/><path class="cls-1" d="M9.16,19.08c.38-2.15,1.14-3.39,3.48-3.82a35.56,35.56,0,0,1,8.23.13l1.52-2.18c-3.44-.25-9.25-.53-12.69,0-4.91.71-6.91,1.71-7.46,4.85C1.9,19.91.42,28.41,0,30.82H7.11c.49-2.8,1.7-9.75,2.05-11.74Z"/><path class="cls-1" d="M86,2.42c-4,2.84-5.42,6.31-6.17,10.59l-3,17.25a54,54,0,0,1-1.64,7.9,5.8,5.8,0,0,1-5.23,4L68.63,44a14.26,14.26,0,0,0,8.94-2.4c4.05-2.83,5.54-6.88,6.29-11.15,0-.29,1.37-7.84,2-11.42.46-2.54,1.79-3.94,4.6-4l1.3-1.86H86.87A50.37,50.37,0,0,1,88.38,5.9a5.82,5.82,0,0,1,5.22-4L94.9,0A14.26,14.26,0,0,0,86,2.42Z"/></g></g></svg>