<svg xmlns="http://www.w3.org/2000/svg" viewBox="0 0 56.14 55.72"><defs><style>.cls-1{fill:#969696;}</style></defs><g id="Capa_2" data-name="Capa 2"><g id="Capa_1-2" data-name="Capa 1"><path class="cls-1" d="M30.9,12.14a16.75,16.75,0,0,0-5.65,0c-.15,0-.2-.11-.09-.19s2.91-2.22,2.91-2.22S30.89,11.87,31,12s.06.22-.08.19M26,26.05a.31.31,0,0,0-.18.18c.58.46,1,1.49,2.22,1.49s1.64-1,2.23-1.49a.32.32,0,0,0-.19-.18,9.87,9.87,0,0,1-2,.18,9.87,9.87,0,0,1-2-.18m2-1.74c-.34,0-.42-.13-.65-.13a1.19,1.19,0,0,0-.75.34.37.37,0,0,0,.1.22c.5.08.73.36,1.3.36s.8-.28,1.3-.36a.37.37,0,0,0,.1-.22,1.19,1.19,0,0,0-.75-.34c-.23,0-.31.13-.65.13m28,5.31c0,.67-.09,1.34-.18,2-3.18.52-4.31-2.31-7.56-2.17a20.82,20.82,0,0,1,.47,2.11c2.68,0,3.76,2.51,6.76,2.14-.17.77-.35,1.53-.57,2.28-2.36.23-3.2-2.12-5.93-2.06,0,.39,0,.79,0,1.18,0,.22,0,.44,0,.66,2.33,0,3.09,2.13,5.31,2-.27.76-.58,1.5-.92,2.22-1.6-.09-2.15-2.13-4.58-2-.07.52-.17,1-.28,1.56,2.11-.15,2.57,1.79,4.08,1.95-.38.7-.8,1.38-1.24,2.05-.9-.48-1.68-1.93-3.37-2,.17-.53.33-1.08.46-1.63A7,7,0,0,1,43.91,38c.46-2.66-3.67-5.37-3.67-7.32,0-2.12,1.07-3.29,1.07-6.15a9,9,0,0,0-2.58-6,5.13,5.13,0,0,0-1-.77,10,10,0,0,1,2.53,6.28c0,2.7-1.25,4.12-1.25,6.6s3.63,4.63,3.63,7.19c0,1-.32,2-1.39,3.93a8.24,8.24,0,0,0,5.13,2.51.78.78,0,0,0,.84-.48c.14-.3.27-.61.39-.92,1.48.06,2.15,1.4,3,1.94-.44.6-.92,1.18-1.41,1.74a5.43,5.43,0,0,0-2.36-1.91c-.19.38-.4.75-.61,1.11a4.58,4.58,0,0,1,2.05,1.8c-.53.55-1.08,1.08-1.65,1.58a5.36,5.36,0,0,0-1.55-1.64c-.23.31-.47.62-.72.91A4.83,4.83,0,0,1,45.67,50c-.66.53-1.35,1-2.06,1.51-.35-2.86-4.24-4.81-3.19-8.12a4.24,4.24,0,0,0-.76,2.19c0,2.4,2.55,4.3,2.76,6.68-.53.32-1.07.61-1.62.89-.1-2.62-2.8-5.47-2.8-7.63,0-2.39,3.14-4.8,3.14-7.63s-3.62-4.79-3.62-7.28,1.54-3.91,1.54-7.1a8.51,8.51,0,0,0-2.82-6.2,5,5,0,0,0-1-.67A9.17,9.17,0,0,1,37.83,23c0,3-1.76,4.65-1.76,7.58s3.55,4.57,3.55,7.3-3.31,5-3.31,7.85c0,2.55,2.92,5.1,3,8.13-.64.28-1.28.54-2,.77.38-3.07-2.91-6.23-2.91-8.72,0-2.74,3.43-5.08,3.43-8s-3.49-4.32-3.49-7.34,2.14-4.7,2.14-8a8.13,8.13,0,0,0-3.16-6.39L33.21,16c-.17-.13-.32,0-.2.18A8.54,8.54,0,0,1,35.06,22c0,3.06-2.46,5.54-2.46,8.5,0,3.49,3.3,4.49,3.3,7.36s-3.54,5.16-3.54,8.2c0,2.82,3.35,5.95,2.78,9.21-.68.18-1.36.32-2,.45.63-4.06-2.66-7-2.66-9.62,0-2.88,3.67-5.43,3.67-8.24,0-2.64-2.63-3.51-3-6.22a.63.63,0,0,0-.75-.58,8.87,8.87,0,0,1-2.3.45,8.87,8.87,0,0,1-2.3-.45.64.64,0,0,0-.75.58c-.34,2.71-3,3.58-3,6.22,0,2.81,3.67,5.36,3.67,8.24,0,2.65-3.29,5.56-2.66,9.62-.69-.13-1.37-.27-2-.45-.58-3.26,2.77-6.39,2.77-9.21,0-3-3.54-5.33-3.54-8.2s3.3-3.87,3.3-7.36c0-3-2.45-5.44-2.45-8.5a8.58,8.58,0,0,1,2-5.82c.12-.16,0-.31-.2-.18l-.12.09a8.13,8.13,0,0,0-3.16,6.39c0,3.34,2.14,5,2.14,8s-3.49,4.39-3.49,7.34,3.43,5.29,3.43,8c0,2.49-3.28,5.65-2.91,8.72-.66-.23-1.31-.49-1.95-.77,0-3,3-5.58,3-8.13,0-2.81-3.31-5.12-3.31-7.85s3.55-4.36,3.55-7.3S18.31,26,18.31,23a9.22,9.22,0,0,1,2.55-6.37,5,5,0,0,0-1,.67,8.51,8.51,0,0,0-2.82,6.2c0,3.19,1.54,4.62,1.54,7.1S15,35,15,37.86s3.14,5.24,3.14,7.63c0,2.16-2.7,5-2.8,7.63-.55-.28-1.09-.57-1.62-.89.21-2.38,2.76-4.28,2.76-6.68a4.24,4.24,0,0,0-.76-2.19c1,3.31-2.84,5.26-3.19,8.12-.71-.47-1.39-1-2.06-1.51a5,5,0,0,1,1.31-1.54c-.25-.29-.49-.6-.72-.91a5.33,5.33,0,0,0-1.54,1.64c-.57-.5-1.13-1-1.66-1.58a4.58,4.58,0,0,1,2.05-1.8c-.21-.36-.41-.73-.61-1.11A5.34,5.34,0,0,0,7,46.58c-.5-.56-1-1.14-1.42-1.74C6.35,44.3,7,43,8.5,42.9c.12.31.25.62.39.92a.79.79,0,0,0,.84.48,8.2,8.2,0,0,0,5.12-2.51c-1-1.94-1.38-2.92-1.38-3.93,0-2.56,3.64-4.71,3.64-7.19s-1.25-3.9-1.25-6.6a10,10,0,0,1,2.52-6.28,5.13,5.13,0,0,0-1,.77,9,9,0,0,0-2.58,6c0,2.86,1.07,4,1.07,6.15,0,1.95-4.13,4.66-3.66,7.32a7,7,0,0,1-4.67,1.91c.13.55.28,1.1.45,1.63-1.7.09-2.47,1.54-3.36,2-.45-.67-.86-1.35-1.25-2.05,1.52-.16,2-2.1,4.08-1.95-.11-.52-.21-1-.28-1.56-2.43-.16-3,1.88-4.57,2q-.51-1.08-.93-2.22c2.22.11,3-2.05,5.31-2,0-.22,0-.44,0-.66,0-.39,0-.79,0-1.18C4.31,33.86,3.48,36.21,1.11,36,.89,35.23.7,34.47.55,33.7c3,.37,4.07-2.14,6.75-2.14a18.45,18.45,0,0,1,.48-2.11C4.52,29.31,3.39,32.14.2,31.62c-.08-.66-.13-1.33-.17-2C3.72,30,5.11,27,8.47,27.37A19.91,19.91,0,0,1,9.57,25C5.36,24.3,3.93,27.82,0,27.28a28.08,28.08,0,0,1,56.14,0c-3.92.54-5.35-3-9.57-2.24a19.91,19.91,0,0,1,1.1,2.33C51,27,52.42,30,56.11,29.62M16,17.85a7.3,7.3,0,0,0-6.71.71,7.32,7.32,0,0,0-2.95-4.82.25.25,0,0,0-.41.24C6.25,18.19,3.79,21.84.77,25,3.89,26,6.54,22,10.58,23.37A21.08,21.08,0,0,1,16,17.85M28.07,15.3c-2.61,0-4.79,1.48-5.36,3.38-.05.15,0,.24.18.17a3.89,3.89,0,0,1,1.59-.32A3.24,3.24,0,0,1,27,19.6a4.59,4.59,0,0,1,0,2.65c-.44-.1-.6-.44-1-.44s-.76.31-1.49.31-.81-.35-1.28-.35-.67.58-.67,1.23c0,2.91,2.67,6.9,5.51,6.9s5.51-4,5.51-6.9c0-.65-.13-1.21-.72-1.29a1.72,1.72,0,0,1-1.23.41c-.72,0-.92-.31-1.35-.31S29.82,22.9,29.2,23a5.14,5.14,0,0,1-.09-3.36,3.26,3.26,0,0,1,2.56-1.07,3.84,3.84,0,0,1,1.58.32c.17.07.23,0,.18-.17-.57-1.9-2.75-3.38-5.36-3.38m4.15,4.17a2.48,2.48,0,0,0-1.82.7.82.82,0,0,0,0,.49c1.14-.39,2.14-.4,2.62.14a.88.88,0,0,0,.34-.69c0-.38-.38-.64-1.16-.64M23.1,20.8c.55-.55,1.7-.53,2.9-.09.05-.59-1-1.24-2.08-1.24-.77,0-1.16.26-1.16.64a.91.91,0,0,0,.34.69m18-9.84a9.26,9.26,0,0,0-5.29,2,20.51,20.51,0,0,1,2.38-4.75,10.22,10.22,0,0,0-6.41,2.88L30.5,7.85l2.78-2.46-3.72-.26L28.07,1.67,26.59,5.13l-3.72.26,2.78,2.46-1.26,3.28A10.22,10.22,0,0,0,18,8.25,20.51,20.51,0,0,1,20.36,13a9.26,9.26,0,0,0-5.29-2,24.65,24.65,0,0,1,3.14,5.1.34.34,0,0,0,.5.17,21.1,21.1,0,0,1,18.72,0,.34.34,0,0,0,.5-.17A25.09,25.09,0,0,1,41.07,11m4.49,12.41C49.6,22,52.25,26,55.37,25c-3-3.2-5.48-6.85-5.15-11.06a.26.26,0,0,0-.42-.24,7.32,7.32,0,0,0-2.95,4.82,7.3,7.3,0,0,0-6.71-.71,21.08,21.08,0,0,1,5.42,5.52"/></g></g></svg>